<?xml version="1.0" standalone="no"?>
<!DOCTYPE svg PUBLIC "-//W3C//DTD SVG 1.1//EN" "http://www.w3.org/Graphics/SVG/1.1/DTD/svg11.dtd" >
<svg>
<metadata>
Created by FontForge 20120731 at Wed Jun 27 07:34:46 2018
 By www-data
</metadata>
<defs>
<font id="poFont" horiz-adv-x="1024" >
  <font-face 
    font-family="poFont"
    font-weight="400"
    font-stretch="normal"
    units-per-em="1024"
    panose-1="2 0 5 3 0 0 0 0 0 0"
    ascent="960"
    descent="-64"
    bbox="-3.96997 -70.656 1426.54 960"
    underline-thickness="0"
    underline-position="0"
    unicode-range="U+0020-E92B"
  />
    <missing-glyph />
    <glyph glyph-name="refresh" unicode="&#xe900;" 
d="M872 868v-103.56c-87.78 100.14 -216.3 163.56 -360 163.56c-265.14 0 -480 -214.92 -480 -480s214.92 -480 480 -480c244.74 0 446.28 183.3 475.86 420h-121.26c-28.74 -169.98 -176.52 -300 -354.6 -300c-198.48 0 -360 161.46 -360 360c0 198.54 161.52 360 360 360
c106.02 0 200.58 -46.8 266.4 -120h-86.4v-120h300v300h-120z" />
    <glyph glyph-name="checkmark" unicode="&#xe901;" 
d="M556.8 288l316.8 316.8l-89.6 89.6l-316.8 -316.8l-227.2 227.2l-89.6 -89.6l316.8 -316.8z" />
    <glyph glyph-name="wizard-end" unicode="&#xe902;" horiz-adv-x="1225" 
d="M0 448c0 31.779 14.124 56.497 38.841 74.152c10.593 10.593 24.717 17.655 56.497 28.248c52.966 17.655 116.524 60.028 173.021 151.834c84.745 151.834 250.703 257.766 444.91 257.766c282.483 0 512 -229.517 512 -512s-229.517 -512 -512 -512
c-190.676 0 -356.634 105.931 -444.91 261.297c-56.497 88.276 -120.055 134.179 -173.021 151.834c-28.248 10.593 -45.903 17.655 -56.497 28.248c-24.717 14.124 -38.841 38.841 -38.841 70.621z" />
    <glyph glyph-name="wizard-start" unicode="&#xe903;" horiz-adv-x="1225" 
d="M1225.3 448c0 -31.744 -14.124 -56.497 -38.877 -74.152c-10.593 -10.593 -24.682 -17.655 -56.4969 -28.248c-52.9659 -17.655 -116.524 -60.028 -173.021 -151.87c-84.71 -151.799 -250.703 -257.73 -444.91 -257.73c-282.483 0 -512 229.517 -512 512
s229.517 512 512 512c190.676 0 356.634 -105.931 444.91 -261.297c56.532 -88.276 120.055 -134.179 173.021 -151.834c28.248 -10.593 45.903 -17.655 56.4969 -28.248c24.717 -14.124 38.877 -38.841 38.877 -70.621z" />
    <glyph glyph-name="wizard-middle" unicode="&#xe904;" horiz-adv-x="1423" 
d="M1384.17 522.152c-10.593 10.593 -24.717 17.655 -56.4969 28.248c-52.9659 17.655 -112.993 60.028 -169.49 148.303c-10.593 21.186 -24.717 38.841 -35.3101 56.497l-3.53101 3.53101c-17.655 24.717 -38.8409 45.903 -60.028 67.09l-7.06201 7.06201
c-7.06201 7.06201 -14.124 10.593 -21.186 17.655c-3.53101 0 -7.06201 3.53101 -14.124 7.06201c-10.593 7.06201 -21.186 17.655 -35.31 24.717c-7.06201 3.53101 -10.593 7.06201 -17.655 10.593s-10.593 7.06201 -17.655 10.593
c-10.593 3.53101 -21.186 10.593 -31.779 14.124c-7.06201 3.53101 -10.593 3.53101 -17.655 7.06201c-10.593 3.53101 -17.655 7.06201 -28.248 10.593c-3.53101 0 -10.593 3.53101 -14.124 3.53101l-42.372 10.593h-7.06201
c-14.124 3.53101 -24.717 3.53101 -38.841 7.06201h-14.124c-7.06201 3.53101 -24.717 3.53101 -38.841 3.53101v0v0v0v0c-14.124 0 -31.779 0 -45.903 -3.53101h-14.124c-14.124 0 -24.717 -3.53101 -38.841 -7.06201h-7.06201l-42.372 -10.593
c-3.53101 0 -10.593 -3.53101 -14.124 -3.53101c-10.593 -3.53101 -17.655 -7.06201 -28.248 -10.593c-7.06201 -3.53101 -10.593 -3.53101 -17.655 -7.06201c-10.593 -3.53101 -21.186 -10.593 -31.779 -14.124c-7.06201 -3.53101 -14.124 -7.06201 -17.655 -10.593
c-7.06201 -3.53101 -10.593 -7.06201 -17.655 -10.593c-10.593 -7.06201 -24.717 -14.124 -35.31 -24.717c-3.53101 -3.53101 -7.06201 -7.06201 -10.593 -7.06201c-7.06201 -7.06201 -14.124 -10.593 -21.186 -17.655
c-3.53101 -3.53101 -7.06201 -3.53101 -7.06201 -7.06201c-21.186 -21.186 -42.372 -45.903 -60.028 -67.09l-3.53101 -3.53101c-14.124 -17.655 -24.717 -35.31 -35.31 -56.497c-56.497 -88.276 -116.524 -130.648 -169.49 -148.303
c-28.248 -10.593 -45.903 -17.655 -56.497 -28.248c-24.717 -17.655 -38.841 -42.372 -38.841 -74.152s14.124 -56.497 38.841 -74.152c10.593 -10.593 24.717 -17.655 56.497 -28.248c52.966 -17.655 112.993 -60.028 169.49 -148.303
c10.593 -21.186 24.717 -38.841 35.31 -56.497l3.53101 -3.53101c17.655 -24.717 38.841 -45.903 60.028 -67.09c3.53101 -3.531 7.06201 -7.062 10.593 -7.062c7.06201 -7.062 14.124 -10.593 21.186 -17.655c3.53101 -3.531 7.06201 -7.062 10.593 -10.593
c10.593 -7.062 21.186 -14.124 31.779 -24.717c7.06201 -3.531 10.593 -7.062 17.655 -10.593c7.06201 -3.531 10.593 -7.062 17.655 -10.593c10.593 -3.531 21.186 -10.593 31.779 -14.124c7.06201 -3.531 10.593 -3.531 17.655 -7.062
c10.593 -3.531 17.655 -7.062 28.248 -10.593c3.53101 0 10.593 -3.531 14.124 -3.531l42.372 -10.593h7.06201c14.124 -3.531 24.717 -3.531 38.841 -7.062h14.124c14.124 0 31.779 -3.531 45.903 -3.531v0v0v0v0c14.124 0 31.779 0 45.903 3.531h14.124
c14.124 0 24.717 3.531 38.841 7.062h7.06201l42.372 10.593c3.53101 0 10.593 3.531 14.124 3.531c10.593 3.531 17.655 7.062 28.248 10.593c7.06201 3.531 10.593 3.531 17.655 7.062c10.593 3.531 21.186 10.593 31.779 14.124
c7.06201 3.531 10.593 7.062 17.655 10.593c7.06201 3.531 10.593 7.062 17.655 10.593c7.06201 3.531 21.186 14.124 31.779 24.717l10.593 10.593c7.06201 7.062 14.124 10.593 21.186 17.655c3.53101 3.531 7.06201 7.062 10.593 7.062
c21.186 21.186 42.3719 42.372 60.028 67.09l3.53101 3.53101c14.124 17.655 24.717 35.31 35.3101 56.497c56.4969 88.276 116.524 130.648 169.49 148.303c28.248 10.593 45.903 17.655 56.4969 28.248c24.717 14.124 38.8409 42.372 38.8409 74.152
c-3.53101 31.779 -17.655 56.497 -42.3719 74.152z" />
    <glyph glyph-name="close" unicode="&#xe905;" 
d="M825.6 678.4l-89.6 89.6l-230.4 -224l-224 224l-89.6 -89.6l224 -224l-224 -230.4l89.6 -89.6l224 224l230.4 -224l89.6 89.6l-224 230.4z" />
    <glyph glyph-name="info-circle" unicode="&#xe906;" 
d="M512 960c-282.752 0 -512 -229.197 -512 -512c0 -282.752 229.248 -512 512 -512c282.829 0 512 229.248 512 512c0 282.778 -229.222 512 -512 512zM465.485 703.258h92.16v-92.16h-92.16zM550.861 170.24h-76.8l-7.70599 380.006h92.16z" />
    <glyph glyph-name="warn" unicode="&#xe907;" 
d="M1016.32 115.2c-20.48 33.28 -419.84 716.8 -455.68 773.12c-23.04 38.4 -76.8 38.4 -99.84 0c-25.6 -40.96 -427.52 -727.04 -455.68 -775.68c-20.48 -35.84 2.56 -84.48 48.64 -84.48h908.8c46.08 2.56 76.8 43.52 53.76 87.04zM550.4 148.48h-76.8v76.8h76.8v-76.8z
M550.4 286.72h-76.8l-10.24 358.4h97.28z" />
    <glyph glyph-name="exclamation-circle" unicode="&#xe908;" 
d="M512 960c-281.6 0 -512 -230.4 -512 -512s230.4 -512 512 -512c281.6 0 512 230.4 512 512c0 281.6 -230.4 512 -512 512zM545.28 199.68h-76.8v76.8h76.8v-76.8zM545.28 335.36h-76.8l-10.24 358.4h97.28z" />
    <glyph glyph-name="check-circle" unicode="&#xe909;" 
d="M512 960c-281.6 0 -512 -230.4 -512 -512s230.4 -512 512 -512c281.6 0 512 230.4 512 512c0 281.6 -230.4 512 -512 512zM454.4 204.8l-249.6 249.6l70.4 70.4l179.2 -179.2l294.4 294.4l70.4 -70.4z" />
    <glyph glyph-name="calendar" unicode="&#xe90a;" horiz-adv-x="1027" 
d="M147.322 477.189h133.829v-130.065h-133.829v130.065zM353.847 477.189h133.829v-130.065h-133.829v130.065zM560.373 477.189h133.829v-130.065h-133.829v130.065zM763.043 477.189h133.829v-130.065h-133.829v130.065zM147.322 270.663h133.829v-130.065h-133.829
v130.065zM353.847 270.663h133.829v-130.065h-133.829v130.065zM560.373 270.663h133.829v-130.065h-133.829v130.065zM763.043 270.663h133.829v-130.065h-133.829v130.065zM1000.04 786.886c-17.899 17.899 -41.397 26.894 -64.895 26.894h-102.161v-38.276
c0 -55.991 -45.344 -101.335 -101.335 -101.335h-7.802c-55.991 0 -101.335 45.344 -101.335 101.335v38.276h-199.825v-35.339c0 -55.991 -45.344 -101.335 -101.335 -101.335h-7.70999c-55.991 0 -101.335 45.344 -101.335 101.335v35.339h-120.519
c-23.498 0 -46.996 -8.995 -64.895 -26.894s-26.894 -41.489 -26.894 -64.895v-694.201c0 -23.498 8.995 -46.996 26.894 -64.895c17.899 -17.807 41.397 -26.894 64.895 -26.894h843.359c23.498 0 46.996 9.087 64.895 26.894c17.899 17.899 26.894 41.397 26.894 64.895
v694.201c0 23.406 -8.995 46.904 -26.8959 64.895zM937.994 25.953h-849.05v581.301h849.05v-581.301zM694.201 960h68.842v-209.371h-68.842v209.371zM281.15 957.155h68.842v-209.371h-68.842v209.371z" />
    <glyph glyph-name="angle-left" unicode="&#xe90b;" 
d="M308.36 486.914l329.783 329.783c21.326 21.436 56.394 21.436 77.719 0s21.326 -56.282 0 -77.719l-290.868 -290.98l290.868 -290.868c21.326 -21.106 21.326 -56.503 0 -77.719c-10.773 -10.773 -24.733 -16.16 -38.914 -16.16c-13.961 0 -27.92 5.387 -38.805 16.05
l-329.783 329.783c-21.217 21.326 -21.217 56.613 -3.05176e-05 77.83z" />
    <glyph glyph-name="angle-right" unicode="&#xe90c;" 
d="M715.64 486.914l-329.783 329.783c-21.326 21.436 -56.394 21.436 -77.719 0s-21.326 -56.282 0 -77.719l290.868 -290.98l-290.868 -290.868c-21.326 -21.106 -21.326 -56.503 0 -77.719c10.773 -10.773 24.733 -16.16 38.914 -16.16c13.961 0 27.92 5.387 38.805 16.05
l329.783 329.783c21.217 21.326 21.217 56.613 0 77.83z" />
    <glyph glyph-name="config" unicode="&#xe90d;" 
d="M960 448c0 35.712 -4.60797 70.336 -12.544 103.616l71.872 41.536l-128 221.696l-71.936 -41.536c-50.24 47.488 -111.36 83.584 -179.392 103.872v82.816h-256v-82.816c-68.032 -20.288 -129.152 -56.384 -179.392 -103.872l-71.936 41.536l-128 -221.696
l71.872 -41.536c-7.936 -33.28 -12.544 -67.904 -12.544 -103.616s4.608 -70.336 12.544 -103.68l-71.872 -41.536l128 -221.696l71.936 41.536c50.304 -47.552 111.36 -83.648 179.392 -103.936v-82.688h256v82.816c68.032 20.288 129.152 56.384 179.392 103.936
l71.936 -41.536l128 221.696l-71.872 41.408c7.93597 33.344 12.544 67.968 12.544 103.68zM512 128c-176.448 0 -320 143.552 -320 320s143.552 320 320 320s320 -143.552 320 -320s-143.552 -320 -320 -320zM640 448c0 -70.692 -57.308 -128 -128 -128
s-128 57.308 -128 128c0 70.692 57.308 128 128 128c70.692 0 128 -57.308 128 -128z" />
    <glyph glyph-name="minus-square" unicode="&#xe90e;" 
d="M256 533.333h512v-170.667h-512v170.667zM853.333 960h-682.667c-94.293 0 -170.667 -76.373 -170.667 -170.667v-682.667c0 -94.293 76.373 -170.667 170.667 -170.667h682.667c94.293 0 170.667 76.373 170.667 170.667v682.667
c0 94.293 -76.373 170.667 -170.667 170.667zM938.667 163.584c0 -78.592 -63.659 -142.251 -142.251 -142.251h-568.832c-78.592 0 -142.251 63.659 -142.251 142.251v568.832c0 78.592 63.659 142.251 142.251 142.251h568.917c78.507 0 142.165 -63.659 142.165 -142.251
z" />
    <glyph glyph-name="arrow-down" unicode="&#xe90f;" horiz-adv-x="1025" 
d="M1024.71 448.433l-8.02802 89.878l-504.327 -491.026l-510.701 491.026l-1.653 -89.878l512.354 -512.433zM473.16 960h78.703v-641.112h-78.703z" />
    <glyph glyph-name="arrow-right" unicode="&#xe910;" horiz-adv-x="1023" 
d="M511.135 960l-89.96 -8.17798l490.69 -503.822l-490.69 -510.113l89.96 -1.887l511.921 512zM0 487.475h640.649v-78.636h-640.649v78.636h1.31836e-05z" />
    <glyph glyph-name="accordion-fold" unicode="&#xe911;" 
d="M547.2 603.072l-36.16 36.928l-0.640015 -0.640015l-0.640015 0.640015l-50.944 -52.096l-266.816 -266.048l64.448 -65.856l254.272 253.568l256.832 -253.568l64.448 65.856z" />
    <glyph glyph-name="accordion-unfold" unicode="&#xe912;" 
d="M476.8 292.928l36.16 -36.928l0.640015 0.640015l0.640015 -0.640015l50.944 52.096l266.816 266.048l-64.448 65.856l-254.272 -253.568l-256.832 253.568l-64.448 -65.856z" />
    <glyph glyph-name="search" unicode="&#xe913;" 
d="M806.464 244.032c56 74.816 89.536 167.36 89.536 267.968c0 247.424 -200.576 448 -448 448s-448 -200.576 -448 -448s200.576 -448 448 -448c100.608 0 193.152 33.536 267.904 89.536l217.6 -217.536l90.496 90.496zM448 192c-176.448 0 -320 143.552 -320 320
s143.552 320 320 320s320 -143.552 320 -320s-143.552 -320 -320 -320z" />
    <glyph glyph-name="angle-circle-o-down" unicode="&#xe914;" 
d="M512 960c-282.829 0 -512 -229.103 -512 -512c0 -282.761 229.171 -512 512 -512s512 229.239 512 512c0 282.897 -229.239 512 -512 512zM512 4.267c-244.599 0 -443.733 199.066 -443.733 443.733c0 244.599 199.134 443.733 443.733 443.733
c244.668 0 443.733 -199.134 443.733 -443.733c0 -244.668 -199.066 -443.733 -443.733 -443.733zM512 362.257l-188.143 188.143h-50.79v-50.654l222.345 -222.413h33.246l222.276 222.413v50.654h-50.722z" />
    <glyph glyph-name="angle-circle-o-right" unicode="&#xe915;" 
d="M512 960c-282.829 0 -512 -229.171 -512 -512s229.171 -512 512 -512s512 229.171 512 512s-229.171 512 -512 512zM512 4.267c-244.668 0 -443.733 199.066 -443.733 443.733s199.066 443.733 443.733 443.733s443.733 -199.134 443.733 -443.733
s-199.066 -443.733 -443.733 -443.733zM409.6 686.933v-50.722l188.143 -188.211l-188.143 -188.143v-50.79h50.722l222.345 222.413v33.178l-222.345 222.276z" />
    <glyph glyph-name="arrow-down-thin" unicode="&#xe916;" horiz-adv-x="1025" 
d="M512 167.488l-439.872 491.648l47.744 42.688l392.128 -438.336l392.128 438.336l47.744 -42.688z" />
    <glyph glyph-name="arrow-right-thin" unicode="&#xe917;" horiz-adv-x="1023" 
d="M779.2 448l-491.648 -439.872l-42.688 47.68l438.336 392.192l-438.336 392.128l42.688 47.744z" />
    <glyph glyph-name="arrow-down-double" unicode="&#xe918;" horiz-adv-x="910" 
d="M454.087 354.247l0.227997 -0.114014l454.087 454.428l-151.438 151.324l-302.876 -302.876l-302.876 302.876l-151.438 -151.324l454.087 -454.428zM759.012 543.004l-303.559 -303.559l-302.421 302.421l-151.324 -151.324l454.428 -454.428l454.315 455.566z" />
    <glyph glyph-name="arrow-up-double" unicode="&#xe919;" horiz-adv-x="910" 
d="M456.135 541.753l-0.227997 0.114014l-454.087 -454.428l151.438 -151.324l302.876 302.876l302.876 -302.876l151.438 151.324l-454.087 454.428zM151.211 352.996l303.559 303.559l302.421 -302.421l151.324 151.324l-454.428 454.428l-454.315 -455.566z" />
    <glyph glyph-name="clear" unicode="&#xe91a;" 
d="M511.959 960c-282.72 0 -511.959 -229.239 -511.959 -511.959s229.239 -511.959 511.959 -511.959c282.802 0 511.959 229.321 511.959 511.959c0.0819702 282.72 -229.157 511.959 -511.959 511.959zM749.224 253.364c11.957 -11.712 11.957 -30.876 0 -42.588
c-11.794 -11.876 -30.876 -11.876 -42.67 0l-194.595 194.595l-194.595 -194.677c-11.876 -11.876 -30.958 -11.876 -42.67 0c-11.876 11.876 -11.876 30.876 0 42.67l194.595 194.595l-194.513 194.677c-11.876 11.794 -11.876 30.795 0 42.67
c11.712 11.794 30.795 11.794 42.67 0l194.595 -194.595l194.513 194.677c11.876 11.794 31.04 11.794 42.67 0c11.957 -11.876 11.957 -30.876 0 -42.67l-194.595 -194.595z" />
    <glyph glyph-name="x-thin" unicode="&#xe91b;" horiz-adv-x="736" 
d="M82.573 99.945l285.427 285.539l285.427 -285.539c17.285 -17.284 45.343 -17.284 62.63 0s17.285 45.343 0 62.631l-285.427 285.427l285.427 285.65c17.285 17.174 17.285 45.12 0 62.516c-17.174 17.285 -45.233 17.285 -62.63 0l-285.427 -285.427l-285.427 285.314
c-17.285 17.285 -45.343 17.285 -62.742 0s-17.285 -45.233 0 -62.742l285.763 -285.314l-285.427 -285.427c-17.51 -17.398 -17.51 -45.233 0 -62.63c17.062 -17.398 45.121 -17.398 62.406 0z" />
    <glyph glyph-name="document" unicode="&#xe91c;" 
d="M685.184 960h-525.248c-52.928 0 -96 -43.072 -96 -96v-832c0 -52.928 43.072 -96 96 -96h704c52.928 0 96 43.072 96 96v653.312zM703.936 850.816l146.752 -146.816h-146.752v146.816zM863.936 0h-704c-17.6 0 -32 14.336 -32 32v832c0 17.664 14.4 32 32 32h480v-256
h256v-608c0 -17.6 -14.4 -32 -32 -32zM255.936 320h512v-64h-512zM255.936 512h512v-64h-512zM256 704h256v-64h-256v64z" />
    <glyph glyph-name="file" unicode="&#xe91d;" 
d="M899.2 758.4h-419.2l-86.4 121.6h-268.8c-51.2 0 -92.8 -41.6 -92.8 -92.8v-678.4c0 -51.2 41.6 -92.8 92.8 -92.8h777.6c51.2 0 92.8 41.6 92.8 92.8v556.8c-3.20001 51.2 -44.8 92.8 -96 92.8zM928 108.8c0 -16 -12.8 -28.8 -28.8 -28.8h-774.4
c-16 0 -28.8 12.8 -28.8 28.8v403.2h832v-403.2zM928 576h-832v211.2c0 16 12.8 28.8 28.8 28.8h240l83.2 -121.6h451.2c16 0 28.8 -12.8 28.8 -28.8v-89.6z" />
    <glyph glyph-name="plus-square" unicode="&#xe91e;" 
d="M426.667 533.333h-170.667v-170.667h170.667v-170.667h170.667v170.667h170.667v170.667h-170.667v170.667h-170.667v-170.667zM853.333 960h-682.667c-94.293 0 -170.667 -76.373 -170.667 -170.667v-682.667c0 -94.293 76.373 -170.667 170.667 -170.667h682.667
c94.293 0 170.667 76.373 170.667 170.667v682.667c0 94.293 -76.373 170.667 -170.667 170.667zM938.667 163.584c0 -78.592 -63.659 -142.251 -142.251 -142.251h-568.832c-78.592 0 -142.251 63.659 -142.251 142.251v568.832c0 78.592 63.659 142.251 142.251 142.251
h568.917c78.507 0 142.165 -63.659 142.165 -142.251z" />
    <glyph glyph-name="add" unicode="&#xe91f;" 
d="M896 512h-320v320h-128v-320h-320v-128h320v-320h128v320h320v128z" />
    <glyph glyph-name="reduce" unicode="&#xe920;" 
d="M128 512h768v-128h-768v128z" />
    <glyph glyph-name="discount" unicode="&#xe921;" 
d="M394.24 601.6v0h51.2l10.24 15.36l-35.84 46.08c-10.24 10.24 -20.48 15.36 -35.84 15.36c-25.6 0 -40.96 -15.36 -40.96 -35.84c5.12 -25.6 15.36 -40.96 51.2 -40.96zM358.4 488.96l30.72 35.84h-71.68v-307.2h153.6v302.08l-92.16 -107.52zM629.76 601.6v0
c40.96 0 46.08 20.48 46.08 40.96s-20.48 40.96 -40.96 40.96v0c-10.24 0 -25.6 -5.12 -30.72 -15.36v0l-40.96 -46.08l10.24 -20.48zM0 960v-1024h1024v1024h-1024zM819.2 524.8h-40.96v-384h-532.48v384h-40.96v76.8h66.56c-10.24 10.24 -10.24 25.6 -10.24 40.96
c0 61.44 51.2 112.64 122.88 112.64c40.96 0 81.92 -20.48 102.4 -46.08v0v0v0l20.48 -25.6l20.48 25.6c25.6 30.72 61.44 46.08 102.4 46.08c71.68 0 128 -51.2 128 -112.64c0 -15.36 -5.12 -25.6 -10.24 -40.96h71.68v-76.8zM665.6 488.96l-30.72 -76.8l-81.92 97.28
v-291.84h153.6v307.2h-71.68z" />
    <glyph glyph-name="staricon" unicode="&#xe922;" 
d="M478.336 704l9.216 -224.64l-206.208 78.336l-25.344 -76.032l211.968 -63.36l-142.848 -169.344l62.208 -49.536l131.328 182.016l131.328 -182.016l62.208 49.536l-142.848 169.344l211.968 63.36l-25.344 76.032l-205.056 -78.336l8.06403 224.64h-80.64z" />
    <glyph glyph-name="en-us-discount" unicode="&#xe923;" 
d="M394.24 601.6v0h51.2l10.24 15.36l-35.84 46.08c-10.24 10.24 -20.48 15.36 -35.84 15.36c-25.6 0 -40.96 -15.36 -40.96 -35.84c5.12 -25.6 15.36 -40.96 51.2 -40.96zM358.4 488.96l30.72 35.84h-71.68v-307.2h153.6v302.08l-92.16 -107.52zM629.76 601.6v0
c40.96 0 46.08 20.48 46.08 40.96s-20.48 40.96 -40.96 40.96v0c-10.24 0 -25.6 -5.12 -30.72 -15.36v0l-40.96 -46.08l10.24 -20.48zM0 960v-1024h1024v1024h-1024zM819.2 524.8h-40.96v-384h-532.48v384h-40.96v76.8h66.56c-10.24 10.24 -10.24 25.6 -10.24 40.96
c0 61.44 51.2 112.64 122.88 112.64c40.96 0 81.92 -20.48 102.4 -46.08v0v0v0l20.48 -25.6l20.48 25.6c25.6 30.72 61.44 46.08 102.4 46.08c71.68 0 128 -51.2 128 -112.64c0 -15.36 -5.12 -25.6 -10.24 -40.96h71.68v-76.8zM665.6 488.96l-30.72 -76.8l-81.92 97.28
v-291.84h153.6v307.2h-71.68z" />
    <glyph glyph-name="alarm" unicode="&#xe924;" 
d="M512 960c-281.6 0 -512 -230.4 -512 -512s230.4 -512 512 -512c281.6 0 512 230.4 512 512c0 281.6 -230.4 512 -512 512zM403.2 128l57.6 268.8h-160l320 371.2l-57.6 -268.8h160z" />
    <glyph glyph-name="discount-sup" unicode="&#xe925;" 
d="M469.333 883.2v0v0v0zM913.067 704c8.53302 17.067 17.067 42.667 17.067 68.267c-8.53302 102.4 -102.4 187.733 -221.867 187.733c-68.267 0 -136.533 -34.133 -170.667 -76.8l-34.133 -42.667l-34.133 42.667c-34.133 42.667 -102.4 76.8 -170.667 76.8
c-119.467 0 -204.8 -85.333 -204.8 -187.733c0 -25.6 8.533 -42.667 17.067 -68.267h-110.933v-128h68.267v-640h896v640h59.733v128h-110.934zM298.667 832c17.067 0 42.667 -8.53302 51.2 -25.6v0l68.267 -76.8l-17.067 -25.6h-85.333
c-68.267 0 -85.333 25.6 -85.333 68.267c8.533 34.133 34.133 59.733 68.266 59.7329zM443.733 64h-256v512h110.933l-42.667 -59.733l34.133 -128l153.6 179.2zM657.067 806.4v0c17.067 17.067 34.133 25.6 51.2 25.6v0c42.667 0 68.267 -25.6 68.267 -68.267
s-8.53302 -59.733 -68.267 -59.733v0h-85.333l-34.133 25.6zM836.267 64h-256v486.4l145.067 -162.133l42.667 128l-51.2 59.733h110.933v-512h8.53302zM537.6 883.2v0v0v0z" />
    <glyph glyph-name="slider-point" unicode="&#xe926;" horiz-adv-x="668" 
d="M0 960v-1024h667.782v1024h-667.782h1.75781e-05zM623.26 -19.478h-578.738v934.957h578.738v-934.957zM200.348 603.826h267.13v-44.522h-267.13zM200.348 470.261h267.13v-44.522h-267.13zM200.348 336.696h267.13v-44.522h-267.13z" />
    <glyph glyph-name="filter" unicode="&#xe927;" 
d="M324.267 -64v512l-324.267 512h1024l-324.267 -512v-324.267zM153.6 874.667l247.467 -401.067v-401.067l213.333 102.4v290.133l247.467 401.067h-708.267v8.534z" />
    <glyph glyph-name="filtered" unicode="&#xe928;" 
d="M324.267 -64v512l-324.267 512h1024l-324.267 -512v-324.267zM153.6 874.667l247.467 -401.067v-401.067l213.333 102.4v290.133l247.467 401.067h-708.267v8.534z" />
    <glyph glyph-name="filter-down" unicode="&#xe929;" 
d="M789.056 826.688l-217.024 -347.328v-277.632l-128 -64v341.632l-19.456 31.168l-197.568 316.16h562.048zM1020.03 954.688h-1024l320 -512v-512l384 192v320zM1024 192h-256l128 -192z" />
    <glyph glyph-name="filter-up" unicode="&#xe92a;" 
d="M793.152 825.344l-217.088 -347.328v-277.632l-128 -64v341.632l-19.456 31.168l-197.568 316.16h562.112zM1024.06 953.344h-1024l320 -512v-512l384 192v320zM896 256l-128 -192h256z" />
    <glyph glyph-name="sold-out" unicode="&#xe92b;" 
d="M345.856 207.68c-39.616 0 -71.808 -32.256 -71.808 -71.936c0 -39.744 32.192 -71.936 71.808 -71.936c39.68 0 71.808 32.192 71.808 71.936c0 39.68 -32.128 71.936 -71.808 71.936zM678.336 687.936l36.864 114.56l-91.392 29.376l-46.336 -143.936h-209.728v-95.936
h178.88l-77.184 -239.744h-108.16l-89.28 468.544v11.008h-143.744v-95.936h58.304l90.368 -479.104l-4.992 0.640015v-1.02399h166.656l-24.64 -76.48l91.392 -29.376l34.112 105.856h258.944v0.895996l-2.75201 -0.640015l79.936 335.744l20.672 95.552zM715.584 352.256
h-145.28l77.12 239.744h126.976zM728.832 207.68c-39.616 0 -71.808 -32.256 -71.808 -71.936c0 -39.744 32.192 -71.936 71.808 -71.936s71.808 32.192 71.808 71.936c0 39.68 -32.192 71.936 -71.808 71.936z" />
  </font>
</defs>
</svg>
