<?xml version="1.0" encoding="UTF-8"?>
<svg width="32px" height="32px" viewBox="0 0 32 32" version="1.1" xmlns="http://www.w3.org/2000/svg" xmlns:xlink="http://www.w3.org/1999/xlink">
    <!-- Generator: Sketch 60.1 (88133) - https://sketch.com -->
    <title>微信-N</title>
    <desc>Created with Sketch.</desc>
    <g id="页面-1" stroke="none" stroke-width="1" fill="none" fill-rule="evenodd">
        <g id="切图" transform="translate(-43.000000, -320.000000)">
            <g id="Group-14" transform="translate(43.000000, 320.000000)">
                <ellipse id="Oval-Copy-2" stroke="#575D6C" stroke-width="0.8505" opacity="0.5" cx="16" cy="15.9591688" rx="15.57475" ry="15.5339188"></ellipse>
                <path d="M18.8159281,13.2677448 C19.0161894,13.2677448 19.2143216,13.2824015 19.4108943,13.3042371 C18.8763543,10.8215967 16.2151998,8.97703245 13.1776931,8.97703245 C9.78176717,8.97703245 7,11.2857663 7,14.2174709 C7,15.9097248 7.92543644,17.2993621 9.47201886,18.3772 L8.85414159,20.2307975 L11.0137432,19.1506266 C11.7865096,19.3031762 12.406486,19.4600331 13.1776631,19.4600331 C13.3715069,19.4600331 13.5637614,19.4504613 13.7543365,19.4355055 C13.6336639,19.0235617 13.5637314,18.5920856 13.5637314,18.1443973 C13.5637314,15.452405 15.8814609,13.2677448 18.8159281,13.2677448 L18.8159281,13.2677448 Z M15.494313,11.5970872 C15.9594902,11.5970872 16.2676192,11.902306 16.2676192,12.3659672 C16.2676192,12.8278037 15.9594602,13.13727 15.494313,13.13727 C15.0312949,13.13727 14.5666874,12.8277738 14.5666874,12.3659672 C14.5666874,11.902336 15.0313249,11.5970872 15.494313,11.5970872 Z M11.1707615,13.1372401 C10.7078034,13.1372401 10.2405269,12.8277738 10.2405269,12.3659672 C10.2405269,11.902336 10.7077734,11.5970872 11.1707615,11.5970872 C11.6337796,11.5970872 11.9419385,11.902306 11.9419385,12.3659672 C11.9419385,12.8278037 11.6337796,13.13727 11.1707615,13.13727 L11.1707615,13.1372401 Z M24.454313,18.0703658 C24.454313,15.606839 21.982744,13.5988074 19.2069145,13.5988074 C16.2676192,13.5988074 13.9525886,15.6068689 13.9525886,18.0703658 C13.9525886,20.5380803 16.2676192,22.5419243 19.2069145,22.5419243 C19.8221228,22.5419243 20.442639,22.3871911 21.0604863,22.2327271 L22.7549706,23.1581949 L22.2903631,21.6183709 C23.530406,20.6904505 24.454313,19.4600032 24.454313,18.0703658 L24.454313,18.0703658 Z M17.5033137,17.2993322 C17.1957246,17.2993322 16.8854665,16.9941133 16.8854665,16.6827924 C16.8854665,16.3757489 17.1957246,16.0666116 17.5033437,16.0666116 C17.9706201,16.0666116 18.2766199,16.3757788 18.2766199,16.6827924 C18.2766199,16.9941133 17.9705902,17.2993322 17.5033437,17.2993322 L17.5033137,17.2993322 Z M20.9013688,17.2993322 C20.5959088,17.2993322 20.2877499,16.9941133 20.2877499,16.6827924 C20.2877499,16.3757489 20.5959088,16.0666116 20.9013688,16.0666116 C21.3643869,16.0666116 21.674615,16.3757788 21.674615,16.6827924 C21.674615,16.9941133 21.3643869,17.2993322 20.9013688,17.2993322 Z" id="Shape" fill="#252B3A" fill-rule="nonzero"></path>
            </g>
        </g>
    </g>
</svg>