<?xml version="1.0" encoding="UTF-8"?>
<svg width="32px" height="32px" viewBox="0 0 32 32" version="1.1" xmlns="http://www.w3.org/2000/svg" xmlns:xlink="http://www.w3.org/1999/xlink">
    <!-- Generator: Sketch 60.1 (88133) - https://sketch.com -->
    <title>微博-n</title>
    <desc>Created with Sketch.</desc>
    <g id="页面-1" stroke="none" stroke-width="1" fill="none" fill-rule="evenodd">
        <g id="切图" transform="translate(-95.000000, -320.000000)">
            <g id="Group-14" transform="translate(95.000000, 320.000000)">
                <ellipse id="Oval-Copy-2" stroke="#575D6C" stroke-width="0.8505" opacity="0.5" cx="16" cy="15.9591688" rx="15.57475" ry="15.5339188"></ellipse>
                <path d="M18.899842,9.13277759 C18.3412498,9.3765193 18.2130901,9.95699366 18.6205459,10.3632898 C18.8183869,10.5607457 19.0045142,10.5955574 19.8193055,10.5955574 C20.9599173,10.5955574 21.7280642,10.8973286 22.3101138,11.570704 C23.0200827,12.3717023 23.1015378,12.6155638 23.1015378,14.0782238 C23.1015378,15.3784492 23.1015378,15.4017568 23.4040811,15.5757853 C24.1024565,15.9705175 24.5680601,15.4829442 24.7309103,14.1827487 C24.9404049,12.4877911 23.9278326,10.5141903 22.4032525,9.6086671 C21.4022137,9.0282227 19.691236,8.7960749 18.8998119,9.13277759 L18.8998119,9.13277759 L18.8998119,9.13277759 L18.899842,9.13277759 Z M13.1734159,11.2920907 C11.8698639,11.7564162 10.6128061,12.6503755 9.26275985,14.0898177 C6.06207277,17.4797628 6.27156737,20.7071235 9.79816498,22.4252689 C13.4644557,24.2130376 18.3993076,23.6209693 21.0879568,21.066984 C23.1014177,19.1630365 22.8571124,16.7714858 20.5642053,15.9588936 C20.1567495,15.819557 20.0288001,15.715062 20.086948,15.5874391 C20.2964426,15.0766181 20.3662441,14.4845199 20.2499183,14.1362832 C19.8889869,13.0334239 18.5739014,12.7780283 16.6184983,13.4398098 L15.8387279,13.7067693 L15.9085294,12.9289888 C15.9900445,12.0118717 15.7922035,11.5126146 15.2450847,11.2339713 C14.7913149,11.0018834 13.9183757,11.0250413 13.1734459,11.2921206 L13.1734459,11.2921206 L13.1734459,11.2921206 L13.1734159,11.2920907 Z M16.4091238,15.7848651 C18.1432886,16.2608745 19.2024453,17.3056444 19.2024453,18.5477505 C19.2024453,19.9292831 17.9686647,21.1715389 15.9667674,21.8332006 C14.8959571,22.1814972 12.9057734,22.2511206 11.9280118,21.9841611 C10.0775212,21.4618061 9.02995803,20.440134 9.02995803,19.1282249 C9.02995803,18.4084438 9.34424499,17.7816538 10.0309368,17.1432099 C10.6710141,16.5395477 11.1598348,16.2491907 12.1025756,15.9357956 C13.5226036,15.4597863 15.0473939,15.4017868 16.4090938,15.7848651 L16.4090938,15.7848651 L16.4091238,15.7848651 Z M12.7428632,16.9108524 C11.5673507,17.4566049 10.9388068,18.2924149 10.9388068,19.3371848 C10.9388068,20.2892335 11.3578861,20.9393012 12.2772595,21.4269345 C12.9872285,21.8100128 14.2908406,21.7752311 15.0823247,21.368905 C16.0948669,20.8348662 16.7583416,19.8481257 16.7583416,18.8843633 C16.7465078,18.0950488 16.0482825,17.1547139 15.2220178,16.8180412 C14.5585431,16.5395777 13.4410884,16.5858934 12.7428632,16.9108823 L12.7428632,16.9108823 L12.7428632,16.9108823 L12.7428632,16.9108524 Z M13.5925252,19.0933832 C13.6739503,19.1746304 13.7321282,19.3719666 13.7321282,19.5461149 C13.7321282,20.1266491 12.7544867,20.6025686 12.3587747,20.2078664 C12.1376265,19.9872826 12.1958044,19.44156 12.4518534,19.1861944 C12.7078723,18.9308588 13.3713169,18.8727994 13.5925553,19.0933533 L13.5925553,19.0933533 L13.5925252,19.0933832 Z M19.097683,11.5125846 C18.5622778,12.0467133 18.9230891,12.6851572 19.7727812,12.6851572 C20.5059673,12.6851572 20.8317877,13.0566416 20.8317877,13.8925714 C20.8317877,14.4148965 20.8784922,14.565857 21.0879868,14.7051936 C21.7164706,15.1463014 22.2285986,14.658788 22.2285986,13.6255221 C22.2285986,12.3601084 21.3207586,11.4081496 20.0288001,11.3152485 C19.4467505,11.268813 19.3071475,11.3036247 19.097683,11.5125846 L19.097683,11.5125846 L19.097683,11.5125846 Z" id="Shape" fill="#252B3A" fill-rule="nonzero"></path>
            </g>
        </g>
    </g>
</svg>