<?xml version="1.0" encoding="UTF-8"?>
<svg width="10px" height="10px" viewBox="0 0 10 10" version="1.1" xmlns="http://www.w3.org/2000/svg" xmlns:xlink="http://www.w3.org/1999/xlink">
    <!-- Generator: Sketch 63 (92445) - https://sketch.com -->
    <title>形状结合</title>
    <desc>Created with Sketch.</desc>
    <g id="页面-1" stroke="none" stroke-width="1" fill="none" fill-rule="evenodd">
        <g id="悬浮菜单" transform="translate(-611.000000, -406.000000)" fill="#575D6C" fill-rule="nonzero">
            <g id="编组-7备份" transform="translate(432.000000, 386.000000)">
                <g id="Group-19-Copy-4复制-5备份">
                    <g id="编组-2">
                        <g id="编组" transform="translate(0.000000, -0.000000)">
                            <g id="编组-4">
                                <path d="M179.307518,20.2051074 C179.597589,19.9210712 180.058774,19.9217835 180.337632,20.2067276 L180.337632,20.2067276 L184,23.949 L187.662368,20.2067276 C187.915875,19.9476875 188.320066,19.9235497 188.609395,20.1347024 L188.692482,20.2051074 C188.982495,20.4892021 188.991561,20.9504755 188.712703,21.2354196 L188.712703,21.2354196 L185.028,25 L188.712703,28.7645804 C188.966211,29.0236205 188.981764,29.4283873 188.764606,29.713285 L188.692482,29.7948926 C188.402411,30.0789288 187.941226,30.0782165 187.662368,29.7932724 L187.662368,29.7932724 L184,26.05 L180.337632,29.7932724 C180.084125,30.0523125 179.679934,30.0764503 179.390605,29.8652976 L179.307518,29.7948926 C179.017505,29.5107979 179.008439,29.0495245 179.287297,28.7645804 L179.287297,28.7645804 L182.971,25 L179.287297,21.2354196 C179.033789,20.9763795 179.018236,20.5716127 179.235394,20.286715 Z" id="形状结合"></path>
                            </g>
                        </g>
                    </g>
                </g>
            </g>
        </g>
    </g>
</svg>