<?xml version="1.0" encoding="UTF-8"?>
<svg width="10px" height="10px" viewBox="0 0 10 10" version="1.1" xmlns="http://www.w3.org/2000/svg" xmlns:xlink="http://www.w3.org/1999/xlink">
    <title>画板</title>
    <g id="画板" stroke="none" stroke-width="1" fill="none" fill-rule="evenodd">
        <g id="99999999" transform="translate(0.083939, -0.007451)" fill="#191919" fill-rule="nonzero">
            <path d="M0.223578849,0.212558437 C0.513649849,-0.0714777625 0.974834849,-0.0707654625 1.25369285,0.214178637 L1.25369285,0.214178637 L4.91606085,3.95645104 L8.57842885,0.214178637 C8.83193585,-0.0448614625 9.23612685,-0.0689992625 9.52545585,0.142153437 L9.60854285,0.212558437 C9.89855585,0.496653137 9.90762185,0.957926537 9.62876385,1.24287064 L9.62876385,1.24287064 L5.94406085,5.00745104 L9.62876385,8.77203144 C9.88227185,9.03107154 9.89782485,9.43583834 9.68066685,9.72073604 L9.60854285,9.80234364 C9.31847185,10.0863798 8.85728685,10.0856675 8.57842885,9.80072344 L8.57842885,9.80072344 L4.91606085,6.05745104 L1.25369285,9.80072344 C1.00018585,10.0597635 0.595994849,10.0839013 0.306665849,9.87274864 L0.223578849,9.80234364 C-0.066434151,9.51824894 -0.075500151,9.05697554 0.203357849,8.77203144 L0.203357849,8.77203144 L3.88706085,5.00745104 L0.203357849,1.24287064 C-0.050150151,0.983830537 -0.065703151,0.579063737 0.151454849,0.294166037 L0.223578849,0.212558437 Z" id="形状结合"></path>
        </g>
    </g>
</svg>