<?xml version="1.0" encoding="UTF-8"?>
<svg width="22px" height="21px" viewBox="0 0 22 21" version="1.1" xmlns="http://www.w3.org/2000/svg" xmlns:xlink="http://www.w3.org/1999/xlink">
    <!-- Generator: Sketch 63.1 (92452) - https://sketch.com -->
    <title>留资</title>
    <desc>Created with Sketch.</desc>
    <defs>
        <rect id="path-1" x="0" y="0" width="24" height="24"></rect>
    </defs>
    <g id="页面-1" stroke="none" stroke-width="1" fill="none" fill-rule="evenodd">
        <g id="产品页_留资" transform="translate(-1861.000000, -660.000000)">
            <g id="编组-10备份-3" transform="translate(1537.000000, 646.000000)">
                <g id="编组-9">
                    <g id="编组-6备份-6" transform="translate(311.000000, 0.000000)">
                        <g id="留资" transform="translate(12.000000, 12.000000)">
                            <g id="路径-+-椭圆形-+-路径-3备份-+-路径-3-蒙版">
                                <mask id="mask-2" fill="white">
                                    <use xlink:href="#path-1"></use>
                                </mask>
                                <g id="蒙版" fill-rule="nonzero"></g>
                                <g id="编组-6" transform="translate(1.000000, 2.000000)" fill="#C7000B" fill-rule="nonzero">
                                    <path d="M10,8.58293726 C12.3156338,8.58293726 14.5053627,9.47588472 16.2428047,11.0738483 C16.5476795,11.3542484 16.5675202,11.8287074 16.2871201,12.1335823 C16.00672,12.4384571 15.5322609,12.4582978 15.2273861,12.1778977 C13.7609814,10.8292131 11.9309278,10.0829373 10,10.0829373 C5.46229966,10.0829373 1.75,14.2077147 1.75,19.3329373 C1.75,19.7471508 1.41421356,20.0829373 1,20.0829373 C0.585786438,20.0829373 0.25,19.7471508 0.25,19.3329373 C0.25,13.4124649 4.59657485,8.58293726 10,8.58293726 Z" id="路径"></path>
                                    <path d="M10,0 C12.7614237,0 15,2.23857625 15,5 C15,7.76142375 12.7614237,10 10,10 C7.23857625,10 5,7.76142375 5,5 C5,2.23857625 7.23857625,0 10,0 Z M10,1.5 C8.06700338,1.5 6.5,3.06700338 6.5,5 C6.5,6.93299662 8.06700338,8.5 10,8.5 C11.9329966,8.5 13.5,6.93299662 13.5,5 C13.5,3.06700338 11.9329966,1.5 10,1.5 Z" id="椭圆形"></path>
                                    <path d="M19,18.25 C19.4142136,18.25 19.75,18.5857864 19.75,19 C19.75,19.3796958 19.4678461,19.693491 19.1017706,19.7431534 L19,19.75 L14,19.75 C13.5857864,19.75 13.25,19.4142136 13.25,19 C13.25,18.6203042 13.5321539,18.306509 13.8982294,18.2568466 L14,18.25 L19,18.25 Z" id="路径-3备份"></path>
                                    <path d="M21,14.25 C21.4142136,14.25 21.75,14.5857864 21.75,15 C21.75,15.3796958 21.4678461,15.693491 21.1017706,15.7431534 L21,15.75 L14,15.75 C13.5857864,15.75 13.25,15.4142136 13.25,15 C13.25,14.6203042 13.5321539,14.306509 13.8982294,14.2568466 L14,14.25 L21,14.25 Z" id="路径-3"></path>
                                </g>
                            </g>
                        </g>
                    </g>
                </g>
            </g>
        </g>
    </g>
</svg>