<?xml version="1.0" encoding="utf-8"?><!DOCTYPE svg PUBLIC "-//W3C//DTD SVG 1.1//EN" "http://www.w3.org/Graphics/SVG/1.1/DTD/svg11.dtd"><svg width="252" height="231" viewBox="0 0 252 231" xmlns="http://www.w3.org/2000/svg" xmlns:xlink="http://www.w3.org/1999/xlink"><svg id="arrow-812-1" viewBox="-1 -1 10 14" width="10" height="14" x="192" y="213"><style>.aast0{fill-rule:evenodd;clip-rule:evenodd;fill:#7d848d}</style><g id="aaXMLID_2_"><g id="aaXMLID_48_"><path id="aaXMLID_49_" class="aast0" d="M8 6L6.5 4.5 2 0 .5 1.5 5 6 .5 10.5 2 12l4.5-4.5z"/></g></g></svg><svg id="arrow-812-2" viewBox="-1 -1 10 14" width="10" height="14" x="185" y="139"><style>.abst0{fill-rule:evenodd;clip-rule:evenodd;fill:#00a4ff}</style><g id="abXMLID_2_"><g id="abXMLID_48_"><path id="abXMLID_49_" class="abst0" d="M8 6L6.5 4.5 2 0 .5 1.5 5 6 .5 10.5 2 12l4.5-4.5z"/></g></g></svg><svg width="14" height="10" viewBox="-1 -1 14 10" id="arrow-double" x="162" y="128"><title>Group 9</title><g fill="#7C848E" fill-rule="evenodd" opacity=".9"><path d="M3.547 4L0 1.031 1.227 0 6 4 1.227 8 0 6.969zM9.547 4L6 1.031 7.227 0 12 4 7.227 8 6 6.969z"/></g></svg><svg width="14" height="10" viewBox="-1 -1 14 10" id="arrow-double-active" x="176" y="128"><title>Group 9</title><g fill="#00A4FF" fill-rule="evenodd" opacity=".9"><path d="M3.547 4L0 1.031 1.227 0 6 4 1.227 8 0 6.969zM9.547 4L6 1.031 7.227 0 12 4 7.227 8 6 6.969z"/></g></svg><svg width="14" height="10" viewBox="-1 -1 14 10" id="arrow-double-light" x="162" y="157"><title>Group 9</title><g fill="#999" fill-rule="evenodd" opacity=".9"><path d="M3.547 4L0 1.031 1.227 0 6 4 1.227 8 0 6.969zM9.547 4L6 1.031 7.227 0 12 4 7.227 8 6 6.969z"/></g></svg><svg width="14" height="9" viewBox="-1 -1 14 9" id="arrow-down" x="176" y="157"><title>Shape Copy 5</title><path d="M1.41 0L6 4.327 10.59 0 12 1.332 6 7 0 1.332z" fill="#999" fill-rule="evenodd"/></svg><svg width="8" height="10" viewBox="-1 -1 8 10" id="arrow-s" x="238" y="43"><title>Combined Shape Copy 9</title><path d="M3.547 4L0 1.031 1.227 0 6 4 1.227 8 0 6.969z" fill="#7C848E" fill-rule="evenodd" opacity=".9"/></svg><svg width="8" height="10" viewBox="-1 -1 8 10" id="arrow-s-active" x="238" y="33"><title>Combined Shape Copy 9</title><path d="M3.547 4L0 1.031 1.227 0 6 4 1.227 8 0 6.969z" fill="#00A4FF" fill-rule="evenodd" opacity=".9"/></svg><svg width="8" height="10" viewBox="-1 -1 8 10" id="arrow-s-curr" x="238" y="23"><title>Combined Shape Copy 9</title><path d="M3.547 4L0 1.031 1.227 0 6 4 1.227 8 0 6.969z" fill="#FFF" fill-rule="evenodd" opacity=".9"/></svg><svg width="14" height="10" viewBox="-1 -1 14 10" id="arrow-s-db" x="120" y="157"><title>Artboard</title><g fill="#7C848E" fill-rule="evenodd" opacity=".9"><path d="M3.547 4L0 1.031 1.227 0 6 4 1.227 8 0 6.969zM9.547 4L6 1.031 7.227 0 12 4 7.227 8 6 6.969z"/></g></svg><svg width="14" height="10" viewBox="-1 -1 14 10" id="arrow-s-db-active" x="134" y="157"><title>Artboard</title><g fill="#00A4FF" fill-rule="evenodd" opacity=".9"><path d="M3.547 4L0 1.031 1.227 0 6 4 1.227 8 0 6.969zM9.547 4L6 1.031 7.227 0 12 4 7.227 8 6 6.969z"/></g></svg><svg width="14" height="10" viewBox="-1 -1 14 10" id="arrow-s-db-curr" x="148" y="157"><title>Artboard</title><g fill="#fff" fill-rule="evenodd" opacity=".9"><path d="M3.547 4L0 1.031 1.227 0 6 4 1.227 8 0 6.969zM9.547 4L6 1.031 7.227 0 12 4 7.227 8 6 6.969z"/></g></svg><svg id="ask-1616" data-name="图层 1" width="18" height="18" viewBox="-1 -1 18 18" x="108" y="213"><defs><style>.amcls-1{fill:#7d848d}</style></defs><title>2</title><path class="amcls-1" d="M8 1.75a6 6 0 0 1 6.25 5.75A6 6 0 0 1 8 13.25 5.2 5.2 0 0 1 6.11 13l-.63-.24-.63.24-1.1.44v-1.7l-.46-.5A5.48 5.48 0 0 1 1.75 7.5 6 6 0 0 1 8 1.75M8 0a7.8 7.8 0 0 0-8 7.5 7.23 7.23 0 0 0 2 4.9V16l3.5-1.4A6.9 6.9 0 0 0 8 15a7.8 7.8 0 0 0 8-7.5A7.8 7.8 0 0 0 8 0z"/><path class="amcls-1" d="M9.9 3.94a3.49 3.49 0 0 0-2.09-.6 3 3 0 0 0-1.62.43A2.64 2.64 0 0 0 5.06 6v.13h1.8V6a1.48 1.48 0 0 1 .24-.79.84.84 0 0 1 .78-.35.89.89 0 0 1 .77.28 1.14 1.14 0 0 1 .22.67 1 1 0 0 1-.19.58 1.24 1.24 0 0 1-.28.29L8 7a2.29 2.29 0 0 0-.76.85A3.87 3.87 0 0 0 7.06 9h1.71a1.93 1.93 0 0 1 .05-.43 1 1 0 0 1 .37-.5l.38-.29a4.09 4.09 0 0 0 .81-.78 2.07 2.07 0 0 0 .37-1.25 2.11 2.11 0 0 0-.85-1.81zM7.02 10h1.86v1.58H7.02z"/></svg><svg version="undefined" width="18" height="18" viewBox="-1 -1 18 18" id="ask-1616-#00a4ff" x="144" y="213"><defs><style>.ancls-1{fill:#00a4ff}</style></defs><path class="ancls-1" d="M8 1.75a6 6 0 0 1 6.25 5.75A6 6 0 0 1 8 13.25 5.2 5.2 0 0 1 6.11 13l-.63-.24-.63.24-1.1.44v-1.7l-.46-.5A5.48 5.48 0 0 1 1.75 7.5 6 6 0 0 1 8 1.75M8 0a7.8 7.8 0 0 0-8 7.5 7.23 7.23 0 0 0 2 4.9V16l3.5-1.4A6.9 6.9 0 0 0 8 15a7.8 7.8 0 0 0 8-7.5A7.8 7.8 0 0 0 8 0z"/><path class="ancls-1" d="M9.9 3.94a3.49 3.49 0 0 0-2.09-.6 3 3 0 0 0-1.62.43A2.64 2.64 0 0 0 5.06 6v.13h1.8V6a1.48 1.48 0 0 1 .24-.79.84.84 0 0 1 .78-.35.89.89 0 0 1 .77.28 1.14 1.14 0 0 1 .22.67 1 1 0 0 1-.19.58 1.24 1.24 0 0 1-.28.29L8 7a2.29 2.29 0 0 0-.76.85A3.87 3.87 0 0 0 7.06 9h1.71a1.93 1.93 0 0 1 .05-.43 1 1 0 0 1 .37-.5l.38-.29a4.09 4.09 0 0 0 .81-.78 2.07 2.07 0 0 0 .37-1.25 2.11 2.11 0 0 0-.85-1.81zM7.02 10h1.86v1.58H7.02z"/></svg><svg id="ask-1617" data-name="图层 1" width="18" height="18" viewBox="-1 -1 18 18" x="196" y="160"><defs><style>.aocls-1{fill:#fff}</style></defs><title>2</title><path class="aocls-1" d="M8 1.75a6 6 0 0 1 6.25 5.75A6 6 0 0 1 8 13.25 5.2 5.2 0 0 1 6.11 13l-.63-.24-.63.24-1.1.44v-1.7l-.46-.5A5.48 5.48 0 0 1 1.75 7.5 6 6 0 0 1 8 1.75M8 0a7.8 7.8 0 0 0-8 7.5 7.23 7.23 0 0 0 2 4.9V16l3.5-1.4A6.9 6.9 0 0 0 8 15a7.8 7.8 0 0 0 8-7.5A7.8 7.8 0 0 0 8 0z"/><path class="aocls-1" d="M9.9 3.94a3.49 3.49 0 0 0-2.09-.6 3 3 0 0 0-1.62.43A2.64 2.64 0 0 0 5.06 6v.13h1.8V6a1.48 1.48 0 0 1 .24-.79.84.84 0 0 1 .78-.35.89.89 0 0 1 .77.28 1.14 1.14 0 0 1 .22.67 1 1 0 0 1-.19.58 1.24 1.24 0 0 1-.28.29L8 7a2.29 2.29 0 0 0-.76.85A3.87 3.87 0 0 0 7.06 9h1.71a1.93 1.93 0 0 1 .05-.43 1 1 0 0 1 .37-.5l.38-.29a4.09 4.09 0 0 0 .81-.78 2.07 2.07 0 0 0 .37-1.25 2.11 2.11 0 0 0-.85-1.81zM7.02 10h1.86v1.58H7.02z"/></svg><svg width="14" height="14" viewBox="-1 -1 14 14" id="close" x="202" y="213"><title>Page 1 Copy 4</title><path d="M10.574 0L6 4.572 1.426-.001 0 1.426l4.574 4.575L0 10.574 1.426 12 6 7.427 10.574 12 12 10.574 7.426 6.001l4.575-4.575z" fill="#888" fill-rule="evenodd"/></svg><svg id="close" viewBox="-1 -1 18 18" width="18" height="18" x="149" y="139"><style>.aqst0{fill:#fff}</style><path class="aqst0" d="M13.5 14.5c-.3 0-.5-.1-.7-.3l-11-11c-.4-.4-.4-1 0-1.4s1-.4 1.4 0l11 11c.4.4.4 1 0 1.4-.2.2-.4.3-.7.3z"/><path class="aqst0" d="M2.5 14.5c-.3 0-.5-.1-.7-.3-.4-.4-.4-1 0-1.4l11-11c.4-.4 1-.4 1.4 0s.4 1 0 1.4l-11 11c-.2.2-.4.3-.7.3z"/></svg><svg id="close-1" viewBox="-1 -1 18 18" width="18" height="18" x="167" y="139"><style>.arst0{fill:#0085f2}</style><path class="arst0" d="M13.5 14.5c-.3 0-.5-.1-.7-.3l-11-11c-.4-.4-.4-1 0-1.4s1-.4 1.4 0l11 11c.4.4.4 1 0 1.4-.2.2-.4.3-.7.3z"/><path class="arst0" d="M2.5 14.5c-.3 0-.5-.1-.7-.3-.4-.4-.4-1 0-1.4l11-11c.4-.4 1-.4 1.4 0s.4 1 0 1.4l-11 11c-.2.2-.4.3-.7.3z"/></svg><svg width="18" height="18" viewBox="-298 388 18 18" id="close-2424-inline" x="144" y="195"><path fill="#FFF" d="M-283.5 403.5c-.3 0-.5-.1-.7-.3l-11-11c-.4-.4-.4-1 0-1.4.4-.4 1-.4 1.4 0l11 11c.4.4.4 1 0 1.4-.2.2-.4.3-.7.3z"/><path fill="#FFF" d="M-294.5 403.5c-.3 0-.5-.1-.7-.3-.4-.4-.4-1 0-1.4l11-11c.4-.4 1-.4 1.4 0 .4.4.4 1 0 1.4l-11 11c-.2.2-.4.3-.7.3z"/></svg><svg id="close-gray" viewBox="-1 -1 18 18" width="18" height="18" x="198" y="195"><style>.atst0{fill:#999}</style><path class="atst0" d="M13.5 14.5c-.3 0-.5-.1-.7-.3l-11-11c-.4-.4-.4-1 0-1.4s1-.4 1.4 0l11 11c.4.4.4 1 0 1.4-.2.2-.4.3-.7.3z"/><path class="atst0" d="M2.5 14.5c-.3 0-.5-.1-.7-.3-.4-.4-.4-1 0-1.4l11-11c.4-.4 1-.4 1.4 0s.4 1 0 1.4l-11 11c-.2.2-.4.3-.7.3z"/></svg><svg width="14" height="14" viewBox="-1 -1 14 14" id="close-hover" x="178" y="213"><title>Page 1 Copy 4</title><path d="M10.574 0L6 4.572 1.426-.001 0 1.426l4.574 4.575L0 10.574 1.426 12 6 7.427 10.574 12 12 10.574 7.426 6.001l4.575-4.575z" fill="#00a4ff" fill-rule="evenodd"/></svg><svg width="18" height="18" viewBox="-1 -1 18 18" id="close-icon" x="220" y="72"><path fill="#666" fill-rule="evenodd" d="M8.713 8L14 13.287l-.713.713L8 8.713 2.713 14 2 13.287 7.287 8 2 2.713 2.713 2 8 7.287 13.287 2l.713.713z"/></svg><svg id="csdn" viewBox="-1 -1 18 18" width="18" height="18" x="220" y="126"><style>.awst0{fill-rule:evenodd;clip-rule:evenodd;fill:#fff}</style><path id="awXMLID_2_" class="awst0" d="M15 1.8l-1 3s-8.5-1.9-9.1 3c-.1 1.3.6 4.5 8.1 3-.3 1.4-1 3-1 3S4.2 15 1.8 11.1c-2.4-4 1.1-7.2 3.4-8.2 2-.9 4.9-1.7 9.8-1.1z"/></svg><svg width="18" height="18" viewBox="-1 -1 18 18" id="error-icon" x="220" y="144"><g fill="#E54545"><path d="M8 1a7 7 0 1 0 0 14A7 7 0 0 0 8 1zm0 12c-2.757 0-5-2.243-5-5s2.243-5 5-5 5 2.243 5 5-2.243 5-5 5z"/><path d="M7 4h2v5H7zM7 10h2v2H7z"/></g></svg><svg id="event" width="20" height="20" viewBox="-1 -1 20 20" x="196" y="120"><style>.ayst0{fill:#fff}</style><path class="ayst0" d="M13.1 2c.2 0 .5 0 .7.3.3.3.3.7.2 1l-.2.7h-3.1l1.7-1.7c.2-.3.5-.3.7-.3M4.9 2c.2 0 .5 0 .7.3L7.3 4H4.2L4 3.3c-.1-.3-.1-.7.2-1 .3-.3.6-.3.7-.3m8.2-2c-.8 0-1.5.3-2.1.9L9 2.8 7.1.9C6.5.3 5.7 0 4.9 0c-.7 0-1.5.3-2.1.9-.8.8-1.1 2-.7 3.1H0v7h1v7h16v-7h1V4h-2.1c.4-1.1.1-2.3-.7-3.1-.6-.6-1.4-.9-2.1-.9zM2 9V6h14v3H2zm8 7v-5h5v5h-5zm-7 0v-5h5v5H3z"/></svg><svg id="facebook" viewBox="-1 -1 18 18" width="18" height="18" x="72" y="213"><style>.azst0{fill-rule:evenodd;clip-rule:evenodd;fill:#fff}</style><path id="azXMLID_3_" class="azst0" d="M13 2H3c-.6 0-1 .4-1 1v10c0 .6.4 1 1 1h5V9H7V7h1V6c0-.5.1-2 2-2h2v2h-1c-.3 0-1 0-1 .2V7h2l-.8 2H10v5h3c.6 0 1-.4 1-1V3c0-.6-.4-1-1-1z"/></svg><svg id="feedback" width="20" height="20" viewBox="-1 -1 20 20" x="196" y="20"><style>.bast0{fill:#666}</style><g id="baXMLID_72_"><path id="baXMLID_78_" class="bast0" d="M5 13h4l8.7-8.7c.4-.4.4-1 0-1.4L15.1.3c-.2-.2-.5-.3-.7-.3-.3 0-.5.1-.7.3L5 9v4zm9.4-10.6l1.2 1.2-1 1-1.2-1.2 1-1zM7 9.8l4.4-4.5 1.2 1.2L8.2 11H7V9.8zm9 6.2H2V2h7V0H0v18h18V9h-2v7z"/></g></svg><svg id="fs-icon-1" width="34" height="34" viewBox="-1 -1 34 34" x="94"><style>.bbst0{fill-rule:evenodd;clip-rule:evenodd;fill:#fff}</style><g id="bbXMLID_15_"><path id="bbXMLID_29_" class="bbst0" d="M16 0C7.2 0 0 7.2 0 16s7.2 16 16 16 16-7.2 16-16S24.8 0 16 0zm0 30C8.3 30 2 23.7 2 16S8.3 2 16 2s14 6.3 14 14-6.3 14-14 14z"/><path id="bbXMLID_30_" class="bbst0" d="M22.5 12.3l-1.4-.5c-.3.9-.6 1.8-.9 2.6h-1.5c-.3-1-.6-1.9-.9-2.6l-1.4.5.9 2.1h-1.9v1.5h8.3v-1.5h-1.8c.1-.6.4-1.3.6-2.1z"/><path id="bbXMLID_31_" class="bbst0" d="M23.1 10H20c-.2-.6-.4-1.1-.5-1.5l-1.5.3c.2.4.4.8.6 1.3h-3.1v1.4h7.7V10z"/><path id="bbXMLID_32_" class="bbst0" d="M10.6 10.5h2.8v8.9h1.3V9.2H9.2v10.5h1.4z"/><path id="bbXMLID_33_" class="bbst0" d="M12.6 11.6h-1.2v5.2c0 1.4-.2 2.5-.6 3.4-.4.8-1.1 1.5-2.3 2l.8 1.2c1.1-.5 1.9-1.3 2.4-2.3.5-1.1.8-2.5.8-4.3v-5.2z"/><path id="bbXMLID_34_" class="bbst0" d="M12.3 20.7c.9.9 1.6 1.8 2.1 2.6l1-1c-.6-.8-1.4-1.7-2.2-2.5l-.9.9z"/><path id="bbXMLID_37_" class="bbst0" d="M16.1 23.4h1.4v-.8h3.6v.8h1.4v-6.3H16v6.3zm1.5-4.9h3.6v2.6h-3.6v-2.6z"/></g></svg><svg id="fs-icon-2" width="34" height="34" viewBox="-1 -1 34 34" x="94" y="34"><style>.bcst0{fill-rule:evenodd;clip-rule:evenodd;fill:#fff}</style><path class="bcst0" d="M16 32C7.2 32 0 24.8 0 16S7.2 0 16 0s16 7.2 16 16-7.2 16-16 16zm0-30C8.3 2 2 8.3 2 16s6.3 14 14 14 14-6.3 14-14S23.7 2 16 2zm5 13v2h-4v2h4v2h-4v3h-2v-3h-4v-2h4v-2h-4v-2h3l-4-6h2.3l3.7 5.4L19.7 9H22l-4 6h3z"/></svg><svg id="fs-icon-3" width="34" height="34" viewBox="-1 -1 34 34" y="71"><style>.bdst0,.bdst1{fill:#fff}.bdst1{fill-rule:evenodd;clip-rule:evenodd}</style><g id="bdXMLID_54_"><path id="bdXMLID_55_" class="bdst0" d="M16 0C7.2 0 0 7.2 0 16s7.2 16 16 16 16-7.2 16-16S24.8 0 16 0zm0 30C8.3 30 2 23.7 2 16S8.3 2 16 2s14 6.3 14 14-6.3 14-14 14z"/></g><g id="bdXMLID_26_"><g id="bdXMLID_91_"><path id="bdXMLID_92_" class="bdst1" d="M23.1 16.1l.7-1.3c-2.2-.3-4.2-.8-5.9-1.4 1.3-.8 2.5-1.8 3.4-2.9V9.2h-6.4l.6-.9-1.6-.3c-1.2 1.7-2.7 3-4.4 4l1 1.2c.8-.5 1.5-1 2.2-1.6.6.6 1.4 1.2 2.2 1.7-1.8.7-3.8 1.2-6.1 1.5l.7 1.3c.5-.1 1-.2 1.6-.3V23h1.5v-.6h7.6v.6h1.5v-7.2H11.3c1.8-.4 3.5-1 5-1.7 1.9.9 4.2 1.6 6.8 2zm-6.1 1h3.1v1.4H17v-1.4zm0 2.6h3.1v1.4H17v-1.4zm-4.6-2.6h3.1v1.4h-3.1v-1.4zm0 2.6h3.1v1.4h-3.1v-1.4zm1.1-9l.2-.2h5.5c-.8.8-1.8 1.5-3 2.1-1-.5-1.9-1.1-2.7-1.9z"/></g></g></svg><svg id="fs-icon-4" width="34" height="34" viewBox="-1 -1 34 34" x="34" y="71"><style>.best0{fill-rule:evenodd;clip-rule:evenodd;fill:#fff}</style><path class="best0" d="M16 32C7.2 32 0 24.8 0 16S7.2 0 16 0s16 7.2 16 16-7.2 16-16 16zm0-30C8.3 2 2 8.3 2 16s6.3 14 14 14 14-6.3 14-14S23.7 2 16 2zm1.7 22c-6.3 0-5.9-4-5.9-4 0-2.3 1.3-4.3 3.2-5.3-.5-.6-.8-1.3-.8-2.2 0-1.9 1.5-3.5 3.5-3.5 1.9 0 3.5 1.6 3.5 3.5 0 .8-.3 1.6-.8 2.2 1.9 1 3.2 3 3.2 5.3.1 0 .3 4-5.9 4zm0-13c-.8 0-1.5.7-1.5 1.5s.7 1.5 1.5 1.5 1.5-.7 1.5-1.5-.7-1.5-1.5-1.5zm4 9c0-2.2-1.8-4-3.9-4-2.2 0-3.9 1.8-3.9 4 0 0-.3 2 3.9 2 4 0 3.9-2 3.9-2zM12.5 9.7c-.5.6-.8 1.4-.8 2.2 0 1 .4 1.8 1 2.5-.8.4-2 1-2.4 1.6l-.4.4c-.5.9-.9 1.6-.9 3.3 0 0 0 .3.1.7-1.2-.9-1.2-2.2-1.2-2.2 0-1.9 1-3.5 2.6-4.3-.4-.5-.6-1.1-.6-1.7 0-1.5 1.2-2.8 2.8-2.8h.3c-.1.1-.2.1-.2.2-.2 0-.2.1-.3.1z"/></svg><svg id="fs-icon-5" width="34" height="34" viewBox="-1 -1 34 34" x="68" y="71"><style>.bfst0{fill:#fff}</style><g id="bfXMLID_68_"><path id="bfXMLID_69_" class="bfst0" d="M16 0C7.2 0 0 7.2 0 16s7.2 16 16 16 16-7.2 16-16S24.8 0 16 0zm0 30C8.3 30 2 23.7 2 16S8.3 2 16 2s14 6.3 14 14-6.3 14-14 14zm3.4-12.8c-.8 0-1.3.4-2 .4s-3.5-2.9-3.5-3.7c0-.8.7-.6.7-1.5 0-.6-2.4-4.5-3.3-4.5-.9.1-3.3 2-3.3 3.5C8 15.8 15.8 24 20.7 24c1.4 0 3.3-1.7 3.3-3.4 0-.6-3.8-3.3-4.6-3.4zm2.3 4.5c-.2.2-.4.3-.6.4-.1.1-.3.1-.4.1-.9 0-2-.4-3.3-1.1-1.2-.7-2.5-1.8-3.7-3-1.2-1.2-2.2-2.5-2.9-3.7-.4-.6-.6-1.2-.8-1.7-.2-.5-.3-.9-.3-1.3 0 0 0-.2.1-.3.1-.2.3-.4.5-.6.2-.2.5-.4.7-.5 0 .1.1.1.1.2.2.3.5.6.7 1 .4.6.7 1.2.8 1.5 0 .1-.1.1-.1.2-.2.4-.4.7-.4 1.5 0 .5.2 1.1.8 1.8.3.4.7.9 1.2 1.4.5.5 1 .9 1.4 1.2.7.5 1.2.8 1.8.8.7 0 1.2-.3 1.6-.5.1-.1.2 0 .3.1.3.1.8.4 1.5 1 .7.5 1.1.8 1.3 1 .1.1-.1.3-.3.5z"/></g></svg><svg id="github" viewBox="-38 4 18 18" width="18" height="18" y="195"><style>.bgst0{fill:#fff}</style><path id="bgXMLID_1_" class="bgst0" d="M-29 6.2c-3.9 0-7 3.1-7 7 0 3.1 2 5.7 4.8 6.6.4.1.5-.1.5-.3v-1.3c-1.8.3-2.2-.4-2.4-.8-.1-.2-.4-.8-.7-1-.2-.1-.6-.5 0-.5s.9.5 1.1.7c.6 1.1 1.6.8 2 .6.1-.5.2-.8.4-.9-1.6-.2-3.2-.8-3.2-3.5 0-.8.3-1.4.7-1.9 0-.2-.2-.9.1-1.8 0 0 .6-.2 1.9.7.6-.2 1.2-.2 1.8-.2s1.2.1 1.8.2c1.3-.9 1.9-.7 1.9-.7.4 1 .1 1.7.1 1.9.4.5.7 1.1.7 1.9 0 2.7-1.6 3.3-3.2 3.5.3.2.5.6.5 1.3v1.9c0 .2.1.4.5.3 2.8-1 4.8-3.6 4.8-6.6-.1-4-3.2-7.1-7.1-7.1z"/></svg><svg id="global-1616-1" viewBox="-1 -1 18 18" width="18" height="18" x="36" y="195"><style>.bhst0{fill:#fff}.bhst0,.bhst1,.bhst2{fill-rule:evenodd;clip-rule:evenodd}.bhst1{opacity:.2;fill:#fff}.bhst2{fill:none;stroke:#fff;stroke-miterlimit:10}</style><g id="bhXMLID_2_"><g id="bhXMLID_41_"><path id="bhXMLID_42_" class="bhst0" d="M8 1C4.1 1 1 4.1 1 8s3.1 7 7 7 7-3.1 7-7-3.1-7-7-7zm0 13c-3.3 0-6-2.7-6-6s2.7-6 6-6 6 2.7 6 6-2.7 6-6 6z"/></g></g><path id="bhXMLID_1_" class="bhst1" d="M2.5 5.1s1.4-.4 3.2-.8c1 .7-.3 2.2-.9 2.6-.6.4 0 1.7 0 1.7v.9h.9l.9 1.5.9.5.9-.3s1.1-1.5 0-3.5c1.9 0 1.7-1.7 1.7-1.7l4.2.7s-.9-4.1-5.1-5C5 .8 2.7 4 2.5 5.1z"/><path id="bhXMLID_3_" class="bhst2" d="M2.5 5.1s1.4-.4 3.2-.8c1 .7-.3 2.2-.9 2.6-.6.4 0 1.7 0 1.7v.9h.9l.9 1.5.9.5.9-.3s1.1-1.5 0-3.5c1.9 0 1.7-1.7 1.7-1.7l4.2.7s-.9-4.1-5.1-5C5 .8 2.7 4 2.5 5.1z"/></svg><svg id="global-1616-1" viewBox="-6 6 18 18" width="18" height="18" x="54" y="195"><style>.bist0{fill:#fff}.bist1{fill:none;stroke:#fff;stroke-miterlimit:10}</style><g id="biXMLID_2_"><g id="biXMLID_41_"><path id="biXMLID_42_" class="bist0" d="M3 8c-3.9 0-7 3.1-7 7s3.1 7 7 7 7-3.1 7-7-3.1-7-7-7zm0 13c-3.3 0-6-2.7-6-6s2.7-6 6-6 6 2.7 6 6-2.7 6-6 6z"/></g></g><path id="biXMLID_3_" class="bist1" d="M-2.5 12.1s1.4-.4 3.2-.8c1 .7-.3 2.2-.9 2.6s0 1.7 0 1.7v.9h.9l.9 1.5.9.5.9-.3s1.1-1.5 0-3.5c1.9 0 1.7-1.7 1.7-1.7l4.2.7s-.9-4.1-5.1-5C0 7.8-2.3 11-2.5 12.1z"/></svg><svg width="18" height="18" viewBox="-1 -1 18 18" id="global-1616-1-new" x="90" y="195"><g fill="none" fill-rule="evenodd" stroke="#FFF"><circle cx="8" cy="8" r="7" stroke-width="2"/><path d="M1.345 4.537l5.308 1.086L5.61 8.747l1.76.88.852 1.702 1.404-.702.926-1.85.13-.163 2.192-1.803 2.605.632A7.5 7.5 0 0 0 1.345 4.537z"/></g></svg><svg id="global-1616-2" viewBox="-1 -1 18 18" width="18" height="18" x="108" y="195"><style>.bkst0{fill:#00a4ff}.bkst0,.bkst1,.bkst2{fill-rule:evenodd;clip-rule:evenodd}.bkst1{opacity:.2;fill:#598aff}.bkst2{fill:none;stroke:#00a4ff;stroke-miterlimit:10}</style><g id="bkXMLID_2_"><g id="bkXMLID_37_"><path id="bkXMLID_38_" class="bkst0" d="M8 1C4.1 1 1 4.1 1 8s3.1 7 7 7 7-3.1 7-7-3.1-7-7-7zm0 13c-3.3 0-6-2.7-6-6s2.7-6 6-6 6 2.7 6 6-2.7 6-6 6z"/></g></g><path id="bkXMLID_1_" class="bkst1" d="M2.5 5.1s1.4-.4 3.2-.8c1 .7-.3 2.2-.9 2.6-.6.4 0 1.7 0 1.7v.9h.9l.9 1.5.9.5.9-.3s1.1-1.5 0-3.5c1.9 0 1.7-1.7 1.7-1.7l4.2.7s-.9-4.1-5.1-5C5 .8 2.7 4 2.5 5.1z"/><path id="bkXMLID_3_" class="bkst2" d="M2.5 5.1s1.4-.4 3.2-.8c1 .7-.3 2.2-.9 2.6-.6.4 0 1.7 0 1.7v.9h.9l.9 1.5.9.5.9-.3s1.1-1.5 0-3.5c1.9 0 1.7-1.7 1.7-1.7l4.2.7s-.9-4.1-5.1-5C5 .8 2.7 4 2.5 5.1z"/></svg><svg width="18" height="18" viewBox="-1 -1 18 18" id="global-1616-2-new" x="126" y="195"><g fill="none" fill-rule="evenodd" stroke="#00a4ff"><circle cx="8" cy="8" r="7" stroke-width="2"/><path d="M1.345 4.537l5.308 1.086L5.61 8.747l1.76.88.852 1.702 1.404-.702.926-1.85.13-.163 2.192-1.803 2.605.632A7.5 7.5 0 0 0 1.345 4.537z"/></g></svg><svg width="26" height="26" viewBox="-1 -1 26 26" id="hasmsg-2424-1-inline" x="78" y="169"><title>hasmsg-2424-1-inline</title><g fill="none" fill-rule="evenodd"><path d="M21.9 8.9c.3 1 .5 2 .5 3.1 0 2.1-.6 4-1.7 5.6-1.1-2.4-3.2-4.3-5.7-5.1 1.1-.9 1.8-2.2 1.8-3.7C16.8 6.1 14.7 4 12 4 9.3 4 7.2 6.1 7.2 8.8c0 1.5.7 2.8 1.8 3.7-2.5.8-4.6 2.7-5.7 5.1C2.2 16 1.6 14.1 1.6 12 1.6 6.3 6.3 1.6 12 1.6c1.5 0 3 .3 4.3.9.2-.5.4-1 .7-1.4C15.4.4 13.8 0 12 0 5.4 0 0 5.4 0 12s5.4 12 12 12 12-5.4 12-12c0-1.3-.2-2.5-.6-3.7-.4.3-.9.5-1.5.6zM8.8 8.8c0-1.8 1.4-3.2 3.2-3.2 1.8 0 3.2 1.4 3.2 3.2 0 1.8-1.4 3.2-3.2 3.2-1.8 0-3.2-1.4-3.2-3.2zM12 22.4c-3 0-5.7-1.3-7.6-3.3 1-3.2 4-5.5 7.6-5.5 3.5 0 6.5 2.3 7.6 5.5-1.9 2-4.6 3.3-7.6 3.3z" fill="#FFF" fill-rule="nonzero"/><path d="M21 1c1.7 0 3 1.3 3 3s-1.3 3-3 3-3-1.3-3-3 1.3-3 3-3z" fill="#00A4FF"/></g></svg><svg width="26" height="26" viewBox="-294 384 26 26" id="hasmsg-2424-2-inline" y="169"><path fill="#00A4FF" d="M-271.1 393.9c.3 1 .5 2 .5 3.1 0 2.1-.6 4-1.7 5.6-1.1-2.4-3.2-4.3-5.7-5.1 1.1-.9 1.8-2.2 1.8-3.7 0-2.7-2.1-4.8-4.8-4.8s-4.8 2.1-4.8 4.8c0 1.5.7 2.8 1.8 3.7-2.5.8-4.6 2.7-5.7 5.1-1.1-1.6-1.7-3.5-1.7-5.6 0-5.7 4.7-10.4 10.4-10.4 1.5 0 3 .3 4.3.9.2-.5.4-1 .7-1.4-1.6-.7-3.2-1.1-5-1.1-6.6 0-12 5.4-12 12s5.4 12 12 12 12-5.4 12-12c0-1.3-.2-2.5-.6-3.7-.4.3-.9.5-1.5.6zm-13.1-.1c0-1.8 1.4-3.2 3.2-3.2s3.2 1.4 3.2 3.2c0 1.8-1.4 3.2-3.2 3.2s-3.2-1.4-3.2-3.2zm3.2 13.6c-3 0-5.7-1.3-7.6-3.3 1-3.2 4-5.5 7.6-5.5 3.5 0 6.5 2.3 7.6 5.5-1.9 2-4.6 3.3-7.6 3.3z"/><path fill="#00A4FF" d="M-272 386c1.7 0 3 1.3 3 3s-1.3 3-3 3-3-1.3-3-3 1.3-3 3-3z"/></svg><svg width="18" height="18" viewBox="-1 -1 18 18" id="icon-add" x="220"><path fill="#666" fill-rule="evenodd" d="M8 8V3h1v5h5v1H9v5H8V9H3V8h5z"/></svg><svg width="18" height="18" viewBox="-1 -1 18 18" id="icon-arrow" x="220" y="18"><title>画板</title><g fill="none" fill-rule="evenodd"><path d="M0 0h16v16H0z"/><path fill="#FFF" fill-rule="nonzero" d="M3.41 4.59L8 9.17l4.59-4.58L14 6l-6 6-6-6z"/></g></svg><svg width="26" height="26" viewBox="-1 -1 26 26" id="icon-close" x="136" y="105"><title>画板备份 3</title><g fill="none" fill-rule="evenodd"><path d="M0 0h24v24H0z"/><path d="M12 10.55l7.25-7.25a1.025 1.025 0 0 1 1.45 1.45L13.45 12l7.25 7.25a1.025 1.025 0 1 1-1.45 1.45L12 13.45 4.75 20.7a1.025 1.025 0 1 1-1.45-1.45L10.55 12 3.3 4.75A1.025 1.025 0 0 1 4.75 3.3L12 10.55z" fill="#FFF"/></g></svg><svg width="34" height="34" viewBox="-1 -1 34 34" id="icon-error" y="105"><g fill="#F74042"><path d="M14 20h3v3h-3zm0-12h3v10h-3z"/><path d="M15.5 0C6.94 0 0 6.94 0 15.5S6.94 31 15.5 31 31 24.06 31 15.5 24.06 0 15.5 0zm0 28C8.607 28 3 22.393 3 15.5S8.607 3 15.5 3 28 8.607 28 15.5 22.393 28 15.5 28z"/></g></svg><svg width="34" height="34" viewBox="-1 -1 34 34" id="icon-error" x="34" y="105"><title>Page 1</title><defs><path id="bsa" d="M0 0h32v32H0z"/></defs><g fill="none" fill-rule="evenodd"><mask id="bsb" fill="#fff"><use xlink:href="#bsa"/></mask><path d="M16 28.903C8.885 28.903 3.097 23.115 3.097 16S8.885 3.097 16 3.097 28.903 8.885 28.903 16 23.115 28.903 16 28.903zM16 0C7.164 0 0 7.163 0 16c0 8.836 7.164 16 16 16s16-7.164 16-16c0-8.837-7.164-16-16-16zm-1.548 18.58h3.097V8.257h-3.097V18.58zm0 5.162h3.097v-3.097h-3.097v3.097z" fill="#E54545" mask="url(#bsb)"/></g></svg><svg width="34" height="34" viewBox="-1 -1 34 34" id="icon-infoblue" x="68" y="105"><g fill="#00a4ff"><path d="M14 8h3v3h-3zm0 5h3v10h-3z"/><path d="M31 15.5C31 6.94 24.06 0 15.5 0S0 6.94 0 15.5 6.94 31 15.5 31 31 24.06 31 15.5zm-3 0C28 22.393 22.393 28 15.5 28S3 22.393 3 15.5 8.607 3 15.5 3 28 8.607 28 15.5z"/></g></svg><svg width="14" height="7" viewBox="-1 -1 14 7" id="icon-link" x="102" y="97"><title>右箭头</title><path d="M0 3h8V0l4 5H0z" fill="#9BA6B7" fill-rule="nonzero" opacity=".6"/></svg><svg width="14" height="7" viewBox="-1 -1 14 7" id="icon-link-primary" x="136" y="131"><title>右箭头</title><path d="M0 3h8V0l4 5H0z" fill="#FFF" fill-rule="nonzero"/></svg><svg width="34" height="34" viewBox="-1 -1 34 34" id="icon-pending" x="102" y="105"><defs><path id="bwa" d="M15.388-18.842l4.631 3.394-1.773 2.421-5.634-4.13-1.008-6.544 2.965-.457.819 5.316zm10.472-.984c1.009 6.55-3.484 12.678-10.034 13.686S3.148-9.624 2.14-16.174 5.624-28.852 12.174-29.86s12.678 3.484 13.686 10.034zm-2.965.456c-.755-4.906-5.359-8.281-10.265-7.526-4.905.756-8.281 5.36-7.525 10.266s5.359 8.281 10.265 7.526 8.281-5.36 7.525-10.266z"/></defs><use xlink:href="#bwa" overflow="visible" fill-rule="evenodd" clip-rule="evenodd" fill="#fff"/><clipPath id="bwb"><use xlink:href="#bwa" overflow="visible"/></clipPath><path transform="rotate(-8.754 13.998 -17.998)" clip-path="url(#bwb)" fill="#fff" d="M-3-35h34v34H-3z"/><path d="M15.5 0C6.94 0 0 6.94 0 15.5S6.94 31 15.5 31 31 24.06 31 15.5 24.06 0 15.5 0zm0 28C8.607 28 3 22.393 3 15.5S8.607 3 15.5 3 28 8.607 28 15.5 22.393 28 15.5 28zm4.939-4.939L14 16.621V7h3v8.379l5.561 5.561-2.122 2.121z" fill="#F0B64B"/></svg><svg width="26" height="26" viewBox="-1 -1 26 26" id="icon-search" x="104" y="169"><title>画板备份</title><g transform="translate(1 1)" fill="#FFF" fill-rule="nonzero"><path d="M9.88 2.88a7 7 0 1 1-5 2.05 7 7 0 0 1 5-2m0-2a9 9 0 1 0 .004 18 9 9 0 0 0-.004-18z"/><path d="M14.832 16.242l1.414-1.414 4.95 4.95-1.414 1.414z"/></g></svg><svg width="18" height="18" viewBox="-1 -1 18 18" id="icon-search-s" x="90" y="213"><title>画板</title><g fill="none" fill-rule="evenodd"><path d="M0 0h16v16H0z"/><path d="M6.5 0a6.5 6.5 0 0 1 5.25 10.334l3.907 3.909.022.023a1 1 0 1 1-1.413 1.413l-.012-.01-.909-.91-3.011-3.01A6.5 6.5 0 1 1 6.5 0zm0 2a4.5 4.5 0 1 0 0 9 4.5 4.5 0 0 0 0-9z" fill="#999" fill-rule="nonzero"/></g></svg><svg width="16" height="16" viewBox="-1 -1 16 16" id="icon-succeed-pim" x="180" y="169"><title>编组 7</title><g fill-rule="nonzero" fill="none"><path d="M7 0a7 7 0 1 0 0 14A7 7 0 0 0 7 0zm0 13c-3.308 0-6-2.692-6-6s2.692-6 6-6 6 2.692 6 6-2.692 6-6 6z" fill="#00A4FF"/><path stroke="#00A4FF" stroke-width="2" d="M4.047 7.09L6.023 9l4-3.968"/></g></svg><svg width="16" height="16" viewBox="-1 -1 16 16" id="icon-succeed-upload" x="162" y="213"><title>正确</title><g fill="#0ABF5B" fill-rule="evenodd"><path d="M9.586 4.211L6.042 7.79 4.299 6.048 2.885 7.462l3.157 3.157 1.414-1.414L11 5.625z"/><path d="M7 0a7 7 0 1 0 0 14A7 7 0 0 0 7 0zm0 12c-2.757 0-5-2.243-5-5s2.243-5 5-5 5 2.243 5 5-2.243 5-5 5z" fill-rule="nonzero"/></g></svg><svg width="34" height="34" viewBox="-1 -1 34 34" id="icon-success" x="162"><g fill="#0ABF5B"><path d="M13.25 17.811l-3.364-3.364-2.121 2.121 3.364 3.364 2.121 2.121 2.121-2.121 7.864-7.864-2.121-2.121z"/><path d="M15.5 0C6.94 0 0 6.94 0 15.5S6.94 31 15.5 31 31 24.06 31 15.5 24.06 0 15.5 0zm0 28C8.607 28 3 22.393 3 15.5S8.607 3 15.5 3 28 8.607 28 15.5 22.393 28 15.5 28z"/></g></svg><svg id="icon-tc" width="93" height="18" viewBox="-1 -1 93 18" y="27"><style>.ccst0{fill:#999}</style><g id="ccXMLID_80_"><path id="ccXMLID_81_" class="ccst0" d="M83.8 1.9l-.6 3h-3.8l1.5 2h2l-1.6 8.8h3.4L86.2 7h4.3l-6.7-5.1zM16.4 0H.9L.5 2.3h6L4 15.8h3.4L9.9 2.3H16l.4-2.3zM19 4.7c-4.3 0-7.1 2.6-7.7 5.5-.6 3.3 1.6 5.7 5.9 5.7 2 0 3.8-.3 5.3-1.1l.5-2.5c-1.5 1-3.3 1.5-4.9 1.5-2.2 0-3.9-.9-3.6-2.8h9c.1-.2.2-.6.3-1.1.5-2.3-.4-5.2-4.8-5.2zm1.7 4.5h-5.9c.4-1.1 1.5-2.6 3.6-2.6 2.3 0 2.5 1.6 2.3 2.6zm13.4-4.5c-2.1 0-3.7.8-4.5 1.7h-.1l-3-1.7c-.1.9-.3 2.2-.5 3.5l-1.4 7.6H28l1.2-6.4.3-.9c.5-.8 1.6-1.6 2.9-1.6 1.9 0 2.4 1.2 2.1 2.7l-1.1 6.1h3.4L38 9.4c.6-3.5-1.6-4.7-3.9-4.7zm40.9 0c-2.1 0-3.7.8-4.5 1.7h-.1l-3-1.7c-.1.9-.3 2.2-.5 3.5l-1.4 7.6H69l1.2-6.4.3-.9c.5-.8 1.6-1.6 2.9-1.6 1.9 0 2.4 1.2 2.1 2.7l-1.1 6.1h3.4L79 9.4c.6-3.5-1.6-4.7-4-4.7zm-15.1 0c-4.3 0-7.1 2.6-7.7 5.5-.6 3.3 1.6 5.7 5.9 5.7 2 0 3.8-.3 5.3-1.1l.5-2.5c-1.5 1-3.3 1.5-4.9 1.5-2.2 0-3.9-.9-3.6-2.8h9c.1-.2.2-.6.3-1.1.5-2.3-.4-5.2-4.8-5.2zm1.8 4.5h-5.9c.4-1.1 1.5-2.6 3.6-2.6 2.3 0 2.5 1.6 2.3 2.6zm-22.3 1c-.6 3.3 1.9 5.8 6.1 5.8 1.7 0 3.7-.5 4.5-.7l.6-2.9c-1.2 1.2-2.8 1.4-3.9 1.4-2.3 0-4.1-1.3-3.7-3.5.4-2 2.4-3.5 5-3.5 1.1 0 2.5.3 3.4 1.5l.5-2.9c-.7-.3-1.9-.6-3.7-.6-4.8-.1-8.2 2.2-8.8 5.4z"/></g></svg><svg width="16" height="16" viewBox="-1 -1 16 16" id="icon-tips-pim" x="196" y="178"><title>暂无评价</title><path d="M6 3h2v5H6V3zm0 6h2v2H6V9zm1-9a7 7 0 1 0 0 14A7 7 0 0 0 7 0zm0 13c-3.308 0-6-2.692-6-6s2.692-6 6-6 6 2.692 6 6-2.692 6-6 6z" fill="#999" fill-rule="nonzero"/></svg><svg width="26" height="26" viewBox="-1 -1 26 26" id="icon-user" x="102" y="71"><title>画板备份 2</title><g fill="none" fill-rule="evenodd"><path d="M0 0h24v24H0z"/><path d="M12 22c5.523 0 10-4.477 10-10S17.523 2 12 2 2 6.477 2 12s4.477 10 10 10zm0 2C5.373 24 0 18.627 0 12S5.373 0 12 0s12 5.373 12 12-5.373 12-12 12z" fill="#FFF" fill-rule="nonzero"/><path d="M12 22c2.587 0 5.012-.971 6.854-2.67C18.096 16.253 15.296 14 12 14c-3.296 0-6.096 2.254-6.854 5.33A10.074 10.074 0 0 0 12 22zm-9-2c.5-4.5 4.34-8 9-8s8.5 3.5 9 8c-2.21 2.455-5.424 4-9 4-3.576 0-6.79-1.545-9-4z" fill="#FFF" fill-rule="nonzero"/><path d="M12 12a3 3 0 1 0 0-6 3 3 0 0 0 0 6zm0 2a5 5 0 1 1 0-10 5 5 0 0 1 0 10z" fill="#FFF" fill-rule="nonzero"/></g></svg><svg width="34" height="34" viewBox="-1 -1 34 34" id="icon-warning" x="128" y="68"><g fill="none" fill-rule="evenodd"><path d="M0 0h32v32H0z"/><path d="M14 23v-3h3v3h-3zm0-5V8h3v10h-3zm1.5 10C22.393 28 28 22.393 28 15.5S22.393 3 15.5 3 3 8.607 3 15.5 8.607 28 15.5 28zm0-28C24.061 0 31 6.939 31 15.5S24.061 31 15.5 31 0 24.061 0 15.5 6.939 0 15.5 0z" fill="#F0B64B"/></g></svg><svg width="18" height="18" viewBox="-1 -1 18 18" id="icon-wrong-upload" x="18" y="195"><title>错误</title><g fill="none" fill-rule="evenodd"><path d="M0 0h16v16H0z"/><circle stroke="#E54545" stroke-width="2" cx="8" cy="8" r="7"/><path fill="#E54545" fill-rule="nonzero" d="M11.536 10.121L9.414 8l2.122-2.121-1.415-1.415L8 6.586 5.879 4.464 4.464 5.88 6.586 8l-2.122 2.121 1.415 1.415L8 9.414l2.121 2.122z"/></g></svg><svg width="8" height="6" viewBox="-303 394 8 6" id="lang-64-1-inline" x="238" y="59"><path fill="#FFF" d="M-299 397l1.5-2h1.5l-3 4-3-4h1.5l1.5 2z"/></svg><svg width="8" height="6" viewBox="-303 394 8 6" id="lang-64-2-inline" x="238" y="53"><path fill="#00A4FF" d="M-299 397l1.5-2h1.5l-3 4-3-4h1.5l1.5 2z"/></svg><svg id="link-1212-1" viewBox="-1 -1 14 14" width="14" height="14" x="216" y="213"><style>.cjst0{fill-rule:evenodd;clip-rule:evenodd;fill:#7d848d}</style><path id="cjXMLID_2_" class="cjst0" d="M1 11V1h3v1H2v8h8V8h1v3H1zm5.1-4.4l-.7-.7 2.8-2.8L6 1h5v5L8.9 3.9 6.1 6.6z"/></svg><svg id="link-1212-2" viewBox="-1 -1 14 14" width="14" height="14" x="238"><style>.ckst0{fill-rule:evenodd;clip-rule:evenodd;fill:#00a4ff}</style><path id="ckXMLID_2_" class="ckst0" d="M1 11V1h3v1H2v8h8V8h1v3H1zm5.1-4.4l-.7-.7 2.8-2.8L6 1h5v5L8.9 3.9 6.1 6.6z"/></svg><svg id="link-1212-3" viewBox="-1 -1 14 14" width="14" height="14" x="220" y="198"><style>.clst0{fill-rule:evenodd;clip-rule:evenodd;fill:#fff}</style><path id="clXMLID_2_" class="clst0" d="M1 11V1h3v1H2v8h8V8h1v3H1zm5.1-4.4l-.7-.7 2.8-2.8L6 1h5v5L8.9 3.9 6.1 6.6z"/></svg><svg id="linkedin" viewBox="-1 -1 18 18" width="18" height="18" x="72" y="195"><style>.cmst0{fill-rule:evenodd;clip-rule:evenodd;fill:#fff}</style><path id="cmXMLID_9_" class="cmst0" d="M13 2H3c-.6 0-1 .4-1 1v10c0 .6.4 1 1 1h10c.6 0 1-.4 1-1V3c0-.6-.4-1-1-1zM6 12H4V7h2v5zM5 6c-.6 0-1-.4-1-1s.4-1 1-1 1 .4 1 1-.4 1-1 1zm7 6h-2V9H9v3H7V7h2v1l1-1h2v5z"/></svg><svg width="92" height="26" viewBox="-1 -1 92 26" id="logo" y="45"><title>01_标准标识（中文）</title><g fill="#FFF" fill-rule="nonzero"><path d="M65.749 5.472h3.724v5.161h-3.724V5.472zm5.28-1.416h-9.783v1.416h2.946v5.161h-3.376v1.416h3.376v8.655h1.557V12.05h3.723v8.474h2.941v-1.416H71.03V4.057zM43.891 16.746h7.719v1.416h-7.719zM42.03 8.869h-1.983V5.507h1.983V8.87zm-1.983 1.274h1.983v3.388h-1.983v-3.388zm-1.415 3.983c0 2.574-.209 4.528-.637 6.26-.045.16.004.203.087.203h1.42c.474-2.379.536-4.352.544-5.784h1.984v4.402h-1.41c-.068 0-.121.044-.085.142l.388 1.273h2.52V4.092h-4.811v10.034z"/><path d="M50.423 9.83c.34.559.704 1.045 1.081 1.473H46.87c.36-.415.708-.9 1.033-1.472h2.52zm1.733 0h1.9V8.558H48.52c.167-.408.317-.844.454-1.317h4.736V5.966h-1.387l.52-1.77c.027-.094-.022-.13-.083-.13h-1.206l-.559 1.9h-1.703c.159-.737.297-1.553.423-2.468.015-.106-.042-.127-.113-.127H48.23c-.14.973-.287 1.811-.475 2.595h-.835l-.559-1.9h-1.205c-.061 0-.11.036-.083.13l.52 1.77H44.24V7.24h3.155c-.128.402-.317.876-.518 1.317h-2.984V9.83h2.241c-.904 1.283-1.87 1.873-2.255 2.11v1.457c0 .073.058.151.289.02.419-.237.866-.506 1.319-.84h5.272l-.044 1.907h-4.163l.064-1.14a.083.083 0 0 0-.087-.087h-1.331l-.134 2.415c0 .05.036.087.086.087h7.182v3.444h-3.237c-.068 0-.121.045-.085.143l.388 1.273h4.491v-6.135h-1.758l.058-2.478a10.272 10.272 0 0 0 1.931 1.41c.23.132.289.054.289-.02V11.94a7.3 7.3 0 0 1-2.253-2.11M62.233 15.761l-2.625 1.99V8.548H55.97v1.557h2.091v8.818l-.836.634.854 1.128 4.295-3.254v-1.603c0-.077-.085-.109-.14-.067M58.266 7.154h1.702c.076 0 .107-.082.073-.133l-2.147-3.278h-1.702c-.064 0-.11.074-.075.128l2.15 3.283M75.705 4.434h12.289v1.557H75.705zM80.163 11.877h9.563v-1.558H73.975v1.558h4.37l-3.184 8.36c-.025.07.02.12.08.12h13.586c.064 0 .101-.063.078-.123l-2.025-5.326h-1.692a.086.086 0 0 0-.08.119c.02.056 1.433 3.773 1.433 3.773h-9.008l2.63-6.923zM30.966 10.914a7.648 7.648 0 0 0-5.475-2.308c-1.86 0-3.46.641-4.858 1.78-.609.495-1.248 1.09-2.052 1.87L6.603 23.88c.607.086 1.442.112 2.187.116.697.005 14 .004 14.557.004 1.12 0 1.85-.002 2.633-.059 1.797-.131 3.495-.79 4.867-2.138a7.693 7.693 0 0 0 .119-10.888m-2.226 8.735c-.59.585-1.644 1.248-3.373 1.307-.8.027-1.733.03-2.16.03h-9.291l6.663-6.472c.307-.298.996-.957 1.59-1.492 1.306-1.175 2.48-1.412 3.312-1.404a4.732 4.732 0 0 1 3.332 1.402c1.81 1.85 1.767 4.808-.073 6.63"/><path d="M12.285 10.192c-1.36-1.02-2.884-1.588-4.612-1.586A7.647 7.647 0 0 0 2.2 10.914a7.693 7.693 0 0 0 .119 10.889c1.224 1.2 2.706 1.855 4.286 2.076l2.981-2.893a63.528 63.528 0 0 1-1.787-.03c-1.73-.059-2.783-.722-3.373-1.306-1.84-1.821-1.883-4.779-.073-6.63a4.732 4.732 0 0 1 3.333-1.401c.815-.004 1.923.233 3.174 1.27.597.495 1.923 1.66 2.505 2.186.03.026.065.028.1 0l2.053-2.003c.035-.034.033-.08-.002-.112-.988-.893-2.387-2.141-3.23-2.768"/><path d="M26.298 6.868C24.882 2.867 21.068 0 16.582 0 11.437 0 7.172 3.784 6.4 8.713a7.64 7.64 0 0 1 1.273-.107 7.345 7.345 0 0 1 1.74.204l.032.006a7.297 7.297 0 0 1 7.137-5.8c2.914 0 5.47 1.757 6.623 4.248.018.039.048.052.08.043a8.844 8.844 0 0 1 2.91-.302c.098.007.135-.048.103-.137"/></g></svg><svg id="logo-9225-color" viewBox="-1 -1 94 27" width="94" height="27"><style>.cost0{fill:#fff}.cost1{fill:#00a3ff}.cost2{fill:#00c8dc}.cost3{fill:#006eff}</style><g id="coXMLID_25_"><path id="coXMLID_38_" class="cost0" d="M72.8 4.6h-10V6h3v5.3h-3.5v1.5h3.5v8.9h1.6v-8.9h3.8v8.7h3V20h-1.4V4.6zm-5.4 6.7V6h3.8v5.3h-3.8z"/><path id="coXMLID_14_" class="cost0" d="M45 17.6h7.9v1.5H45z"/><path id="coXMLID_33_" class="cost0" d="M39.6 14.9c0 2.6-.2 4.6-.7 6.4 0 .2 0 .2.1.2h1.5c.5-2.4.5-4.5.6-5.9h2v4.5h-1.4c-.1 0-.1 0-.1.1l.4 1.3h2.6V4.6h-4.9v10.3zm1.5-.6v-3.5h2v3.5h-2zm2-8.2v3.4h-2V6.1h2z"/><path id="coXMLID_30_" class="cost0" d="M53.5 10.5h1.9V9.2h-5.7c.2-.4.3-.9.5-1.4h4.9V6.5h-1.4c.2-.8.5-1.8.5-1.8 0-.1 0-.1-.1-.1h-1.2l-.6 1.9h-1.7c.1-.7.2-1.6.4-2.5 0-.1 0-.1-.1-.1h-1.4c-.1 1-.3 1.9-.5 2.7h-.9l-.6-1.9h-1.2c-.1 0-.1 0-.1.1s.3 1 .5 1.8h-1.4v1.3h3.2c-.1.4-.3.9-.5 1.4h-3v1.3h2.3c-.9 1.3-1.9 1.9-2.3 2.2v1.5c0 .1.1.2.3 0 .4-.2.9-.5 1.4-.9H52v2h-4.3l.1-1.2c0-.1 0-.1-.1-.1h-1.4l-.1 2.5c0 .1 0 .1.1.1h7.4v3.5h-3.3c-.1 0-.1 0-.1.1l.4 1.3h4.6v-6.3h-1.8l.1-2.5c.7.6 1.4 1.1 2 1.4.2.1.3.1.3 0v-1.5c-.5-.3-1.5-.9-2.4-2.2zm-1.8 0c.3.6.7 1.1 1.1 1.5H48c.4-.4.7-.9 1.1-1.5h2.6z"/><path id="coXMLID_8_" class="cost0" d="M63.8 16.6s-1.4 1-2.7 2V9.2h-3.7v1.6h2.1v9c-.5.4-.9.6-.9.6l.9 1.2 4.4-3.3v-1.6c.1-.1 0-.2-.1-.1z"/><path id="coXMLID_7_" class="cost0" d="M59.7 7.7h1.7c.1 0 .1-.1.1-.1l-2.2-3.4h-1.7l-.1.1c.1.1 2.2 3.4 2.2 3.4z"/><path id="coXMLID_6_" class="cost0" d="M77.6 5h12.6v1.6H77.6z"/><path id="coXMLID_5_" class="cost0" d="M82.2 12.6H92V11H75.8v1.6h4.5c-.9 2.4-3.2 8.5-3.3 8.6 0 .1 0 .1.1.1H91c.1 0 .1-.1.1-.1L89 15.7h-1.7c-.1 0-.1.1-.1.1 0 .1 1.5 3.9 1.5 3.9h-9.2l2.7-7.1z"/></g><g id="coXMLID_19_"><path id="coXMLID_22_" class="cost1" d="M29.5 20.6c-.6.6-1.7 1.3-3.5 1.3H14.3c3.5-3.4 6.5-6.3 6.8-6.6.3-.3 1-1 1.6-1.5 1.3-1.2 2.5-1.4 3.4-1.4 1.3 0 2.5.6 3.4 1.4 1.9 1.9 1.9 4.9 0 6.8m2.3-9c-1.4-1.5-3.4-2.4-5.6-2.4-1.9 0-3.5.7-5 1.8-.6.5-1.3 1.1-2.1 1.9-.5.5-12.3 12-12.3 12 .6.1 1.4.1 2.2.1h14.9c1.1 0 1.9 0 2.7-.1 1.8-.1 3.6-.8 5-2.2 3.2-3 3.2-8 .2-11.1z"/><path id="coXMLID_2_" class="cost2" d="M12.6 10.9c-1.4-1-3-1.6-4.7-1.6-2.2 0-4.2.9-5.6 2.4-3 3.1-3 8.1.1 11.2 1.3 1.2 2.8 1.9 4.4 2.1l3.1-3H8.1c-1.8-.1-2.9-.7-3.5-1.3a4.86 4.86 0 0 1-.1-6.8c.9-.9 2.1-1.4 3.4-1.4.8 0 2 .2 3.3 1.3.6.5 2 1.7 2.6 2.2h.1l2.1-2.1v-.1c-1.1-1-2.5-2.3-3.4-2.9"/><path id="coXMLID_1_" class="cost3" d="M27 7.5c-1.5-4.1-5.4-7-10-7-5.3 0-9.6 3.9-10.4 8.9.4-.1.8-.2 1.3-.2.6 0 1.2.1 1.8.2.7-3.4 3.7-5.9 7.3-5.9 3 0 5.6 1.8 6.8 4.4 0 0 .1.1.1 0 .9-.2 2-.4 3-.3.1 0 .1-.1.1-.1"/></g></svg><svg id="nav-2218" viewBox="-1 -1 24 20" width="24" height="20" x="196"><style>.cpst0{fill-rule:evenodd;clip-rule:evenodd;fill:#fff}</style><g id="cpXMLID_2_"><g id="cpXMLID_42_"><path id="cpXMLID_43_" class="cpst0" d="M0 0v2h22V0H0zm0 10h22V8H0v2zm0 8h22v-2H0v2z"/></g></g></svg><svg id="nav-2218-actived" viewBox="-1 -1 24 20" width="24" height="20" x="156" y="169"><style>.cqst0{fill-rule:evenodd;clip-rule:evenodd;fill:#00a4ff}</style><g id="cqXMLID_2_"><g id="cqXMLID_46_"><path id="cqXMLID_47_" class="cqst0" d="M0 0v2h22V0H0zm0 10h22V8H0v2zm0 8h22v-2H0v2z"/></g></g></svg><svg width="18" height="18" viewBox="-1 -1 18 18" id="nav-2218-actived-new" x="162" y="195"><path fill="#00a4ff" fill-rule="evenodd" d="M1 2h14v2H1V2zm0 5h14v2H1V7zm0 5h14v2H1v-2z"/></svg><svg width="18" height="18" viewBox="-1 -1 18 18" id="nav-2218-new" x="180" y="195"><path fill="#FFF" fill-rule="evenodd" d="M1 2h14v2H1V2zm0 5h14v2H1V7zm0 5h14v2H1v-2z"/></svg><svg width="34" height="34" viewBox="-290 380 34 34" id="nav-3232-actived-inline" x="128"><path fill="#00A4FF" d="M-285.5 390h25c.8 0 1.5-.7 1.5-1.5s-.7-1.5-1.5-1.5h-25c-.8 0-1.5.7-1.5 1.5s.7 1.5 1.5 1.5zm25 6h-25c-.8 0-1.5.7-1.5 1.5s.7 1.5 1.5 1.5h25c.8 0 1.5-.7 1.5-1.5s-.7-1.5-1.5-1.5zm0 9h-25c-.8 0-1.5.7-1.5 1.5s.7 1.5 1.5 1.5h25c.8 0 1.5-.7 1.5-1.5s-.7-1.5-1.5-1.5z"/></svg><svg width="34" height="34" viewBox="-290 380 34 34" id="nav-3232-inline" x="162" y="34"><path fill="#FFF" d="M-285.5 390h25c.8 0 1.5-.7 1.5-1.5s-.7-1.5-1.5-1.5h-25c-.8 0-1.5.7-1.5 1.5s.7 1.5 1.5 1.5zm25 6h-25c-.8 0-1.5.7-1.5 1.5s.7 1.5 1.5 1.5h25c.8 0 1.5-.7 1.5-1.5s-.7-1.5-1.5-1.5zm0 9h-25c-.8 0-1.5.7-1.5 1.5s.7 1.5 1.5 1.5h25c.8 0 1.5-.7 1.5-1.5s-.7-1.5-1.5-1.5z"/></svg><svg width="29" height="18" viewBox="-1 -1 29 18" id="nav-hot" x="120" y="139"><g fill="none" fill-rule="evenodd" transform="translate(0 2)"><path fill="#FF7800" stroke="#FF7800" d="M2.5.5v4H.809L2.5 7.882V12.5h24V.5h-24z"/><path fill="#FFF" d="M6 6h4V3h1v7h-1V7H6v3H5V3h1v3zM19 3h5v1h-5z"/><path fill="#FFF" d="M21 3h1v7h-1z"/><circle cx="15.5" cy="6.5" r="3" stroke="#FFF"/></g></svg><svg data-name="图层 1" width="18" height="18" viewBox="-1 -1 18 18" id="nav-search-cancel-icon" x="220" y="36"><title>关闭</title><path data-name="Page-1" fill="#fff" d="M12.573 2L8 6.573 3.426 2 2 3.427l4.574 4.574L2 12.574 3.426 14 8 9.427 12.573 14 14 12.574 9.426 8.001 14 3.427 12.573 2z"/></svg><svg data-name="图层 1" width="18" height="18" viewBox="-1 -1 18 18" id="nav-search-cancel-icon-active" x="220" y="54"><title>关闭</title><path data-name="Page-1" fill="#00a4ff" d="M12.573 2L8 6.573 3.426 2 2 3.427l4.574 4.574L2 12.574 3.426 14 8 9.427 12.573 14 14 12.574 9.426 8.001 14 3.427 12.573 2z"/></svg><svg id="phone" width="20" height="20" viewBox="-1 -1 20 20" x="196" y="140"><style>.cyst0{fill:#666}</style><g id="cyXMLID_51_"><path id="cyXMLID_52_" class="cyst0" d="M12 7h2c0-1.7-1.3-3-3-3v2c.5 0 1 .5 1 1zm4 0h2c0-3.9-3.1-7-7-7v2c2.8 0 5 2.2 5 5zm1 3h-5l-1 1c-.1.1-.3.2-.4.2C9.2 11.2 6.1 7.9 7 7l1-1V1c0-.6-.4-1-1-1H1C.5 0 0 .5 0 1c.3 11.9 5.1 16.7 17 17 .6 0 1-.4 1-1v-6c0-.5-.5-1-1-1zm-1 6C6.2 15.5 2.5 11.8 2 2h4v3.5L4.7 7c0 .2.1 1 .4 1.8 1 2.5 4.4 4.3 5.9 4.4l1.5-1.2H16v4z"/></g></svg><svg id="phone-1616" data-name="图层 1" width="18" height="18" viewBox="-1 -1 18 18" x="220" y="90"><defs><style>.czcls-1{fill:#7d848d}</style></defs><title>2</title><path id="czcgXMLID" class="czcls-1" d="M3.06 2a16 16 0 0 1 1.63 2.4A2.53 2.53 0 0 0 4.15 6c0 1.75 3.51 5.35 5.21 5.35h.18a4.8 4.8 0 0 0 1.32-.27l.32-.1A18.59 18.59 0 0 1 14.13 13a2.42 2.42 0 0 1-1.43 1.21c-4 0-11-7.49-11-10.82A3.65 3.65 0 0 1 3.06 2m.24-2C2.4 0 0 1.9 0 3.4 0 7.8 7.8 16 12.7 16a3.83 3.83 0 0 0 3.3-3.4c0-.6-3.8-3.3-4.6-3.4s-1.3.4-2 .4c-.79 0-3.5-2.81-3.5-3.6s.7-.6.7-1.5C6.6 3.9 4.2 0 3.3 0z"/></svg><svg id="phone-1617" data-name="图层 1" width="18" height="18" viewBox="-1 -1 18 18" x="220" y="108"><defs><style>.dacls-1{fill:#fff}</style></defs><title>2</title><path id="dacgXMLID" class="dacls-1" d="M3.06 2a16 16 0 0 1 1.63 2.4A2.53 2.53 0 0 0 4.15 6c0 1.75 3.51 5.35 5.21 5.35h.18a4.8 4.8 0 0 0 1.32-.27l.32-.1A18.59 18.59 0 0 1 14.13 13a2.42 2.42 0 0 1-1.43 1.21c-4 0-11-7.49-11-10.82A3.65 3.65 0 0 1 3.06 2m.24-2C2.4 0 0 1.9 0 3.4 0 7.8 7.8 16 12.7 16a3.83 3.83 0 0 0 3.3-3.4c0-.6-3.8-3.3-4.6-3.4s-1.3.4-2 .4c-.79 0-3.5-2.81-3.5-3.6s.7-.6.7-1.5C6.6 3.9 4.2 0 3.3 0z"/></svg><svg width="20" height="20" viewBox="-1 -1 20 20" id="questionnaire" x="196" y="40"><title>Artboard Copy</title><g fill="#666" fill-rule="nonzero"><path d="M14 11H4v2h10z"/><path d="M3 3v12h12V3H3zM1 1h16v16H1V1z"/><path d="M9 10h5V8h-3zM7.5 9l.7-.7L11 5.5 9.7 4 6.8 6.8 5.4 5.4 4 6.8l2.8 2.8z"/></g></svg><svg id="research" width="20" height="20" viewBox="-1 -1 20 20" x="196" y="60"><style>.dcst0{fill:#666}</style><g id="dcXMLID_55_"><path id="dcXMLID_56_" class="dcst0" d="M14 12H4v2h10v-2zM0 0v18h18V0H0zm16 16H2V2h14v14zm-7-6h5V8h-3l-2 2zM7.5 9l.7-.7L11 5.5 9.7 4 6.8 6.8 5.4 5.4 4 6.8l2.8 2.8.7-.6z"/></g></svg><svg width="18" height="18" viewBox="-298 388 18 18" id="search-1616-1-inline" x="220" y="162"><path fill="#FFF" d="M-282.3 403.3l-2.5-2.5c1-1.1 1.7-2.7 1.7-4.3 0-3.6-2.9-6.5-6.5-6.5-3.5 0-6.4 2.9-6.4 6.5s2.9 6.4 6.4 6.4c1.2 0 2.3-.3 3.2-.9l2.7 2.7c.4.4 1 .4 1.4 0 .4-.4.4-1 0-1.4zm-7.3-2.4c-2.4 0-4.4-2-4.4-4.4s2-4.5 4.4-4.5c2.5 0 4.5 2 4.5 4.5s-2 4.4-4.5 4.4z"/></svg><svg width="18" height="18" viewBox="-298 388 18 18" id="search-1616-1-inline-#00a4ff" x="220" y="180"><path fill="#00a4ff" d="M-282.3 403.3l-2.5-2.5c1-1.1 1.7-2.7 1.7-4.3 0-3.6-2.9-6.5-6.5-6.5-3.5 0-6.4 2.9-6.4 6.5s2.9 6.4 6.4 6.4c1.2 0 2.3-.3 3.2-.9l2.7 2.7c.4.4 1 .4 1.4 0 .4-.4.4-1 0-1.4zm-7.3-2.4c-2.4 0-4.4-2-4.4-4.4s2-4.5 4.4-4.5c2.5 0 4.5 2 4.5 4.5s-2 4.4-4.5 4.4z"/></svg><svg width="18" height="18" viewBox="-298 388 18 18" id="search-1616-1-inline-#aaa" y="213"><path fill="#aaa" d="M-282.3 403.3l-2.5-2.5c1-1.1 1.7-2.7 1.7-4.3 0-3.6-2.9-6.5-6.5-6.5-3.5 0-6.4 2.9-6.4 6.5s2.9 6.4 6.4 6.4c1.2 0 2.3-.3 3.2-.9l2.7 2.7c.4.4 1 .4 1.4 0 .4-.4.4-1 0-1.4zm-7.3-2.4c-2.4 0-4.4-2-4.4-4.4s2-4.5 4.4-4.5c2.5 0 4.5 2 4.5 4.5s-2 4.4-4.5 4.4z"/></svg><svg width="18" height="18" viewBox="-298 388 18 18" id="search-1616-2-inline" x="18" y="213"><path fill="#00A4FF" d="M-282.3 403.3l-2.5-2.5c1-1.1 1.7-2.7 1.7-4.3 0-3.6-2.9-6.5-6.5-6.5-3.5 0-6.4 2.9-6.4 6.5s2.9 6.4 6.4 6.4c1.2 0 2.3-.3 3.2-.9l2.7 2.7c.4.4 1 .4 1.4 0 .4-.4.4-1 0-1.4zm-7.3-2.4c-2.4 0-4.4-2-4.4-4.4s2-4.5 4.4-4.5c2.5 0 4.5 2 4.5 4.5s-2 4.4-4.5 4.4z"/></svg><svg width="18" height="18" viewBox="-298 388 18 18" id="search-1616-3-inline" x="36" y="213"><path fill="#999" d="M-282.3 403.3l-2.5-2.5c1-1.1 1.7-2.7 1.7-4.3 0-3.6-2.9-6.5-6.5-6.5-3.5 0-6.4 2.9-6.4 6.5s2.9 6.4 6.4 6.4c1.2 0 2.3-.3 3.2-.9l2.7 2.7c.4.4 1 .4 1.4 0 .4-.4.4-1 0-1.4zm-7.3-2.4c-2.4 0-4.4-2-4.4-4.4s2-4.5 4.4-4.5c2.5 0 4.5 2 4.5 4.5s-2 4.4-4.5 4.4z"/></svg><svg width="20" height="20" viewBox="-1 -1 20 20" id="service" x="196" y="80"><title>Artboard</title><path d="M2 7h1c0-3.3 2.7-6 6-6s6 2.7 6 6h1c1.1 0 2 .9 2 2v2c0 1.1-.9 2-2 2h-1c0 2.2-1.8 4-4 4H7v-3h4v1c1.1 0 2-.9 2-2V7c0-2.2-1.8-4-4-4S5 4.8 5 7v6H2c-1.1 0-2-.9-2-2V9c0-1.1.9-2 2-2zm14 4V9h-1v2h1zM2 11h1V9H2v2z" fill="#666" fill-rule="nonzero"/></svg><svg id="shopping" width="20" height="20" viewBox="-1 -1 20 20" x="196" y="100"><style>.djst0{fill-rule:evenodd;clip-rule:evenodd;fill:#666}</style><path class="djst0" d="M0 18V0h18v18H0zM16 2H2v2h14V2zm0 4H2v10h14V6zm-7 5c1.7 0 3-1.3 3-3h2c0 2.8-2.2 5-5 5s-5-2.2-5-5h2c0 1.7 1.3 3 3 3z"/></svg><svg width="26" height="26" viewBox="-1 -1 26 26" id="sousuo" x="52" y="169"><linearGradient id="dka" gradientUnits="userSpaceOnUse" x1="5.13" y1="4.569" x2="21.377" y2="20.817"><stop offset="0" stop-color="#fff"/><stop offset="1" stop-color="#fff"/></linearGradient><path fill-rule="evenodd" clip-rule="evenodd" fill="url(#dka)" d="M21.5 20.6l-3.6-3.4c1.6-1.6 2.6-3.8 2.6-6.3 0-5-4-9-9-9s-9 4-9 9 4 9 9 9c1.8 0 3.5-.5 4.9-1.4l3.8 3.6 1.3-1.5zM11.4 18c-3.9 0-7-3.1-7-7s3.1-7 7-7 7 3.1 7 7c.1 3.9-3.1 7-7 7z"/></svg><svg width="34" height="34" viewBox="-1 -1 34 34" id="success" x="128" y="34"><defs><path id="dla" d="M0 0h32v32H0z"/></defs><g fill="none" fill-rule="evenodd"><mask id="dlb" fill="#fff"><use xlink:href="#dla"/></mask><path fill="#0ABF5B" d="M16 30C8.268 30 2 23.732 2 16S8.268 2 16 2s14 6.268 14 14-6.268 14-14 14m0-30C7.163 0 0 7.163 0 16c0 8.836 7.163 16 16 16s16-7.164 16-16c0-8.837-7.163-16-16-16" mask="url(#dlb)"/><path fill="#0ABF5B" d="M13.707 18.793L9.414 14.5 8 15.914l5.707 5.707 10.207-10.207L22.5 10z"/></g></svg><svg width="26" height="26" viewBox="-294 384 26 26" id="user-2424-1-inline" x="26" y="169"><path fill="#FFF" d="M-281 385c-6.6 0-12 5.4-12 12s5.4 12 12 12 12-5.4 12-12-5.4-12-12-12zm0 1.6c5.7 0 10.4 4.7 10.4 10.4 0 2.1-.6 4-1.7 5.6-1.1-2.4-3.2-4.3-5.7-5.1 1.1-.9 1.8-2.2 1.8-3.7 0-2.7-2.1-4.8-4.8-4.8s-4.8 2.1-4.8 4.8c0 1.5.7 2.8 1.8 3.7-2.5.8-4.6 2.7-5.7 5.1-1.1-1.6-1.7-3.5-1.7-5.6 0-5.7 4.7-10.4 10.4-10.4zm0 10.4c-1.8 0-3.2-1.4-3.2-3.2 0-1.8 1.4-3.2 3.2-3.2s3.2 1.4 3.2 3.2c0 1.8-1.4 3.2-3.2 3.2zm0 10.4c-3 0-5.7-1.3-7.6-3.3 1-3.2 4-5.5 7.6-5.5 3.5 0 6.5 2.3 7.6 5.5-1.9 2-4.6 3.3-7.6 3.3z"/></svg><svg width="26" height="26" viewBox="-294 384 26 26" id="user-2424-2-inline" x="130" y="169"><path fill="#00A4FF" d="M-281 385c-6.6 0-12 5.4-12 12s5.4 12 12 12 12-5.4 12-12-5.4-12-12-12zm0 1.6c5.7 0 10.4 4.7 10.4 10.4 0 2.1-.6 4-1.7 5.6-1.1-2.4-3.2-4.3-5.7-5.1 1.1-.9 1.8-2.2 1.8-3.7 0-2.7-2.1-4.8-4.8-4.8s-4.8 2.1-4.8 4.8c0 1.5.7 2.8 1.8 3.7-2.5.8-4.6 2.7-5.7 5.1-1.1-1.6-1.7-3.5-1.7-5.6 0-5.7 4.7-10.4 10.4-10.4zm0 10.4c-1.8 0-3.2-1.4-3.2-3.2 0-1.8 1.4-3.2 3.2-3.2s3.2 1.4 3.2 3.2c0 1.8-1.4 3.2-3.2 3.2zm0 10.4c-3 0-5.7-1.3-7.6-3.3 1-3.2 4-5.5 7.6-5.5 3.5 0 6.5 2.3 7.6 5.5-1.9 2-4.6 3.3-7.6 3.3z"/></svg><svg width="30" height="30" viewBox="-1 -1 30 30" id="user-black" x="162" y="68"><g fill="#2B303B" fill-rule="evenodd"><path fill-rule="nonzero" d="M19.726 1.22a5.017 5.017 0 0 0-1.248 1.643A11.967 11.967 0 0 0 14 2C7.373 2 2 7.373 2 14s5.373 12 12 12 12-5.373 12-12c0-1.583-.307-3.094-.863-4.478a5.017 5.017 0 0 0 1.642-1.248A13.95 13.95 0 0 1 28 14c0 7.732-6.268 14-14 14S0 21.732 0 14 6.268 0 14 0c2.04 0 3.978.436 5.726 1.22z"/><path fill-rule="nonzero" d="M14 26a11.96 11.96 0 0 0 8.4-3.43A9.996 9.996 0 0 0 14 18a9.996 9.996 0 0 0-8.4 4.57A11.96 11.96 0 0 0 14 26zm0-10c4.786 0 8.918 2.802 10.844 6.855A13.972 13.972 0 0 1 14 28a13.972 13.972 0 0 1-10.844-5.145A12.001 12.001 0 0 1 14 16z"/><circle cx="23" cy="5" r="3"/><path fill-rule="nonzero" d="M14 16a4 4 0 1 0 0-8 4 4 0 0 0 0 8zm0 2a6 6 0 1 1 0-12 6 6 0 0 1 0 12z"/></g></svg><svg width="30" height="30" viewBox="-1 -1 30 30" id="user-black-has-msg" x="90" y="139"><g fill="none" fill-rule="evenodd"><path fill="#2B303B" fill-rule="nonzero" d="M19.726 1.22a5.017 5.017 0 0 0-1.248 1.643A11.967 11.967 0 0 0 14 2C7.373 2 2 7.373 2 14s5.373 12 12 12 12-5.373 12-12c0-1.583-.307-3.094-.863-4.478a5.017 5.017 0 0 0 1.642-1.248A13.95 13.95 0 0 1 28 14c0 7.732-6.268 14-14 14S0 21.732 0 14 6.268 0 14 0c2.04 0 3.978.436 5.726 1.22z"/><path fill="#2B303B" fill-rule="nonzero" d="M14 26a11.96 11.96 0 0 0 8.4-3.43A9.996 9.996 0 0 0 14 18a9.996 9.996 0 0 0-8.4 4.57A11.96 11.96 0 0 0 14 26zm0-10c4.786 0 8.918 2.802 10.844 6.855A13.972 13.972 0 0 1 14 28a13.972 13.972 0 0 1-10.844-5.145A12.001 12.001 0 0 1 14 16z"/><circle cx="23" cy="5" r="3" fill="#00A4FF"/><path fill="#2B303B" fill-rule="nonzero" d="M14 16a4 4 0 1 0 0-8 4 4 0 0 0 0 8zm0 2a6 6 0 1 1 0-12 6 6 0 0 1 0 12z"/></g></svg><svg width="30" height="30" viewBox="-1 -1 30 30" id="user-icon" x="162" y="98"><g fill="#FFF" fill-rule="evenodd"><path fill-rule="nonzero" d="M19.726 1.22a5.017 5.017 0 0 0-1.248 1.643A11.967 11.967 0 0 0 14 2C7.373 2 2 7.373 2 14s5.373 12 12 12 12-5.373 12-12c0-1.583-.307-3.094-.863-4.478a5.017 5.017 0 0 0 1.642-1.248A13.95 13.95 0 0 1 28 14c0 7.732-6.268 14-14 14S0 21.732 0 14 6.268 0 14 0c2.04 0 3.978.436 5.726 1.22z"/><path fill-rule="nonzero" d="M14 26a11.96 11.96 0 0 0 8.4-3.43A9.996 9.996 0 0 0 14 18a9.996 9.996 0 0 0-8.4 4.57A11.96 11.96 0 0 0 14 26zm0-10c4.786 0 8.918 2.802 10.844 6.855A13.972 13.972 0 0 1 14 28a13.972 13.972 0 0 1-10.844-5.145A12.001 12.001 0 0 1 14 16z"/><circle cx="23" cy="5" r="3"/><path fill-rule="nonzero" d="M14 16a4 4 0 1 0 0-8 4 4 0 0 0 0 8zm0 2a6 6 0 1 1 0-12 6 6 0 0 1 0 12z"/></g></svg><svg width="30" height="30" viewBox="-1 -1 30 30" id="user-icon-active" y="139"><g fill="#00a4ff" fill-rule="evenodd"><path fill-rule="nonzero" d="M19.726 1.22a5.017 5.017 0 0 0-1.248 1.643A11.967 11.967 0 0 0 14 2C7.373 2 2 7.373 2 14s5.373 12 12 12 12-5.373 12-12c0-1.583-.307-3.094-.863-4.478a5.017 5.017 0 0 0 1.642-1.248A13.95 13.95 0 0 1 28 14c0 7.732-6.268 14-14 14S0 21.732 0 14 6.268 0 14 0c2.04 0 3.978.436 5.726 1.22z"/><path fill-rule="nonzero" d="M14 26a11.96 11.96 0 0 0 8.4-3.43A9.996 9.996 0 0 0 14 18a9.996 9.996 0 0 0-8.4 4.57A11.96 11.96 0 0 0 14 26zm0-10c4.786 0 8.918 2.802 10.844 6.855A13.972 13.972 0 0 1 14 28a13.972 13.972 0 0 1-10.844-5.145A12.001 12.001 0 0 1 14 16z"/><circle cx="23" cy="5" r="3"/><path fill-rule="nonzero" d="M14 16a4 4 0 1 0 0-8 4 4 0 0 0 0 8zm0 2a6 6 0 1 1 0-12 6 6 0 0 1 0 12z"/></g></svg><svg width="30" height="30" viewBox="-1 -1 30 30" id="user-icon-hasmsg" x="60" y="139"><g fill="none" fill-rule="evenodd"><path fill="#FFF" fill-rule="nonzero" d="M19.726 1.22a5.017 5.017 0 0 0-1.248 1.643A11.967 11.967 0 0 0 14 2C7.373 2 2 7.373 2 14s5.373 12 12 12 12-5.373 12-12c0-1.583-.307-3.094-.863-4.478a5.017 5.017 0 0 0 1.642-1.248A13.95 13.95 0 0 1 28 14c0 7.732-6.268 14-14 14S0 21.732 0 14 6.268 0 14 0c2.04 0 3.978.436 5.726 1.22z"/><path fill="#FFF" fill-rule="nonzero" d="M14 26a11.96 11.96 0 0 0 8.4-3.43A9.996 9.996 0 0 0 14 18a9.996 9.996 0 0 0-8.4 4.57A11.96 11.96 0 0 0 14 26zm0-10c4.786 0 8.918 2.802 10.844 6.855A13.972 13.972 0 0 1 14 28a13.972 13.972 0 0 1-10.844-5.145A12.001 12.001 0 0 1 14 16z"/><circle cx="23" cy="5" r="3" fill="#00A4FF"/><path fill="#FFF" fill-rule="nonzero" d="M14 16a4 4 0 1 0 0-8 4 4 0 0 0 0 8zm0 2a6 6 0 1 1 0-12 6 6 0 0 1 0 12z"/></g></svg><svg width="30" height="30" viewBox="-1 -1 30 30" id="user-icon-hasmsg-active" x="30" y="139"><g fill="none" fill-rule="evenodd"><path fill="#00a4ff" fill-rule="nonzero" d="M19.726 1.22a5.017 5.017 0 0 0-1.248 1.643A11.967 11.967 0 0 0 14 2C7.373 2 2 7.373 2 14s5.373 12 12 12 12-5.373 12-12c0-1.583-.307-3.094-.863-4.478a5.017 5.017 0 0 0 1.642-1.248A13.95 13.95 0 0 1 28 14c0 7.732-6.268 14-14 14S0 21.732 0 14 6.268 0 14 0c2.04 0 3.978.436 5.726 1.22z"/><path fill="#00a4ff" fill-rule="nonzero" d="M14 26a11.96 11.96 0 0 0 8.4-3.43A9.996 9.996 0 0 0 14 18a9.996 9.996 0 0 0-8.4 4.57A11.96 11.96 0 0 0 14 26zm0-10c4.786 0 8.918 2.802 10.844 6.855A13.972 13.972 0 0 1 14 28a13.972 13.972 0 0 1-10.844-5.145A12.001 12.001 0 0 1 14 16z"/><circle cx="23" cy="5" r="3" fill="#00A4FF"/><path fill="#00a4ff" fill-rule="nonzero" d="M14 16a4 4 0 1 0 0-8 4 4 0 0 0 0 8zm0 2a6 6 0 1 1 0-12 6 6 0 0 1 0 12z"/></g></svg><svg id="wechat" viewBox="-1 -1 18 18" width="18" height="18" x="54" y="213"><style>.dust0{fill-rule:evenodd;clip-rule:evenodd;fill:#fff}</style><g id="duXMLID_2_"><g id="duXMLID_50_"><path id="duXMLID_51_" class="dust0" d="M5.7 1C2.5 1 0 3.1 0 5.8c0 1.6.8 2.8 2.3 3.8l-.6 1.7 2-1c.7.1 1.3.3 2 .3h.5C6.1 10.2 6 9.4 6 9c0-1.8 1.7-3.8 4-4 .3 0 1.2-.1 1.4-.1-.5-2.2-3-3.9-5.7-3.9zm-2 3.9c-.4 0-.7-.4-.7-.8s.3-.7.7-.7c.4 0 .8.3.8.7 0 .4-.4.8-.8.8zm4 0c-.4 0-.8-.3-.8-.7 0-.4.3-.7.8-.7.4 0 .8.3.8.7-.1.3-.4.7-.8.7z"/></g></g><path id="duXMLID_19_" class="dust0" d="M12 12l2 2v-2h-2"/><path id="duXMLID_8_" class="dust0" d="M11.5 6C9 6 7 7.6 7 9.5S9 13 11.5 13 16 11.5 16 9.5C16 7.6 14 6 11.5 6zm-2 3c-.3 0-.5-.2-.5-.5s.2-.5.5-.5.5.2.5.5-.2.5-.5.5zm3 0c-.3 0-.5-.2-.5-.5s.2-.5.5-.5.5.2.5.5-.2.5-.5.5z"/></svg><svg id="weibo" viewBox="-1 -1 18 18" width="18" height="18" x="126" y="213"><style>.dvst0{fill:#fff}</style><g id="dvXMLID_2_"><g id="dvXMLID_83_"><path id="dvXMLID_84_" class="dvst0" d="M14.9 2.4c-1.1-1.2-2.6-1.6-4-1.3-.3.1-.5.4-.5.7.1.3.4.5.7.5 1-.2 2.1.1 2.9.9.7.8.9 2 .6 3-.1.3.1.7.4.8.3.1.7-.1.8-.4.4-1.4.2-3-.9-4.2zm-1.8 3.8c.3.1.6-.1.7-.3.2-.7.1-1.5-.4-2-.5-.6-1.3-.8-2-.6-.3.1-.5.3-.4.6.1.3.3.5.6.4.3-.1.7 0 1 .3.3.3.3.7.2 1-.2.2 0 .5.3.6zM12 7.3c-.2-.1-.5-.1-.3-.4.3-.6.4-1.2.1-1.6-.5-.7-1.9-.7-3.6 0 0 0-.5.2-.4-.2.3-.9.2-1.5-.2-1.9-.9-.9-3.2 0-5.2 2.1C.9 6.7 0 8.3 0 9.7 0 12.4 3.4 14 6.7 14c4.4 0 7.2-2.5 7.2-4.5.1-1.3-1-2-1.9-2.2zM6.7 13c-2.6.3-4.9-.9-5.1-2.7C1.4 8.6 3.5 7 6.1 6.7c2.6-.3 4.9.9 5.1 2.7.2 1.7-1.8 3.4-4.5 3.6zM7 8.1c-1.3-.4-2.7.3-3.2 1.4-.6 1.1 0 2.4 1.3 2.8 1.3.4 2.9-.2 3.4-1.5C9 9.6 8.3 8.4 7 8.1zM6 11c-.3.4-.8.6-1.2.4-.4-.2-.5-.7-.3-1.1.3-.4.8-.6 1.2-.4.4.2.6.7.3 1.1zm.9-1.1c-.1.2-.3.2-.5.2-.1-.1-.2-.3-.1-.4.1-.2.3-.2.4-.2.2 0 .3.2.2.4z"/></g></g></svg><svg width="13" height="9" viewBox="-1 -1 13 9" id="xiala" x="238" y="14"><path fill-rule="evenodd" clip-rule="evenodd" fill="#999" d="M10.5 1.4L9.8.6 5.5 4.9 1.2.6l-.7.8 4.3 4.2.7.8v-.1.1l.7-.8z"/></svg></svg>