<?xml version="1.0" encoding="UTF-8"?><svg width="44" height="44" viewBox="0 0 44 44" xmlns="http://www.w3.org/2000/svg" xmlns:xlink="http://www.w3.org/1999/xlink"><svg width="22" height="22" viewBox="-1 -1 22 22" id="user-icon-20"><title>无消息-1px描边</title><g fill="#fff" fill-rule="nonzero"><path d="M10 19a9 9 0 1 0 0-18 9 9 0 0 0 0 18zm0 1C4.477 20 0 15.523 0 10S4.477 0 10 0s10 4.477 10 10-4.477 10-10 10z"/><path d="M10 19a8.97 8.97 0 0 0 6.45-2.724 7.004 7.004 0 0 0-12.9 0A8.97 8.97 0 0 0 10 19zm0-8a8.003 8.003 0 0 1 7.601 5.498A9.978 9.978 0 0 1 10 20a9.978 9.978 0 0 1-7.601-3.502A8.003 8.003 0 0 1 10 11z"/><path d="M10 11a3 3 0 1 0 0-6 3 3 0 0 0 0 6zm0 1a4 4 0 1 1 0-8 4 4 0 0 1 0 8z"/></g></svg><svg width="22" height="22" viewBox="-1 -1 22 22" id="user-icon-20-active" x="22"><title>无消息-1px描边</title><g fill="#00A4FF" fill-rule="nonzero"><path d="M10 19a9 9 0 1 0 0-18 9 9 0 0 0 0 18zm0 1C4.477 20 0 15.523 0 10S4.477 0 10 0s10 4.477 10 10-4.477 10-10 10z"/><path d="M10 19a8.97 8.97 0 0 0 6.45-2.724 7.004 7.004 0 0 0-12.9 0A8.97 8.97 0 0 0 10 19zm0-8a8.003 8.003 0 0 1 7.601 5.498A9.978 9.978 0 0 1 10 20a9.978 9.978 0 0 1-7.601-3.502A8.003 8.003 0 0 1 10 11z"/><path d="M10 11a3 3 0 1 0 0-6 3 3 0 0 0 0 6zm0 1a4 4 0 1 1 0-8 4 4 0 0 1 0 8z"/></g></svg><svg width="22" height="22" viewBox="-1 -1 22 22" id="user-icon-20-hasmsg" y="22"><title>1px描边</title><g fill="#fff" fill-rule="evenodd"><path d="M17.98 5.836c.321-.11.617-.275.878-.48A9.957 9.957 0 0 1 20 10c0 5.523-4.477 10-10 10S0 15.523 0 10 4.477 0 10 0c1.677 0 3.257.413 4.645 1.142-.206.26-.37.557-.481.877a9 9 0 1 0 3.817 3.817z" fill-rule="nonzero"/><path d="M10 19a8.97 8.97 0 0 0 6.45-2.724 7.004 7.004 0 0 0-12.9 0A8.97 8.97 0 0 0 10 19zm0-8a8.003 8.003 0 0 1 7.601 5.498A9.978 9.978 0 0 1 10 20a9.978 9.978 0 0 1-7.601-3.502A8.003 8.003 0 0 1 10 11z" fill-rule="nonzero"/><path d="M10 11a3 3 0 1 0 0-6 3 3 0 0 0 0 6zm0 1a4 4 0 1 1 0-8 4 4 0 0 1 0 8z" fill-rule="nonzero"/><circle cx="17" cy="3" r="2"/></g></svg><svg width="22" height="22" viewBox="-1 -1 22 22" id="user-icon-20-hasmsg-active" x="22" y="22"><title>1px描边</title><g fill="#00A4FF" fill-rule="evenodd"><path d="M17.98 5.836c.321-.11.617-.275.878-.48A9.957 9.957 0 0 1 20 10c0 5.523-4.477 10-10 10S0 15.523 0 10 4.477 0 10 0c1.677 0 3.257.413 4.645 1.142-.206.26-.37.557-.481.877a9 9 0 1 0 3.817 3.817z" fill-rule="nonzero"/><path d="M10 19a8.97 8.97 0 0 0 6.45-2.724 7.004 7.004 0 0 0-12.9 0A8.97 8.97 0 0 0 10 19zm0-8a8.003 8.003 0 0 1 7.601 5.498A9.978 9.978 0 0 1 10 20a9.978 9.978 0 0 1-7.601-3.502A8.003 8.003 0 0 1 10 11z" fill-rule="nonzero"/><path d="M10 11a3 3 0 1 0 0-6 3 3 0 0 0 0 6zm0 1a4 4 0 1 1 0-8 4 4 0 0 1 0 8z" fill-rule="nonzero"/><circle cx="17" cy="3" r="2"/></g></svg></svg>