<?xml version="1.0" encoding="UTF-8"?><svg width="27" height="26" viewBox="0 0 27 26" xmlns="http://www.w3.org/2000/svg" xmlns:xlink="http://www.w3.org/1999/xlink"><svg width="9" height="13" viewBox="-1 -1 9 13" id="c-nav-more-active"><title>蓝色切换</title><path d="M4.2 5.5L0 1.376 1.4 0 7 5.5 5.6 6.876 1.4 11 0 9.624z" fill="#00a4ff" fill-rule="nonzero"/></svg><svg width="9" height="13" viewBox="-1 -1 9 13" id="c-nav-more-black" x="9"><title>蓝色切换</title><path d="M4.2 5.5L0 1.376 1.4 0 7 5.5 5.6 6.876 1.4 11 0 9.624z" fill="#000" fill-rule="nonzero"/></svg><svg width="9" height="13" viewBox="-1 -1 9 13" id="c-nav-more-black-collapsed" x="18"><title>蓝色切换</title><path d="M2.8 5.5L7 1.376 5.6 0 0 5.5l1.4 1.376L5.6 11 7 9.624z" fill="#000" fill-rule="nonzero"/></svg><svg width="9" height="13" viewBox="-1 -1 9 13" id="c-nav-more-white" y="13"><title>蓝色切换</title><path d="M4.2 5.5L0 1.376 1.4 0 7 5.5 5.6 6.876 1.4 11 0 9.624z" fill="#fff" fill-rule="nonzero"/></svg><svg width="9" height="13" viewBox="-1 -1 9 13" id="c-nav-more-white-collapsed" x="9" y="13"><title>蓝色切换</title><path d="M2.8 5.5L7 1.376 5.6 0 0 5.5l1.4 1.376L5.6 11 7 9.624z" fill="#fff" fill-rule="nonzero"/></svg><svg width="9" height="13" viewBox="-1 -1 9 13" id="c-nav-more-white-collapsed-active" x="18" y="13"><title>蓝色切换</title><path d="M2.8 5.5L7 1.376 5.6 0 0 5.5l1.4 1.376L5.6 11 7 9.624z" fill="#00a4ff" fill-rule="nonzero"/></svg></svg>