<?xml version="1.0" encoding="utf-8"?><svg width="18" height="18" viewBox="0 0 18 18" xmlns="http://www.w3.org/2000/svg" xmlns:xlink="http://www.w3.org/1999/xlink"><svg width="18" height="18" viewBox="-1 -1 18 18" id="search-1616-1-#999"><style>.aast0{fill-rule:evenodd;clip-rule:evenodd;fill:#999}</style><path class="aast0" d="M14.7 14.3l-2.5-2.5c1-1.1 1.7-2.7 1.7-4.3C13.9 3.9 11 1 7.4 1 3.9 1 1 3.9 1 7.5s2.9 6.4 6.4 6.4c1.2 0 2.3-.3 3.2-.9l2.7 2.7c.4.4 1 .4 1.4 0 .4-.4.4-1 0-1.4zm-7.3-2.4C5 11.9 3 9.9 3 7.5S5 3 7.4 3c2.5 0 4.5 2 4.5 4.5s-2 4.4-4.5 4.4z"/></svg></svg>