<?xml version="1.0" encoding="UTF-8"?><svg width="28" height="14" viewBox="0 0 28 14" xmlns="http://www.w3.org/2000/svg" xmlns:xlink="http://www.w3.org/1999/xlink"><svg width="14" height="14" viewBox="-1 -1 14 14" id="link-chain-blue"><title>编组</title><g fill="none" fill-rule="evenodd"><path d="M0 0h12v12H0z"/><path fill="#00A4FF" d="M.75.75h1.5v10.5H.75zM9.75 7.5h1.5v3.75h-1.5z"/><path fill="#00A4FF" d="M10.5 9.75v1.5H.75v-1.5zM9.712 1.227l1.061 1.06-5.834 5.834-1.06-1.06zM4.5.75v1.5H.75V.75z"/><path fill="#00A4FF" d="M6.75.75v1.5h4.5V.75z"/><path fill="#00A4FF" d="M11.25.75h-1.5v4.5h1.5z"/></g></svg><svg width="14" height="14" viewBox="-1 -1 14 14" id="link-chain-white" x="14"><title>编组</title><g fill="none" fill-rule="evenodd"><path d="M0 0h12v12H0z"/><path fill="#FFF" d="M.75.75h1.5v10.5H.75zM9.75 7.5h1.5v3.75h-1.5z"/><path fill="#FFF" d="M10.5 9.75v1.5H.75v-1.5zM9.712 1.227l1.061 1.06-5.834 5.834-1.06-1.06zM4.5.75v1.5H.75V.75z"/><path fill="#FFF" d="M6.75.75v1.5h4.5V.75z"/><path fill="#FFF" d="M11.25.75h-1.5v4.5h1.5z"/></g></svg></svg>