<?xml version="1.0" encoding="utf-8"?><!DOCTYPE svg PUBLIC "-//W3C//DTD SVG 1.1//EN" "http://www.w3.org/Graphics/SVG/1.1/DTD/svg11.dtd"><svg width="26" height="26" viewBox="0 0 26 26" xmlns="http://www.w3.org/2000/svg" xmlns:xlink="http://www.w3.org/1999/xlink"><svg width="26" height="26" viewBox="-1 -1 26 26" id="sousuo-h"><path fill-rule="evenodd" clip-rule="evenodd" fill="#666" d="M21.5 20.6l-3.6-3.4c1.6-1.6 2.6-3.8 2.6-6.3 0-5-4-9-9-9s-9 4-9 9 4 9 9 9c1.8 0 3.5-.5 4.9-1.4l3.8 3.6 1.3-1.5zM11.4 18c-3.9 0-7-3.1-7-7s3.1-7 7-7 7 3.1 7 7c.1 3.9-3.1 7-7 7z"/></svg></svg>