<?xml version="1.0" encoding="UTF-8"?><svg width="52" height="44" viewBox="0 0 52 44" xmlns="http://www.w3.org/2000/svg" xmlns:xlink="http://www.w3.org/1999/xlink"><svg width="18" height="18" viewBox="-1 -1 18 18" id="c-nav-icon-close-m" y="26"><title>c-nav-icon-close-m</title><path d="M14.097 0L8 6.097 1.901 0 0 1.903 6.099 8 0 14.1 1.901 16 8 9.903 14.097 16 16 14.099 9.901 8 16 1.903z" fill="#FFF" fill-rule="nonzero"/></svg><svg width="26" height="26" viewBox="-1 -1 26 26" id="icon-user-24"><title>user-2424-1-inline</title><path d="M12 0C5.4 0 0 5.4 0 12s5.4 12 12 12 12-5.4 12-12S18.6 0 12 0zm0 1.6c5.7 0 10.4 4.7 10.4 10.4 0 2.1-.6 4-1.7 5.6-1.1-2.4-3.2-4.3-5.7-5.1 1.1-.9 1.8-2.2 1.8-3.7C16.8 6.1 14.7 4 12 4 9.3 4 7.2 6.1 7.2 8.8c0 1.5.7 2.8 1.8 3.7-2.5.8-4.6 2.7-5.7 5.1C2.2 16 1.6 14.1 1.6 12 1.6 6.3 6.3 1.6 12 1.6zM12 12c-1.8 0-3.2-1.4-3.2-3.2 0-1.8 1.4-3.2 3.2-3.2 1.8 0 3.2 1.4 3.2 3.2 0 1.8-1.4 3.2-3.2 3.2zm0 10.4c-3 0-5.7-1.3-7.6-3.3 1-3.2 4-5.5 7.6-5.5 3.5 0 6.5 2.3 7.6 5.5-1.9 2-4.6 3.3-7.6 3.3z" fill="#FFF" fill-rule="nonzero"/></svg><svg width="26" height="26" viewBox="-294 384 26 26" id="icon-user-24-msg" x="26"><path fill="#FFF" d="M-271.1 393.9c.3 1 .5 2 .5 3.1 0 2.1-.6 4-1.7 5.6-1.1-2.4-3.2-4.3-5.7-5.1 1.1-.9 1.8-2.2 1.8-3.7 0-2.7-2.1-4.8-4.8-4.8s-4.8 2.1-4.8 4.8c0 1.5.7 2.8 1.8 3.7-2.5.8-4.6 2.7-5.7 5.1-1.1-1.6-1.7-3.5-1.7-5.6 0-5.7 4.7-10.4 10.4-10.4 1.5 0 3 .3 4.3.9.2-.5.4-1 .7-1.4-1.6-.7-3.2-1.1-5-1.1-6.6 0-12 5.4-12 12s5.4 12 12 12 12-5.4 12-12c0-1.3-.2-2.5-.6-3.7-.4.3-.9.5-1.5.6zm-13.1-.1c0-1.8 1.4-3.2 3.2-3.2s3.2 1.4 3.2 3.2c0 1.8-1.4 3.2-3.2 3.2s-3.2-1.4-3.2-3.2zm3.2 13.6c-3 0-5.7-1.3-7.6-3.3 1-3.2 4-5.5 7.6-5.5 3.5 0 6.5 2.3 7.6 5.5-1.9 2-4.6 3.3-7.6 3.3z"/><path fill="#00A4FF" d="M-272 386c1.7 0 3 1.3 3 3s-1.3 3-3 3-3-1.3-3-3 1.3-3 3-3z"/></svg></svg>