<?xml version="1.0" encoding="utf-8"?><svg width="54" height="36" viewBox="0 0 54 36" xmlns="http://www.w3.org/2000/svg" xmlns:xlink="http://www.w3.org/1999/xlink"><svg id="csdn-hover" viewBox="-1 -1 18 18" width="18" height="18"><style>.aast0{fill-rule:evenodd;clip-rule:evenodd;fill:#d3323f}</style><path id="aaXMLID_2_" class="aast0" d="M15 1.8l-1 3s-8.5-1.9-9.1 3c-.1 1.3.6 4.5 8.1 3-.3 1.4-1 3-1 3S4.2 15 1.8 11.1c-2.4-4 1.1-7.2 3.4-8.2 2-.9 4.9-1.7 9.8-1.1z"/></svg><svg id="facebook-hover" viewBox="-1 -1 18 18" width="18" height="18" x="18"><style>.abst0,.abst1{fill-rule:evenodd;clip-rule:evenodd;fill:#3c5a9a}.abst1{fill:#fff}</style><path id="abXMLID_2_" class="abst0" d="M3 2h10c.6 0 1 .4 1 1v10c0 .6-.4 1-1 1H3c-.6 0-1-.4-1-1V3c0-.6.4-1 1-1z"/><path id="abXMLID_4_" class="abst1" d="M12 4v2h-1c-.3 0-1 0-1 .2V7h2l-.8 2H10v5H8V9H7V7h1V6c0-.5.1-2 2-2h2z"/></svg><svg id="github-hover" viewBox="-1 -1 18 18" width="18" height="18" y="18"><style>.acst0{fill:#909ea5}</style><path id="acXMLID_1_" class="acst0" d="M8 1.2c-3.9 0-7 3.1-7 7 0 3.1 2 5.7 4.8 6.6.4.1.5-.1.5-.3v-1.3c-1.8.3-2.2-.4-2.4-.8-.1-.2-.4-.8-.7-1-.2-.1-.6-.5 0-.5s.9.5 1.1.7c.6 1.1 1.6.8 2 .6.1-.5.2-.8.4-.9-1.6-.2-3.2-.8-3.2-3.5 0-.8.3-1.4.7-1.9 0-.2-.2-.9.1-1.8 0 0 .6-.2 1.9.7.6-.2 1.2-.2 1.8-.2s1.2.1 1.8.2c1.3-.9 1.9-.7 1.9-.7.4 1 .1 1.7.1 1.9.4.5.7 1.1.7 1.9 0 2.7-1.6 3.3-3.2 3.5.3.2.5.6.5 1.3v1.9c0 .2.1.4.5.3 2.8-1 4.8-3.6 4.8-6.6-.1-4-3.2-7.1-7.1-7.1z"/></svg><svg id="linkedin-hover" viewBox="-1 -1 18 18" width="18" height="18" x="18" y="18"><style>.adst0,.adst1{fill-rule:evenodd;clip-rule:evenodd;fill:#2b97d4}.adst1{fill:#fff}</style><path id="adXMLID_2_" class="adst0" d="M3 2h10c.6 0 1 .4 1 1v10c0 .6-.4 1-1 1H3c-.6 0-1-.4-1-1V3c0-.6.4-1 1-1z"/><g id="adXMLID_4_"><g id="adXMLID_49_"><path id="adXMLID_50_" class="adst1" d="M4 12h2V7H4v5zm6-5L9 8V7H7v5h2V9h1v3h2V7h-2zM5 4c-.6 0-1 .4-1 1s.4 1 1 1 1-.4 1-1-.4-1-1-1z"/></g></g></svg><svg id="wechat-hover" viewBox="-1 -1 18 18" width="18" height="18" x="36"><style>.aest0,.aest1{fill-rule:evenodd;clip-rule:evenodd;fill:#83d944}.aest1{fill:#eff1f2}</style><g id="aeXMLID_2_"><g id="aeXMLID_50_"><path id="aeXMLID_51_" class="aest0" d="M5.7 1C2.5 1 0 3.1 0 5.8c0 1.6.8 2.8 2.3 3.8l-.6 1.7 2-1c.7.1 1.3.3 2 .3h.5C6.1 10.2 6 9.4 6 9c0-1.8 1.7-3.8 4-4 .3 0 1.2-.1 1.4-.1-.5-2.2-3-3.9-5.7-3.9zm-2 3.9c-.4 0-.7-.4-.7-.8s.3-.7.7-.7c.4 0 .8.3.8.7 0 .4-.4.8-.8.8zm4 0c-.4 0-.8-.3-.8-.7 0-.4.3-.7.8-.7.4 0 .8.3.8.7-.1.3-.4.7-.8.7z"/></g></g><path id="aeXMLID_19_" class="aest1" d="M12 12l2 2v-2h-2"/><path id="aeXMLID_8_" class="aest1" d="M11.5 6C9 6 7 7.6 7 9.5S9 13 11.5 13 16 11.5 16 9.5C16 7.6 14 6 11.5 6zm-2 3c-.3 0-.5-.2-.5-.5s.2-.5.5-.5.5.2.5.5-.2.5-.5.5zm3 0c-.3 0-.5-.2-.5-.5s.2-.5.5-.5.5.2.5.5-.2.5-.5.5z"/></svg><svg id="weibo-hover" viewBox="-1 -1 18 18" width="18" height="18" x="36" y="18"><style>.afst0{fill:#fff}.afst1{fill:#e6142d}.afst2{fill:#fe9833}</style><ellipse id="afXMLID_3_" transform="rotate(84.367 6.41 9.882) scale(1.00003)" class="afst0" cx="6.4" cy="9.9" rx="3.2" ry="4.8"/><g id="afXMLID_2_"><g id="afXMLID_40_"><path id="afXMLID_41_" class="afst1" d="M12 7.3c-.2-.1-.5-.1-.3-.4.3-.6.4-1.2.1-1.6-.5-.7-1.9-.7-3.6 0 0 0-.5.2-.4-.2.3-.9.2-1.5-.2-1.9-.9-.9-3.2 0-5.2 2.1C.9 6.7 0 8.3 0 9.7 0 12.4 3.4 14 6.7 14c4.4 0 7.2-2.5 7.2-4.5.1-1.3-1-2-1.9-2.2zM6.7 13c-2.6.3-4.9-.9-5.1-2.7C1.4 8.6 3.5 7 6.1 6.7c2.6-.3 4.9.9 5.1 2.7.2 1.7-1.8 3.4-4.5 3.6z"/></g></g><path id="afXMLID_16_" d="M7 8.1c-1.3-.4-2.7.3-3.2 1.4-.6 1.1 0 2.4 1.3 2.8 1.3.4 2.9-.2 3.4-1.5C9 9.6 8.3 8.4 7 8.1zM6 11c-.3.4-.8.6-1.2.4-.4-.2-.5-.7-.3-1.1.3-.4.8-.6 1.2-.4.4.2.6.7.3 1.1zm.9-1.1c-.1.2-.3.2-.5.2-.1-.1-.2-.3-.1-.4.1-.2.3-.2.4-.2.2 0 .3.2.2.4z"/><path id="afXMLID_25_" class="afst2" d="M14.9 2.4c-1.1-1.2-2.6-1.6-4-1.3-.3.1-.5.4-.5.7.1.3.4.5.7.5 1-.2 2.1.1 2.9.9.7.8.9 2 .6 3-.1.3.1.7.4.8.3.1.7-.1.8-.4.4-1.4.2-3-.9-4.2z"/><path id="afXMLID_23_" class="afst2" d="M13.1 6.2c.3.1.6-.1.7-.3.2-.7.1-1.5-.4-2-.5-.6-1.3-.8-2-.6-.3.1-.5.3-.4.6.1.3.3.5.6.4.3-.1.7 0 1 .3.3.3.3.7.2 1-.2.2 0 .5.3.6z"/></svg></svg>