<?xml version="1.0" encoding="utf-8"?><svg width="94" height="45" viewBox="0 0 94 45" xmlns="http://www.w3.org/2000/svg" xmlns:xlink="http://www.w3.org/1999/xlink"><svg width="94" height="27" viewBox="-260 383 94 27" id="logo-9225-inline"><g fill="#FFF"><path d="M-186.2 388.6h-10v1.4h3v5.3h-3.5v1.5h3.5v8.9h1.6v-8.9h3.8v8.7h3V404h-1.4v-15.4zm-5.4 6.7V390h3.8v5.3h-3.8zM-214 401.6h7.9v1.5h-7.9zM-219.4 398.9c0 2.6-.2 4.6-.7 6.4 0 .2 0 .2.1.2h1.5c.5-2.4.5-4.5.6-5.9h2v4.5h-1.4c-.1 0-.1 0-.1.1l.4 1.3h2.6v-16.9h-4.9l-.1 10.3zm1.5-.6v-3.5h2v3.5h-2zm2-8.2v3.4h-2v-3.4h2z"/><path d="M-205.5 394.5h1.9v-1.3h-5.7c.2-.4.3-.9.5-1.4h4.9v-1.3h-1.4c.2-.8.5-1.8.5-1.8 0-.1 0-.1-.1-.1h-1.2l-.6 1.9h-1.7c.1-.7.2-1.6.4-2.5 0-.1 0-.1-.1-.1h-1.4c-.1 1-.3 1.9-.5 2.7h-.9l-.6-1.9h-1.2c-.1 0-.1 0-.1.1s.3 1 .5 1.8h-1.4v1.3h3.2c-.1.4-.3.9-.5 1.4h-3v1.3h2.3c-.9 1.3-1.9 1.9-2.3 2.2v1.5c0 .1.1.2.3 0 .4-.2.9-.5 1.4-.9h5.3v2h-4.3l.1-1.2c0-.1 0-.1-.1-.1h-1.4l-.1 2.5c0 .1 0 .1.1.1h7.4v3.5h-3.3c-.1 0-.1 0-.1.1l.4 1.3h4.6v-6.3h-1.8l.1-2.5c.7.6 1.4 1.1 2 1.4.2.1.3.1.3 0v-1.5c-.5-.3-1.5-.9-2.4-2.2zm-1.8 0c.3.6.7 1.1 1.1 1.5h-4.8c.4-.4.7-.9 1.1-1.5h2.6zM-195.2 400.6s-1.4 1-2.7 2v-9.4h-3.7v1.6h2.1v9c-.5.4-.9.6-.9.6l.9 1.2 4.4-3.3v-1.6c.1-.1 0-.2-.1-.1zM-199.3 391.7h1.7c.1 0 .1-.1.1-.1l-2.2-3.4h-1.7l-.1.1c.1.1 2.2 3.4 2.2 3.4zM-181.4 389h12.6v1.6h-12.6zM-176.8 396.6h9.8V395h-16.2v1.6h4.5c-.9 2.4-3.2 8.5-3.3 8.6 0 .1 0 .1.1.1h13.9c.1 0 .1-.1.1-.1l-2.1-5.5h-1.7c-.1 0-.1.1-.1.1 0 .1 1.5 3.9 1.5 3.9h-9.2l2.7-7.1z"/></g><g fill="#FFF"><path d="M-229.6 404.6c-.6.6-1.7 1.3-3.5 1.3h-11.7c3.5-3.4 6.5-6.3 6.8-6.6.3-.3 1-1 1.6-1.5 1.3-1.2 2.5-1.4 3.4-1.4 1.3 0 2.5.6 3.4 1.4 1.9 1.9 1.9 4.9 0 6.8m2.3-9c-1.4-1.5-3.4-2.4-5.6-2.4-1.9 0-3.5.7-5 1.8-.6.5-1.3 1.1-2.1 1.9-.5.5-12.3 12-12.3 12 .6.1 1.4.1 2.2.1h14.9c1.1 0 1.9 0 2.7-.1 1.8-.1 3.6-.8 5-2.2 3.2-3 3.2-8 .2-11.1z"/><path d="M-246.5 394.9c-1.4-1-3-1.6-4.7-1.6-2.2 0-4.2.9-5.6 2.4-3 3.1-3 8.1.1 11.2 1.3 1.2 2.8 1.9 4.4 2.1l3.1-3h-1.8c-1.8-.1-2.9-.7-3.5-1.3a4.86 4.86 0 0 1-.1-6.8c.9-.9 2.1-1.4 3.4-1.4.8 0 2 .2 3.3 1.3.6.5 2 1.7 2.6 2.2h.1l2.1-2.1v-.1c-1.1-1-2.5-2.3-3.4-2.9"/><path d="M-232.1 391.5c-1.5-4.1-5.4-7-10-7-5.3 0-9.6 3.9-10.4 8.9.4-.1.8-.2 1.3-.2.6 0 1.2.1 1.8.2.7-3.4 3.7-5.9 7.3-5.9 3 0 5.6 1.8 6.8 4.4 0 0 .1.1.1 0 .9-.2 2-.4 3.1-.4 0 .1 0 0 0 0"/></g></svg><svg id="search-1616-1" viewBox="-1 -1 18 18" width="18" height="18" y="27"><style>.abst0{fill-rule:evenodd;clip-rule:evenodd;fill:#fff}</style><g id="abXMLID_2_"><g id="abXMLID_36_"><path id="abXMLID_37_" class="abst0" d="M14.7 14.3l-2.5-2.5c1-1.1 1.7-2.7 1.7-4.3C13.9 3.9 11 1 7.4 1 3.9 1 1 3.9 1 7.5s2.9 6.4 6.4 6.4c1.2 0 2.3-.3 3.2-.9l2.7 2.7c.4.4 1 .4 1.4 0 .4-.4.4-1 0-1.4zm-7.3-2.4C5 11.9 3 9.9 3 7.5S5 3 7.4 3c2.5 0 4.5 2 4.5 4.5s-2 4.4-4.5 4.4z"/></g></g></svg><svg width="18" height="18" viewBox="-1 -1 18 18" id="search-1616-1-#999" x="18" y="27"><style>.acst0{fill-rule:evenodd;clip-rule:evenodd;fill:#999}</style><path class="acst0" d="M14.7 14.3l-2.5-2.5c1-1.1 1.7-2.7 1.7-4.3C13.9 3.9 11 1 7.4 1 3.9 1 1 3.9 1 7.5s2.9 6.4 6.4 6.4c1.2 0 2.3-.3 3.2-.9l2.7 2.7c.4.4 1 .4 1.4 0 .4-.4.4-1 0-1.4zm-7.3-2.4C5 11.9 3 9.9 3 7.5S5 3 7.4 3c2.5 0 4.5 2 4.5 4.5s-2 4.4-4.5 4.4z"/></svg></svg>