<?xml version="1.0" encoding="UTF-8"?>
<svg width="85px" height="18px" viewBox="0 0 85 18" version="1.1" xmlns="http://www.w3.org/2000/svg" xmlns:xlink="http://www.w3.org/1999/xlink">
    <!-- Generator: Sketch 64 (93537) - https://sketch.com -->
    <title>label/移动端企业用户专享</title>
    <desc>Created with Sketch.</desc>
    <g id="label/移动端企业用户专享" stroke="none" stroke-width="1" fill="none" fill-rule="evenodd">
        <path d="M84.5,0.5 L3.49994436,0.5 L3.49933627,5.96408467 L0.46441158,8.99994549 L3.49933627,12.0348702 L3.49994437,17.5 L84.5,17.5 L84.5,0.5 Z" id="形状结合" stroke="#47C4FF" fill="#F4FCFF" fill-rule="nonzero"></path>
        <path d="M8.852,8.032 C10.988,6.904 12.704,5.56 14,4 C15.416,5.656 17.108,7 19.1,8.02 L19.568,7.192 C17.588,6.232 15.836,4.912 14.312,3.232 L13.688,3.232 C12.272,4.816 10.508,6.148 8.396,7.204 L8.852,8.032 Z M18.92,13.72 L18.92,12.88 L14.78,12.88 L14.78,9.928 L18.056,9.928 L18.056,9.1 L14.78,9.1 L14.78,6.4 L13.904,6.4 L13.904,12.88 L11.6,12.88 L11.6,8.128 L10.748,8.128 L10.748,12.88 L8.936,12.88 L8.936,13.72 L18.92,13.72 Z M31.316,13.696 L31.316,12.856 L27.716,12.856 L27.716,3.316 L26.84,3.316 L26.84,12.856 L25.136,12.856 L25.136,3.316 L24.26,3.316 L24.26,12.856 L20.684,12.856 L20.684,13.696 L31.316,13.696 Z M22.604,11.26 L23.396,11.056 C22.904,8.956 22.34,7.096 21.716,5.476 L20.984,5.716 C21.632,7.492 22.172,9.34 22.604,11.26 Z M29.18,11.2 C29.912,9.628 30.512,7.804 30.992,5.716 L30.224,5.5 C29.708,7.696 29.096,9.508 28.4,10.924 L29.18,11.2 Z M33.164,14.092 C33.932,13.084 34.376,11.812 34.508,10.276 L37.604,10.276 L37.604,13.792 L38.492,13.792 L38.492,10.276 L41.756,10.276 L41.756,12.364 C41.756,12.868 41.528,13.12 41.096,13.12 C40.688,13.12 40.244,13.096 39.764,13.072 L39.992,13.924 L41.372,13.924 C42.212,13.924 42.632,13.504 42.632,12.664 L42.632,3.676 L33.692,3.676 L33.692,9.436 C33.668,11.08 33.272,12.436 32.504,13.504 L33.164,14.092 Z M41.756,6.58 L38.492,6.58 L38.492,4.516 L41.756,4.516 L41.756,6.58 Z M37.604,6.58 L34.556,6.58 L34.556,4.516 L37.604,4.516 L37.604,6.58 Z M37.604,9.484 L34.556,9.484 L34.556,7.384 L37.604,7.384 L37.604,9.484 Z M41.756,9.484 L38.492,9.484 L38.492,7.384 L41.756,7.384 L41.756,9.484 Z M45.032,14.248 C46.112,12.7 46.676,10.852 46.736,8.704 L54.464,8.704 L54.464,4.672 L50.672,4.672 C50.456,4.096 50.24,3.58 50.024,3.124 L49.1,3.268 C49.352,3.7 49.58,4.168 49.796,4.672 L45.884,4.672 L45.884,8.428 C45.86,10.576 45.368,12.328 44.396,13.672 L45.032,14.248 Z M53.588,7.864 L46.736,7.864 L46.736,5.524 L53.588,5.524 L53.588,7.864 Z M64.82,14.332 L65.3,13.576 C64.64,13.264 63.944,12.964 63.224,12.7 C64.46,11.812 65.36,10.912 65.936,10.024 L65.936,9.28 L60.224,9.28 C60.392,8.788 60.572,8.26 60.74,7.696 L67.388,7.696 L67.388,6.856 L60.968,6.856 C61.088,6.388 61.208,5.896 61.328,5.368 L66.68,5.368 L66.68,4.564 L61.508,4.564 C61.604,4.132 61.688,3.664 61.784,3.184 L60.896,3.112 C60.8,3.592 60.704,4.072 60.596,4.564 L57.428,4.564 L57.428,5.368 L60.416,5.368 C60.296,5.872 60.176,6.364 60.044,6.856 L56.612,6.856 L56.612,7.696 L59.804,7.696 C59.552,8.524 59.276,9.316 58.988,10.084 L64.916,10.084 C64.28,10.876 63.404,11.644 62.3,12.364 C61.472,12.076 60.608,11.8 59.708,11.56 L59.252,12.232 C61.16,12.748 63.02,13.444 64.82,14.332 Z M79.208,5.02 L79.208,4.204 L74.408,4.204 C74.24,3.82 74.06,3.484 73.868,3.172 L72.884,3.328 C73.088,3.592 73.28,3.892 73.46,4.204 L68.792,4.204 L68.792,5.02 L79.208,5.02 Z M77.6,8.164 L77.6,5.74 L70.412,5.74 L70.412,8.164 L77.6,8.164 Z M76.772,7.42 L71.24,7.42 L71.24,6.484 L76.772,6.484 L76.772,7.42 Z M73.568,14.2 C74.276,14.2 74.636,13.828 74.636,13.108 L74.636,11.992 L79.472,11.992 L79.472,11.2 L74.636,11.2 L74.636,10.972 C75.944,10.468 77.108,9.988 78.116,9.52 L78.116,8.896 L69.692,8.896 L69.692,9.676 L76.412,9.676 C75.404,10.096 74.528,10.444 73.784,10.732 L73.784,11.2 L68.528,11.2 L68.528,11.992 L73.784,11.992 L73.784,12.856 C73.784,13.264 73.592,13.468 73.232,13.468 C72.848,13.468 72.32,13.444 71.648,13.408 L71.876,14.2 L73.568,14.2 Z" id="企业用户专享" fill="#00A4FF" fill-rule="nonzero"></path>
    </g>
</svg>