<?xml version="1.0" encoding="UTF-8"?>
<svg width="84px" height="18px" viewBox="0 0 84 18" version="1.1" xmlns="http://www.w3.org/2000/svg" xmlns:xlink="http://www.w3.org/1999/xlink">
    <title>mdpi/产品首单特惠</title>
    <g id="运营组件规范及样式" stroke="none" stroke-width="1" fill="none" fill-rule="evenodd">
        <g id="运营组件-气泡&amp;标签" transform="translate(-1444.000000, -689.000000)">
            <g id="新用户专享-copy" transform="translate(1444.000000, 689.000000)">
                <g id="产品首单特惠" transform="translate(0.000000, 0.000000)">
                    <path d="M80.0054168,0.5 C80.9700544,0.5 81.8433533,0.891655792 82.4756668,1.52400094 C83.1084589,2.15682481 83.5,3.0307567 83.5,3.9947834 L83.5,3.9947834 L83.5,14.0052166 C83.5,14.9708837 83.1096809,15.8451585 82.4771462,16.4777249 C81.8454068,17.109496 80.9721514,17.5 80.0054168,17.5 L80.0054168,17.5 L7.99458325,17.5 C7.02994558,17.5 6.15664668,17.1083442 5.52433321,16.4759991 C4.89154105,15.8431752 4.5,14.9692433 4.5,14.0052166 L4.5,14.0052166 L4.5,12.7928932 L0.707106781,9 L4.5,5.20710678 L4.5,3.9947834 C4.5,3.02911628 4.89031908,2.15484146 5.52285379,1.52227506 C6.15459318,0.890504017 7.02784861,0.5 7.99458325,0.5 L7.99458325,0.5 Z" id="形状结合" stroke="#F64041" fill="#FFFFFF"></path>
                    <path d="M9.128,14.188 C9.956,13.06 10.388,11.56 10.436,9.688 L10.436,7.912 L19.052,7.912 L19.052,7.084 L16.124,7.084 C16.376,6.508 16.568,5.896 16.712,5.26 L18.8,5.26 L18.8,4.432 L14.588,4.432 C14.408,3.916 14.216,3.448 14.024,3.04 L13.124,3.196 C13.34,3.568 13.544,3.976 13.712,4.432 L9.32,4.432 L9.32,5.26 L11.516,5.26 L12.02,7.084 L9.56,7.084 L9.56,9.688 C9.536,11.356 9.164,12.664 8.468,13.6 L9.128,14.188 Z M15.296,7.084 L12.872,7.084 L12.368,5.26 L15.884,5.26 C15.764,5.896 15.56,6.508 15.296,7.084 Z M29.3,7.624 L29.3,3.7 L22.688,3.7 L22.688,7.624 L29.3,7.624 Z M28.436,6.808 L23.552,6.808 L23.552,4.516 L28.436,4.516 L28.436,6.808 Z M21.944,14.02 L21.944,13.408 L24.476,13.408 L24.476,14.02 L25.316,14.02 L25.316,8.812 L21.092,8.812 L21.092,14.02 L21.944,14.02 Z M27.404,14.02 L27.404,13.408 L30.032,13.408 L30.032,14.02 L30.896,14.02 L30.896,8.812 L26.552,8.812 L26.552,14.02 L27.404,14.02 Z M24.476,12.592 L21.944,12.592 L21.944,9.64 L24.476,9.64 L24.476,12.592 Z M30.032,12.592 L27.404,12.592 L27.404,9.64 L30.032,9.64 L30.032,12.592 Z M34.868,14.212 L34.868,13.72 L41.132,13.72 L41.132,14.212 L41.984,14.212 L41.984,6.832 L38.168,6.832 C38.264,6.448 38.336,6.04 38.408,5.62 L43.316,5.62 L43.316,4.78 L40.244,4.78 C40.472,4.384 40.676,3.928 40.868,3.412 L40.016,3.112 C39.812,3.7 39.572,4.252 39.296,4.78 L36.632,4.78 C36.428,4.144 36.2,3.604 35.96,3.148 L35.12,3.46 C35.36,3.868 35.564,4.312 35.744,4.78 L32.684,4.78 L32.684,5.62 L37.496,5.62 C37.448,6.04 37.364,6.448 37.268,6.832 L34.016,6.832 L34.016,14.212 L34.868,14.212 Z M41.132,8.872 L34.868,8.872 L34.868,7.624 L41.132,7.624 L41.132,8.872 Z M41.132,10.888 L34.868,10.888 L34.868,9.64 L41.132,9.64 L41.132,10.888 Z M41.132,12.94 L34.868,12.94 L34.868,11.656 L41.132,11.656 L41.132,12.94 Z M50.432,14.236 L50.432,11.956 L55.328,11.956 L55.328,11.14 L50.432,11.14 L50.432,10 L54.188,10 L54.188,5.068 L51.884,5.068 C52.244,4.576 52.568,4.024 52.856,3.412 L52.016,3.112 C51.716,3.808 51.368,4.468 50.984,5.068 L45.812,5.068 L45.812,10 L49.568,10 L49.568,11.14 L44.672,11.14 L44.672,11.956 L49.568,11.956 L49.568,14.236 L50.432,14.236 Z M48.344,5.056 L49.064,4.696 C48.704,4.144 48.332,3.628 47.936,3.172 L47.204,3.52 C47.612,3.976 47.984,4.48 48.344,5.056 Z M49.568,7.144 L46.652,7.144 L46.652,5.824 L49.568,5.824 L49.568,7.144 Z M53.348,7.144 L50.432,7.144 L50.432,5.824 L53.348,5.824 L53.348,7.144 Z M53.348,9.232 L50.432,9.232 L50.432,7.888 L53.348,7.888 L53.348,9.232 Z M49.568,9.232 L46.652,9.232 L46.652,7.888 L49.568,7.888 L49.568,9.232 Z M67.436,7.48 L67.436,6.664 L64.688,6.664 L64.688,5.26 L66.908,5.26 L66.908,4.48 L64.688,4.48 L64.688,3.196 L63.824,3.196 L63.824,4.48 L61.712,4.48 L61.712,5.26 L63.824,5.26 L63.824,6.664 L61.052,6.664 L61.052,7.48 L67.436,7.48 Z M59.648,14.2 L59.648,10.228 C60.02,10.084 60.392,9.928 60.776,9.76 L60.776,8.944 C60.404,9.112 60.032,9.268 59.648,9.424 L59.648,6.544 L60.74,6.544 L60.74,5.704 L59.648,5.704 L59.648,3.208 L58.82,3.208 L58.82,5.704 L57.812,5.704 C57.872,5.224 57.908,4.732 57.932,4.216 L57.14,4.156 C57.092,5.536 56.876,6.844 56.504,8.092 L57.26,8.308 C57.428,7.744 57.572,7.156 57.692,6.544 L58.82,6.544 L58.82,9.724 C58.076,9.964 57.32,10.168 56.552,10.324 L56.756,11.164 C57.452,10.972 58.148,10.768 58.82,10.54 L58.82,14.2 L59.648,14.2 Z M65.072,14.116 C65.696,14.116 66.02,13.768 66.02,13.096 L66.02,9.712 L67.34,9.712 L67.34,8.896 L66.02,8.896 L66.02,8.116 L65.18,8.116 L65.18,8.896 L61.34,8.896 L61.34,9.712 L65.18,9.712 L65.18,12.88 C65.18,13.192 65.036,13.36 64.772,13.36 C64.316,13.36 63.848,13.336 63.368,13.3 L63.548,14.116 L65.072,14.116 Z M62.984,12.568 L63.668,12.088 C63.332,11.56 62.852,10.96 62.228,10.264 L61.556,10.684 C62.156,11.368 62.636,11.992 62.984,12.568 Z M78.656,10.9 L79.292,10.456 C78.908,10 78.368,9.484 77.672,8.884 L78.236,8.884 L78.236,5.404 L74.432,5.404 L74.432,4.72 L79.316,4.72 L79.316,3.976 L74.432,3.976 L74.432,3.172 L73.568,3.172 L73.568,3.976 L68.684,3.976 L68.684,4.72 L73.568,4.72 L73.568,5.404 L69.764,5.404 L69.764,8.884 L73.568,8.884 L73.568,9.652 C72.176,9.688 70.652,9.712 68.972,9.736 L69.08,10.504 C72.968,10.408 75.944,10.276 77.984,10.132 C78.236,10.396 78.464,10.648 78.656,10.9 Z M73.568,6.844 L70.592,6.844 L70.592,6.064 L73.568,6.064 L73.568,6.844 Z M77.408,6.844 L74.432,6.844 L74.432,6.064 L77.408,6.064 L77.408,6.844 Z M77.408,8.236 L74.432,8.236 L74.432,7.432 L77.408,7.432 L77.408,8.236 Z M73.568,8.236 L70.592,8.236 L70.592,7.432 L73.568,7.432 L73.568,8.236 Z M74.432,9.628 L74.432,8.884 L77.18,8.884 L76.88,9.064 C77.048,9.208 77.204,9.364 77.372,9.52 C76.484,9.556 75.512,9.592 74.432,9.628 Z M74.756,12.58 L75.404,12.124 C75.068,11.704 74.6,11.212 73.988,10.66 L73.34,11.056 C73.94,11.608 74.408,12.124 74.756,12.58 Z M78.764,13.552 L79.448,13.096 C79.016,12.424 78.404,11.632 77.612,10.744 L76.964,11.164 C77.72,12.04 78.32,12.832 78.764,13.552 Z M75.644,14.008 C76.064,14.008 76.364,13.924 76.556,13.756 C76.772,13.564 76.928,13.036 77.012,12.148 L76.22,11.896 C76.172,12.532 76.088,12.916 75.968,13.048 C75.872,13.156 75.716,13.216 75.488,13.216 L72.728,13.216 C72.416,13.216 72.26,13.084 72.26,12.82 L72.26,10.9 L71.42,10.9 L71.42,13 C71.42,13.672 71.768,14.008 72.476,14.008 L75.644,14.008 Z M69.32,13.78 C69.848,13.036 70.256,12.16 70.544,11.152 L69.764,10.996 C69.524,11.836 69.128,12.616 68.6,13.324 L69.32,13.78 Z" fill="#F64041" fill-rule="nonzero"></path>
                </g>
            </g>
        </g>
    </g>
</svg>