<?xml version="1.0" encoding="UTF-8"?>
<svg width="76px" height="18px" viewBox="0 0 76 18" version="1.1" xmlns="http://www.w3.org/2000/svg" xmlns:xlink="http://www.w3.org/1999/xlink">
    <!-- Generator: Sketch 64 (93537) - https://sketch.com -->
    <title>label/移动端新用户</title>
    <desc>Created with Sketch.</desc>
    <g id="label/移动端新用户" stroke="none" stroke-width="1" fill="none" fill-rule="evenodd">
        <path d="M74.5,0.5 L3.49994436,0.5 L3.49933627,5.96408467 L0.46441158,8.99994549 L3.49933627,12.0348702 L3.49994437,17.5 L74.5,17.5 L74.5,0.5 Z" id="形状结合" stroke="#FF7623" fill="#FFF7F2"></path>
        <path d="M14.144,5.032 L14.144,4.24 L11.876,4.24 C11.708,3.808 11.54,3.412 11.36,3.052 L10.472,3.196 C10.676,3.508 10.856,3.856 11.024,4.24 L8.732,4.24 L8.732,5.032 L14.144,5.032 Z M18.272,14.236 L18.272,7.828 L19.52,7.828 L19.52,7 L15.644,7 L15.644,4.816 C16.94,4.744 18.104,4.492 19.16,4.084 L18.728,3.316 C17.564,3.82 16.256,4.096 14.804,4.12 L14.804,9.256 C14.744,11.08 14.36,12.508 13.652,13.54 L14.264,14.188 C15.128,12.964 15.584,11.32 15.644,9.256 L15.644,7.828 L17.42,7.828 L17.42,14.236 L18.272,14.236 Z M10.856,14.248 C11.552,14.248 11.9,13.924 11.9,13.276 L11.9,9.88 L14.012,9.88 L14.012,9.088 L11.9,9.088 L11.9,7.744 L14.216,7.744 L14.216,6.964 L12.86,6.964 C13.088,6.556 13.292,6.088 13.484,5.572 L12.704,5.308 C12.524,5.884 12.32,6.436 12.08,6.964 L10.76,6.964 C10.568,6.316 10.352,5.776 10.124,5.332 L9.356,5.608 C9.596,6.028 9.812,6.484 9.992,6.964 L8.612,6.964 L8.612,7.744 L11.036,7.744 L11.036,9.088 L8.804,9.088 L8.804,9.88 L11.036,9.88 L11.036,13.072 C11.036,13.36 10.88,13.504 10.568,13.504 C10.4,13.504 10.22,13.48 10.028,13.444 L10.208,14.248 L10.856,14.248 Z M13.208,12.856 L13.928,12.58 C13.736,11.932 13.448,11.224 13.088,10.444 L12.368,10.636 C12.704,11.356 12.98,12.1 13.208,12.856 Z M9.128,13.864 C9.68,12.964 10.124,11.908 10.436,10.696 L9.644,10.528 C9.38,11.584 8.972,12.544 8.408,13.408 L9.128,13.864 Z M21.164,14.092 C21.932,13.084 22.376,11.812 22.508,10.276 L25.604,10.276 L25.604,13.792 L26.492,13.792 L26.492,10.276 L29.756,10.276 L29.756,12.364 C29.756,12.868 29.528,13.12 29.096,13.12 C28.688,13.12 28.244,13.096 27.764,13.072 L27.992,13.924 L29.372,13.924 C30.212,13.924 30.632,13.504 30.632,12.664 L30.632,3.676 L21.692,3.676 L21.692,9.436 C21.668,11.08 21.272,12.436 20.504,13.504 L21.164,14.092 Z M29.756,6.58 L26.492,6.58 L26.492,4.516 L29.756,4.516 L29.756,6.58 Z M25.604,6.58 L22.556,6.58 L22.556,4.516 L25.604,4.516 L25.604,6.58 Z M25.604,9.484 L22.556,9.484 L22.556,7.384 L25.604,7.384 L25.604,9.484 Z M29.756,9.484 L26.492,9.484 L26.492,7.384 L29.756,7.384 L29.756,9.484 Z M33.032,14.248 C34.112,12.7 34.676,10.852 34.736,8.704 L42.464,8.704 L42.464,4.672 L38.672,4.672 C38.456,4.096 38.24,3.58 38.024,3.124 L37.1,3.268 C37.352,3.7 37.58,4.168 37.796,4.672 L33.884,4.672 L33.884,8.428 C33.86,10.576 33.368,12.328 32.396,13.672 L33.032,14.248 Z M41.588,7.864 L34.736,7.864 L34.736,5.524 L41.588,5.524 L41.588,7.864 Z M52.82,14.332 L53.3,13.576 C52.64,13.264 51.944,12.964 51.224,12.7 C52.46,11.812 53.36,10.912 53.936,10.024 L53.936,9.28 L48.224,9.28 C48.392,8.788 48.572,8.26 48.74,7.696 L55.388,7.696 L55.388,6.856 L48.968,6.856 C49.088,6.388 49.208,5.896 49.328,5.368 L54.68,5.368 L54.68,4.564 L49.508,4.564 C49.604,4.132 49.688,3.664 49.784,3.184 L48.896,3.112 C48.8,3.592 48.704,4.072 48.596,4.564 L45.428,4.564 L45.428,5.368 L48.416,5.368 C48.296,5.872 48.176,6.364 48.044,6.856 L44.612,6.856 L44.612,7.696 L47.804,7.696 C47.552,8.524 47.276,9.316 46.988,10.084 L52.916,10.084 C52.28,10.876 51.404,11.644 50.3,12.364 C49.472,12.076 48.608,11.8 47.708,11.56 L47.252,12.232 C49.16,12.748 51.02,13.444 52.82,14.332 Z M67.208,5.02 L67.208,4.204 L62.408,4.204 C62.24,3.82 62.06,3.484 61.868,3.172 L60.884,3.328 C61.088,3.592 61.28,3.892 61.46,4.204 L56.792,4.204 L56.792,5.02 L67.208,5.02 Z M65.6,8.164 L65.6,5.74 L58.412,5.74 L58.412,8.164 L65.6,8.164 Z M64.772,7.42 L59.24,7.42 L59.24,6.484 L64.772,6.484 L64.772,7.42 Z M61.568,14.2 C62.276,14.2 62.636,13.828 62.636,13.108 L62.636,11.992 L67.472,11.992 L67.472,11.2 L62.636,11.2 L62.636,10.972 C63.944,10.468 65.108,9.988 66.116,9.52 L66.116,8.896 L57.692,8.896 L57.692,9.676 L64.412,9.676 C63.404,10.096 62.528,10.444 61.784,10.732 L61.784,11.2 L56.528,11.2 L56.528,11.992 L61.784,11.992 L61.784,12.856 C61.784,13.264 61.592,13.468 61.232,13.468 C60.848,13.468 60.32,13.444 59.648,13.408 L59.876,14.2 L61.568,14.2 Z" id="新用户专享" fill="#FF6000" fill-rule="nonzero"></path>
    </g>
</svg>