<?xml version="1.0" encoding="UTF-8"?>
<svg width="14px" height="14px" viewBox="0 0 14 14" version="1.1" xmlns="http://www.w3.org/2000/svg" xmlns:xlink="http://www.w3.org/1999/xlink">
    <title>蒙版</title>
    <defs>
        <filter id="filter-1">
            <feColorMatrix in="SourceGraphic" type="matrix" values="0 0 0 0 0.501961 0 0 0 0 0.501961 0 0 0 0 0.501961 0 0 0 1.000000 0"></feColorMatrix>
        </filter>
        <path d="M11.1340901,0.134714077 C11.3013144,-0.0396947602 11.5782629,-0.0455189116 11.7527415,0.121635697 C11.9270806,0.288929853 11.9329047,0.565878298 11.7656803,0.740287136 L11.7656803,0.740287136 L6.554,6.175 L11.7742178,11.6202233 C11.9205392,11.7728311 11.9343702,12.0039457 11.8187482,12.1714139 L11.761279,12.2388748 C11.5868004,12.4060294 11.309852,12.4002052 11.1426276,12.2257964 L11.1426276,12.2257964 L5.948,6.807 L0.753295742,12.2257964 C0.606974408,12.3784041 0.376645588,12.4019392 0.204462615,12.2934579 L0.134644303,12.2388748 C-0.0396947602,12.0715806 -0.0455189117,11.7946322 0.121705471,11.6202233 L0.121705471,11.6202233 L5.341,6.175 L0.130242988,0.740287136 C-0.0160783466,0.587679403 -0.0299093974,0.356564783 0.0857126629,0.189096609 L0.14318182,0.121635697 C0.317660432,-0.0455189117 0.594608877,-0.0396947602 0.76183326,0.134714077 L0.76183326,0.134714077 L5.948,5.543 Z" id="path-2"></path>
    </defs>
    <g id="页面-1" stroke="none" stroke-width="1" fill="none" fill-rule="evenodd">
        <g id="搜索全部-focus" transform="translate(-1420.000000, -49.000000)">
            <g id="Icon/24/关闭" transform="translate(466.000000, 36.000000)" filter="url(#filter-1)">
                <g transform="translate(955.052038, 13.824197)" id="color/text/secondary/dark">
                    <mask id="mask-3" fill="white">
                        <use xlink:href="#path-2"></use>
                    </mask>
                    <use id="蒙版" stroke="#979797" stroke-width="0.5" fill="#252B3A" fill-rule="nonzero" xlink:href="#path-2"></use>
                </g>
            </g>
        </g>
    </g>
</svg>