<?xml version="1.0" encoding="UTF-8"?>
<svg width="42px" height="20px" viewBox="0 0 42 20" version="1.1" xmlns="http://www.w3.org/2000/svg" xmlns:xlink="http://www.w3.org/1999/xlink">
    <!-- Generator: Sketch 64 (93537) - https://sketch.com -->
    <title>组合购/必选标签</title>
    <desc>Created with Sketch.</desc>
    <defs>
        <linearGradient x1="0%" y1="100%" x2="100%" y2="100%" id="linearGradient-1">
            <stop stop-color="#00A4FF" offset="0%"></stop>
            <stop stop-color="#006EFF" offset="100%"></stop>
        </linearGradient>
    </defs>
    <g id="组合购/必选标签" stroke="none" stroke-width="1" fill="none" fill-rule="evenodd">
        <g id="编组-2">
            <polygon id="矩形" fill="url(#linearGradient-1)" points="0 0 42 0 36.2783203 10.140625 42 20 0 20"></polygon>
            <path d="M12.3,7.172 L13.092,6.38 C12.468,5.648 11.688,4.916 10.752,4.184 L9.972,4.928 C10.968,5.732 11.748,6.476 12.3,7.172 Z M7.692,15.236 C8.388,14.924 9.048,14.54 9.684,14.084 C9.852,14.552 10.26,14.792 10.92,14.792 L13.416,14.792 C13.98,14.792 14.4,14.636 14.676,14.348 C14.964,14.024 15.168,13.04 15.276,11.396 L14.196,11.024 C14.136,12.332 14.016,13.112 13.848,13.352 C13.716,13.58 13.5,13.7 13.212,13.7 L11.28,13.7 C10.92,13.7 10.74,13.544 10.716,13.244 C12.78,11.372 14.352,8.624 15.42,5.024 L14.364,4.556 C13.548,7.484 12.324,9.824 10.716,11.588 L10.716,6.668 L9.576,6.668 L9.576,12.68 C8.808,13.316 7.968,13.844 7.032,14.276 L7.692,15.236 Z M7.416,12.98 C8.052,11.576 8.544,9.908 8.88,7.964 L7.788,7.736 C7.512,9.392 7.056,10.928 6.432,12.368 L7.416,12.98 Z M16.584,12.932 L17.604,12.476 C17.1,10.868 16.5,9.344 15.816,7.928 L14.736,8.276 C15.408,9.632 16.032,11.18 16.584,12.932 Z M22.632,13.532 C23.76,12.932 24.48,12.188 24.792,11.276 C24.996,10.7 25.116,10.016 25.164,9.236 L26.16,9.236 L26.16,12.428 C26.16,12.716 26.244,12.968 26.436,13.172 C26.616,13.352 26.88,13.448 27.24,13.448 L28.092,13.448 C28.512,13.436 28.8,13.34 28.968,13.172 C29.136,12.992 29.268,12.38 29.364,11.348 L28.368,11.012 C28.332,11.828 28.26,12.272 28.164,12.356 C28.08,12.428 27.972,12.476 27.852,12.476 L27.588,12.476 C27.348,12.476 27.228,12.368 27.228,12.176 L27.228,9.236 L29.172,9.236 L29.172,8.144 L26.448,8.144 L26.448,6.656 L28.752,6.656 L28.752,5.564 L26.448,5.564 L26.448,4.124 L25.344,4.124 L25.344,5.564 L24.072,5.564 C24.192,5.24 24.3,4.892 24.408,4.532 L23.316,4.316 C23.04,5.336 22.584,6.296 21.936,7.196 L22.92,7.808 C23.16,7.448 23.376,7.064 23.592,6.656 L25.344,6.656 L25.344,8.144 L22.248,8.144 L22.248,9.236 L24.084,9.236 C24.036,9.896 23.928,10.46 23.748,10.916 C23.46,11.6 22.836,12.176 21.888,12.644 L22.632,13.532 Z M20.808,6.968 L21.612,6.176 C21.072,5.552 20.412,4.916 19.62,4.28 L18.84,5.024 C19.692,5.72 20.352,6.368 20.808,6.968 Z M19.428,15.296 C20.04,14.204 20.472,13.664 20.736,13.664 C20.868,13.664 21.024,13.76 21.192,13.964 C21.552,14.372 21.972,14.66 22.452,14.804 C22.944,14.924 23.58,14.996 24.36,15.008 C25.128,15.02 25.848,15.032 26.496,15.032 L29.256,15.032 L29.544,13.904 C29.208,13.928 28.74,13.952 28.14,13.964 C27.528,13.976 26.928,13.988 26.34,13.988 C25.404,13.988 24.6,13.976 23.928,13.964 C23.208,13.94 22.68,13.832 22.32,13.664 C22.032,13.508 21.744,13.268 21.456,12.944 C21.396,12.872 21.336,12.824 21.288,12.776 L21.288,8.228 L18.612,8.228 L18.612,9.284 L20.22,9.284 L20.22,12.68 C19.74,12.92 19.188,13.532 18.588,14.516 L19.428,15.296 Z" id="必选" fill="#FFFFFF" fill-rule="nonzero"></path>
        </g>
    </g>
</svg>