<?xml version="1.0" encoding="UTF-8"?>
<svg width="18px" height="18px" viewBox="0 0 18 18" version="1.1" xmlns="http://www.w3.org/2000/svg" xmlns:xlink="http://www.w3.org/1999/xlink">
    <title>导航-电话-默认</title>
    <g id="页面-1" stroke="none" stroke-width="1" fill="none" fill-rule="evenodd">
        <g id="编组" transform="translate(-1.000000, -1.000000)" fill-rule="nonzero" stroke="#595959" stroke-width="1.08333333">
            <g id="导航-电话-默认">
                <path d="M4.33258142,2.20833333 L8.19335702,5.83241271 C8.30456973,5.94389755 8.36017608,6.08987205 8.36017608,6.23584655 C8.36017608,6.38182106 8.30456973,6.52779556 8.19396026,6.63867664 L8.19396026,6.63867664 L7.40784305,7.42423803 C7.20612998,7.6259511 7.0745339,7.93449847 7.08120127,8.34746531 C7.08582457,8.63382551 7.15855817,8.98010502 7.30972501,9.35801375 C7.5535793,9.96763602 8.00564093,10.674386 8.66540711,11.3340794 C9.32539391,11.9939934 10.0322689,12.4462502 10.6419255,12.6901182 C11.0197372,12.8412462 11.3659219,12.9139277 11.6522452,12.9184674 C12.0648796,12.9250098 12.37335,12.7934574 12.5752062,12.5916012 L12.5752062,12.5916012 L13.3607196,11.8060872 C13.4722044,11.6948745 13.6181789,11.6392682 13.7641535,11.6392682 C13.910128,11.6392682 14.0561025,11.6948745 14.1671113,11.8056118 L14.1671113,11.8056118 L17.6248735,15.2635124 C17.7360689,15.3749718 17.7916667,15.5209173 17.7916667,15.6668628 C17.7916667,15.8128083 17.7360689,15.9587538 17.6253273,16.0697589 L17.6253273,16.0697589 L16.8393456,16.8557406 C16.3394172,17.3556691 15.6789011,17.6524302 14.8846383,17.7529055 C14.6775984,17.77878 14.4691339,17.7915838 14.2596123,17.7912474 C13.633033,17.7912474 12.9573256,17.6835193 12.2418396,17.4730974 C10.2289305,16.8814749 8.11609195,15.5410884 6.28754757,13.7120088 C4.45896829,11.8828942 3.11798484,9.77070027 2.52637892,7.75771395 C2.24435018,6.79740612 2.14609927,5.90873616 2.24643713,5.11616966 C2.34701406,4.32109886 2.64377518,3.66058283 3.14370364,3.16065439 L3.14370364,3.16065439 L3.92923099,2.37512649 C4.04069041,2.26393105 4.18663591,2.20833333 4.33258142,2.20833333 L4.33258142,2.20833333 Z" id="路径"></path>
            </g>
        </g>
    </g>
</svg>