<?xml version="1.0" encoding="UTF-8"?>
<svg width="16px" height="16px" viewBox="0 0 16 16" version="1.1" xmlns="http://www.w3.org/2000/svg" xmlns:xlink="http://www.w3.org/1999/xlink">
    <title>操作/删除</title>
    <defs>
        <filter id="filter-1">
            <feColorMatrix in="SourceGraphic" type="matrix" values="0 0 0 0 0.600000 0 0 0 0 0.600000 0 0 0 0 0.600000 0 0 0 1.000000 0"></feColorMatrix>
        </filter>
    </defs>
    <g id="页面-1" stroke="none" stroke-width="1" fill="none" fill-rule="evenodd">
        <g id="搜索全部-focus" transform="translate(-1390.000000, -103.000000)">
            <g id="编组-7" transform="translate(1390.000000, 101.000000)">
                <g id="删除备份-2" transform="translate(0.000000, 2.000000)" filter="url(#filter-1)">
                    <g transform="translate(1.500000, 1.172956)" id="编组" fill="#56AAF2" fill-rule="nonzero">
                        <path d="M12.509434,2.53459119 L9.56603774,2.53459119 L9.0754717,0.817610063 C8.91194969,0.327044025 8.42138365,0 7.8490566,0 L5.1509434,0 C4.66037736,0 4.16981132,0.327044025 4.00628931,0.817610063 L3.35220126,2.53459119 L0.490566038,2.53459119 C0.245283019,2.53459119 0,2.77987421 0,3.02515723 C0,3.27044025 0.245283019,3.51572327 0.490566038,3.51572327 L12.509434,3.51572327 C12.754717,3.51572327 13,3.27044025 13,3.02515723 C13,2.77987421 12.754717,2.53459119 12.509434,2.53459119 Z M4.90566038,1.06289308 C4.90566038,0.981132075 5.06918239,0.899371069 5.2327044,0.899371069 L7.8490566,0.899371069 C8.01257862,0.899371069 8.09433962,0.981132075 8.17610063,1.06289308 L8.58490566,2.45283019 L4.41509434,2.45283019 L4.90566038,1.06289308 Z M10.4654088,4.66037736 L10.4654088,11.8553459 C10.4654088,12.3459119 10.0566038,12.672956 9.64779874,12.672956 L3.02515723,12.672956 C2.53459119,12.672956 2.20754717,12.2641509 2.20754717,11.8553459 L2.20754717,4.66037736 C2.20754717,4.41509434 1.96226415,4.16981132 1.71698113,4.16981132 C1.47169811,4.16981132 1.22641509,4.41509434 1.22641509,4.66037736 L1.22641509,11.8553459 C1.22641509,12.836478 2.04402516,13.6540881 3.02515723,13.6540881 L9.64779874,13.6540881 C10.6289308,13.6540881 11.4465409,12.836478 11.4465409,11.8553459 L11.4465409,4.66037736 C11.4465409,4.41509434 11.2012579,4.16981132 10.9559748,4.16981132 C10.7106918,4.16981132 10.4654088,4.41509434 10.4654088,4.66037736 Z" id="形状"></path>
                        <path d="M4.33333333,10.6289308 L4.33333333,6.13207547 C4.33333333,5.88679245 4.57861635,5.64150943 4.82389937,5.64150943 C5.06918239,5.64150943 5.31446541,5.88679245 5.31446541,6.13207547 L5.31446541,10.6289308 C5.31446541,10.7924528 5.2327044,10.8742138 5.1509434,10.9559748 C5.06918239,11.0377358 4.90566038,11.1194969 4.82389937,11.1194969 C4.49685535,11.1194969 4.33333333,10.8742138 4.33333333,10.6289308 Z" id="路径"></path>
                        <path d="M7.35849057,10.6289308 L7.35849057,6.13207547 C7.35849057,5.88679245 7.60377358,5.64150943 7.8490566,5.64150943 C8.09433962,5.64150943 8.33962264,5.88679245 8.33962264,6.13207547 L8.33962264,10.6289308 C8.33962264,10.8742138 8.09433962,11.1194969 7.8490566,11.1194969 C7.60377358,11.1194969 7.35849057,10.8742138 7.35849057,10.6289308 Z" id="路径_1_"></path>
                    </g>
                </g>
            </g>
        </g>
    </g>
</svg>