<?xml version="1.0" encoding="UTF-8"?>
<svg width="72px" height="72px" viewBox="0 0 72 72" version="1.1" xmlns="http://www.w3.org/2000/svg" xmlns:xlink="http://www.w3.org/1999/xlink">
    <!-- Generator: Sketch 64 (93537) - https://sketch.com -->
    <title>icon/72/failure</title>
    <desc>Created with Sketch.</desc>
    <g id="icon/72/failure" stroke="none" stroke-width="1" fill="none" fill-rule="evenodd">
        <circle id="椭圆形" stroke="#E54545" stroke-width="4" cx="36" cy="36" r="33"></circle>
        <path d="M36,50 C37.6568542,50 39,51.3431458 39,53 C39,54.6568542 37.6568542,56 36,56 C34.3431458,56 33,54.6568542 33,53 C33,51.3431458 34.3431458,50 36,50 Z M36,16 C37.5928373,16 38.8840871,17.2912498 38.8840871,18.8840871 C38.8840871,18.9219599 38.8833411,18.9598291 38.8818495,18.9976725 L37.8891607,44.183832 C37.8491787,45.1982406 37.0151962,46 36,46 C34.9848038,46 34.1508213,45.1982406 34.1108393,44.183832 L33.1181505,18.9976725 C33.055419,17.406071 34.294813,16.064969 35.8864146,16.0022376 C35.924258,16.000746 35.9621272,16 36,16 Z" id="形状结合" fill="#E54545"></path>
    </g>
</svg>
