<?xml version="1.0" encoding="UTF-8"?>
<svg width="19px" height="13px" viewBox="0 0 19 13" version="1.1" xmlns="http://www.w3.org/2000/svg" xmlns:xlink="http://www.w3.org/1999/xlink">
    <title>形状结合</title>
    <g id="页面-1" stroke="none" stroke-width="1" fill="none" fill-rule="evenodd">
        <g id="I007_悬浮菜单（新版）-进阶" transform="translate(-232.000000, -6504.000000)" fill="#191919" fill-rule="nonzero">
            <path d="M240.889548,6506.53042 L249.601671,6515.24255 C249.846327,6515.4872 249.85772,6515.87248 249.627117,6516.10308 C249.41573,6516.31447 249.074378,6516.32251 248.830506,6516.13393 L248.766583,6516.07763 L240.940439,6508.25149 L233.56383,6515.6281 C233.352444,6515.83949 233.011091,6515.84753 232.76722,6515.65895 L232.703297,6515.60265 C232.479029,6515.37839 232.450767,6515.03596 232.625237,6514.80282 L232.677852,6514.74212 L240.889548,6506.53042 Z M249.50557,6504.20317 C249.851566,6504.20317 250.132052,6504.46755 250.132052,6504.79367 C250.132052,6505.09261 249.896366,6505.33967 249.59058,6505.37877 L249.50557,6505.38416 L232.799398,6505.38416 C232.453402,6505.38416 232.172916,6505.11979 232.172916,6504.79367 C232.172916,6504.49472 232.408602,6504.24766 232.714388,6504.20856 L232.799398,6504.20317 L249.50557,6504.20317 Z" id="形状结合"></path>
        </g>
    </g>
</svg>