<svg width="16px" height="16px" viewBox="0 0 16 16" version="1.1" xmlns="http://www.w3.org/2000/svg" xmlns:xlink="http://www.w3.org/1999/xlink">
    <!-- Generator: Sketch 64 (93537) - https://sketch.com -->
    <title>icon/16/视频</title>
    <desc>Created with Sketch.</desc>
    <g id="icon/16/视频" stroke="none" stroke-width="1" fill="none" fill-rule="evenodd">
        <path d="M8,1 C11.8659932,1 15,4.13400675 15,8 C15,11.8659932 11.8659932,15 8,15 C4.13400675,15 1,11.8659932 1,8 C1,4.13400675 4.13400675,1 8,1 Z M8,2.5 C4.96243388,2.5 2.5,4.96243388 2.5,8 C2.5,11.0375661 4.96243388,13.5 8,13.5 C11.0375661,13.5 13.5,11.0375661 13.5,8 C13.5,4.96243388 11.0375661,2.5 8,2.5 Z M6.5,5.5 L10.5,7.98337835 L6.5,10.5 L6.5,5.5 Z" id="形状结合" fill="#00A4FF"></path>
    </g>
</svg>
