<?xml version="1.0" encoding="UTF-8"?>
<svg width="24px" height="24px" viewBox="0 0 24 24" version="1.1" xmlns="http://www.w3.org/2000/svg" xmlns:xlink="http://www.w3.org/1999/xlink">
    <title>个人中心-24px</title>
    <g id="移动" stroke="none" stroke-width="1" fill="none" fill-rule="evenodd">
        <g id="官网首页移动端" transform="translate(-315.000000, -16.000000)">
            <g id="个人中心-24px" transform="translate(315.000000, 16.000000)">
                <rect id="矩形" x="0" y="0" width="24" height="24"></rect>
                <path d="M12,22 C17.5228475,22 22,17.5228475 22,12 C22,6.4771525 17.5228475,2 12,2 C6.4771525,2 2,6.4771525 2,12 C2,17.5228475 6.4771525,22 12,22 Z M12,24 C5.372583,24 0,18.627417 0,12 C0,5.372583 5.372583,0 12,0 C18.627417,0 24,5.372583 24,12 C24,18.627417 18.627417,24 12,24 Z" id="椭圆形" fill="#253554" fill-rule="nonzero"></path>
                <path d="M12,22 C14.5869074,22 17.0117661,21.0289193 18.853734,19.3292464 C18.096304,16.2536323 15.2960099,14 12,14 C8.70399007,14 5.90369604,16.2536323 5.14626601,19.3292464 C6.98823394,21.0289193 9.41309259,22 12,22 Z M3,19.9993584 C3.5007964,15.4997168 7.33918391,12 12,12 C16.6608161,12 20.4992036,15.4997168 21,19.9993584 C18.7891895,22.4547282 15.5761631,24 12,24 C8.42383691,24 5.21081054,22.4547282 3,19.9993584 Z" id="形状结合" fill="#253554" fill-rule="nonzero"></path>
                <path d="M12,12 C13.6568542,12 15,10.6568542 15,9 C15,7.34314575 13.6568542,6 12,6 C10.3431458,6 9,7.34314575 9,9 C9,10.6568542 10.3431458,12 12,12 Z M12,14 C9.23857625,14 7,11.7614237 7,9 C7,6.23857625 9.23857625,4 12,4 C14.7614237,4 17,6.23857625 17,9 C17,11.7614237 14.7614237,14 12,14 Z" id="椭圆形" fill="#253554" fill-rule="nonzero"></path>
            </g>
        </g>
    </g>
</svg>