<?xml version="1.0" encoding="UTF-8"?>
<svg width="10px" height="10px" viewBox="0 0 10 10" version="1.1" xmlns="http://www.w3.org/2000/svg" xmlns:xlink="http://www.w3.org/1999/xlink">
    <title>形状结合</title>
    <g id="pc" stroke="none" stroke-width="1" fill="none" fill-rule="evenodd">
        <g id="导航-登陆" transform="translate(-1817.000000, -144.000000)" fill="#0052D9" fill-rule="nonzero">
            <g id="编组-3" transform="translate(1680.000000, 66.000000)">
                <g id="编组-2" transform="translate(133.000000, 74.000000)">
                    <g id="正确-16" transform="translate(4.000000, 4.000000)">
                        <path d="M5,0 C7.76142375,0 10,2.23857625 10,5 C10,7.76142375 7.76142375,10 5,10 C2.23857625,10 0,7.76142375 0,5 C0,2.23857625 2.23857625,0 5,0 Z M5,1.25 C2.92893219,1.25 1.25,2.92893219 1.25,5 C1.25,7.07106781 2.92893219,8.75 5,8.75 C7.07106781,8.75 8.75,7.07106781 8.75,5 C8.75,2.92893219 7.07106781,1.25 5,1.25 Z M6.91941738,3.125 L7.80330088,4.00888348 L4.70970869,7.10247563 L2.5,4.89276695 L3.38388348,4.00888348 L4.709375,5.334375 L6.91941738,3.125 Z" id="形状结合"></path>
                    </g>
                </g>
            </g>
        </g>
    </g>
</svg>