<?xml version="1.0" encoding="UTF-8"?>
<svg width="21px" height="21px" viewBox="0 0 21 21" version="1.1" xmlns="http://www.w3.org/2000/svg" xmlns:xlink="http://www.w3.org/1999/xlink">
    <title>路径</title>
    <g id="页面-1" stroke="none" stroke-width="1" fill="none" fill-rule="evenodd">
        <g id="I007_悬浮菜单（新版）-进阶" transform="translate(-66.000000, -6379.000000)" fill-rule="nonzero" stroke="#191919" stroke-width="1.2">
            <path d="M70.082616,6379.95502 C70.2705281,6379.95502 70.4584403,6380.0266 70.6014551,6380.16928 L70.6014551,6380.16928 L74.7509452,6384.3186 C74.8941348,6384.46214 74.9657296,6384.65009 74.9657296,6384.83803 C74.9657296,6385.02598 74.8941348,6385.21393 74.7516134,6385.3568 L74.7516134,6385.3568 L73.8082853,6386.29946 C73.5741241,6386.53362 73.4232234,6386.89239 73.4309533,6387.37117 C73.4364207,6387.70981 73.5228678,6388.11921 73.701612,6388.56606 C73.9921982,6389.29251 74.5311989,6390.13448 75.3173602,6390.92056 C76.1037871,6391.7069 76.9459057,6392.24613 77.6723988,6392.53674 C78.1191275,6392.71543 78.5284087,6392.80182 78.8670052,6392.80718 C79.3453991,6392.81477 79.7040823,6392.66391 79.9384104,6392.42958 L79.9384104,6392.42958 L80.8810697,6391.48692 C81.0246096,6391.34373 81.212556,6391.27214 81.4005024,6391.27214 C81.5884488,6391.27214 81.7763952,6391.34373 81.9194079,6391.4864 L81.9194079,6391.4864 L86.0687637,6395.63592 C86.2119334,6395.77943 86.2835183,6395.96734 86.2835183,6396.15525 C86.2835183,6396.34316 86.2119334,6396.53108 86.0692664,6396.67408 L86.0692664,6396.67408 L85.1260884,6397.61726 C84.5187121,6398.22464 83.7165506,6398.58601 82.7512847,6398.70812 C82.5007533,6398.73943 82.2484981,6398.75492 81.995053,6398.75451 C81.2387937,6398.75451 80.4232035,6398.62468 79.5596264,6398.3707 C77.1371157,6397.65869 74.5939357,6396.04614 72.3932148,6393.84478 C70.1924553,6391.64337 68.579191,6389.10097 67.8671991,6386.67836 C67.5265826,6385.51856 67.4084654,6384.44529 67.5296381,6383.48815 C67.6518581,6382.52198 68.013231,6381.71982 68.6206073,6381.11245 L68.6206073,6381.11245 L69.5632821,6380.16977 C69.7067916,6380.0266 69.8947038,6379.95502 70.082616,6379.95502 Z" id="路径"></path>
        </g>
    </g>
</svg>