<svg xmlns="http://www.w3.org/2000/svg" xmlns:xlink="http://www.w3.org/1999/xlink" width="32" height="32"><defs><path id="a" d="M15.388-18.842l4.631 3.394-1.773 2.421-5.634-4.13-1.008-6.544 2.965-.457.819 5.316zm10.472-.984c1.009 6.55-3.484 12.678-10.034 13.686S3.148-9.624 2.14-16.174 5.624-28.852 12.174-29.86s12.678 3.484 13.686 10.034zm-2.965.456c-.755-4.906-5.359-8.281-10.265-7.526-4.905.756-8.281 5.36-7.525 10.266s5.359 8.281 10.265 7.526 8.281-5.36 7.525-10.266z"/></defs><use xlink:href="#a" overflow="visible" fill-rule="evenodd" clip-rule="evenodd" fill="#fff"/><clipPath id="b"><use xlink:href="#a" overflow="visible"/></clipPath><path transform="rotate(-8.754 13.998 -17.998)" clip-path="url(#b)" fill="#fff" d="M-3-35h34v34H-3z"/><path d="M15.5 0C6.94 0 0 6.94 0 15.5S6.94 31 15.5 31 31 24.06 31 15.5 24.06 0 15.5 0zm0 28C8.607 28 3 22.393 3 15.5S8.607 3 15.5 3 28 8.607 28 15.5 22.393 28 15.5 28zm4.939-4.939L14 16.621V7h3v8.379l5.561 5.561-2.122 2.121z" fill="#F0B64B"/></svg>