<?xml version="1.0" encoding="UTF-8"?>
<svg width="24px" height="24px" viewBox="0 0 24 24" version="1.1" xmlns="http://www.w3.org/2000/svg" xmlns:xlink="http://www.w3.org/1999/xlink">
    <title>画板备份</title>
    <g id="画板备份" stroke="none" stroke-width="1" fill="none" fill-rule="evenodd">
        <g id="search-24px" transform="translate(1.000000, 1.000000)" fill="#253554" fill-rule="nonzero">
            <path d="M9.88,2.88 C13.2147135,2.90397443 16.0695107,5.27706448 16.7024411,8.55124961 C17.3353716,11.8254347 15.5706786,15.0915152 12.4851488,16.3565824 C9.399619,17.6216497 5.85006493,16.5344105 4.00236614,13.7582804 C2.15466735,10.9821503 2.52190637,7.28802537 4.88,4.93 C6.21328912,3.62326554 8.0133186,2.90325374 9.88,2.93 M9.88,0.929999759 C5.58572413,0.930994093 1.89033586,3.96570794 1.05429509,8.17781454 C0.218254328,12.3899211 2.47447917,16.605942 6.44284243,18.2469476 C10.4112057,19.8879532 14.9861349,18.4967649 17.3691572,14.9243692 C19.7521795,11.3519735 19.279393,6.5936276 16.24,3.56 C14.5521555,1.87535717 12.2647097,0.929447957 9.88,0.929999759 Z" id="形状"></path>
            <rect id="矩形" transform="translate(18.014200, 18.010000) rotate(-45.000000) translate(-18.014200, -18.010000) " x="17.0141998" y="14.51" width="2" height="7"></rect>
        </g>
    </g>
</svg>