<?xml version="1.0" encoding="UTF-8"?>
<svg width="24px" height="24px" viewBox="0 0 24 24" version="1.1" xmlns="http://www.w3.org/2000/svg" xmlns:xlink="http://www.w3.org/1999/xlink">
    <title>画板备份 3</title>
    <g id="画板备份-3" stroke="none" stroke-width="1" fill="none" fill-rule="evenodd">
        <g id="Group-32">
            <g id="Group-4-Copy">
                <rect id="Rectangle-Copy" x="0" y="0" width="24" height="24"></rect>
            </g>
            <path d="M12,10.5500491 L19.2497544,3.30029466 C19.6501473,2.89990178 20.2993125,2.89990178 20.6997053,3.30029466 C21.1000982,3.70068754 21.1000982,4.34985267 20.6997053,4.75024555 L13.4499509,12 L20.6997053,19.2497544 C21.1000982,19.6501473 21.1000982,20.2993125 20.6997053,20.6997053 C20.2993125,21.1000982 19.6501473,21.1000982 19.2497544,20.6997053 L12,13.4499509 L4.75024555,20.6997053 C4.34985267,21.1000982 3.70068754,21.1000982 3.30029466,20.6997053 C2.89990178,20.2993125 2.89990178,19.6501473 3.30029466,19.2497544 L10.5500491,12 L3.30029466,4.75024555 C2.89990178,4.34985267 2.89990178,3.70068754 3.30029466,3.30029466 C3.70068754,2.89990178 4.34985267,2.89990178 4.75024555,3.30029466 L12,10.5500491 L12,10.5500491 Z" id="Path-Copy" fill="#253554"></path>
        </g>
    </g>
</svg>