<?xml version="1.0" encoding="UTF-8"?>
<svg width="16px" height="16px" viewBox="0 0 16 16" version="1.1" xmlns="http://www.w3.org/2000/svg" xmlns:xlink="http://www.w3.org/1999/xlink">
    <title>画板</title>
    <g id="画板" stroke="none" stroke-width="1" fill="none" fill-rule="evenodd">
        <g id="Group-6">
            <rect id="Rectangle" x="0" y="0" width="16" height="16"></rect>
            <g id="Group-5" fill="#0052D9" fill-rule="nonzero">
                <path d="M6.5,-7.72715225e-14 C10.0898509,-7.72715225e-14 13,2.91014913 13,6.5 C13,7.9337188 12.5358158,9.25902155 11.7495344,10.3338212 L15.6568542,14.2426407 L15.6788037,14.2656737 C15.8763289,14.4483528 16,14.7097339 16,15 C16,15.5522847 15.5522847,16 15,16 C14.7097339,16 14.4483528,15.8763289 14.2656737,15.6788037 L14.2541835,15.66817 L14.2541835,15.66817 L13.345,14.759 L10.3338028,11.7495478 C9.25900646,12.5358211 7.93371063,13 6.5,13 C2.91014913,13 -3.04645198e-13,10.0898509 -3.04645198e-13,6.5 C-3.04645198e-13,2.91014913 2.91014913,-7.72715225e-14 6.5,-7.72715225e-14 Z M6.5,2 C4.01471863,2 2,4.01471863 2,6.5 C2,8.98528137 4.01471863,11 6.5,11 C8.98528137,11 11,8.98528137 11,6.5 C11,4.01471863 8.98528137,2 6.5,2 Z" id="Combined-Shape"></path>
            </g>
        </g>
    </g>
</svg>