<svg width="15" height="15" viewBox="0 0 15 15" fill="none" xmlns="http://www.w3.org/2000/svg">
<path fill-rule="evenodd" clip-rule="evenodd" d="M11.7497 10.3345C13.6118 7.79167 13.394 4.20158 11.0962 1.90381C8.55779 -0.634602 4.44221 -0.634602 1.90381 1.90381C-0.634602 4.44221 -0.634602 8.55779 1.90381 11.0962C4.20158 13.394 7.79167 13.6118 10.3345 11.7497L13.2175 14.6317L14.6317 13.2175L11.7497 10.3345ZM3.31802 9.68198C1.56066 7.92462 1.56066 5.07538 3.31802 3.31802C5.07538 1.56066 7.92462 1.56066 9.68198 3.31802C11.4393 5.07538 11.4393 7.92462 9.68198 9.68198C7.92462 11.4393 5.07538 11.4393 3.31802 9.68198Z" fill="#97A3B7"/>
</svg>
