<?xml version="1.0" encoding="UTF-8"?>
<svg width="16px" height="16px" viewBox="0 0 16 16" version="1.1" xmlns="http://www.w3.org/2000/svg" xmlns:xlink="http://www.w3.org/1999/xlink">
    <!-- Generator: Sketch 64 (93537) - https://sketch.com -->
    <title>icon/16/详情</title>
    <desc>Created with Sketch.</desc>
    <g id="icon/16/详情" stroke="none" stroke-width="1" fill="none" fill-rule="evenodd">
        <path d="M8,1 C11.8659932,1 15,4.13400675 15,8 C15,11.8659932 11.8659932,15 8,15 C4.13400675,15 1,11.8659932 1,8 C1,4.13400675 4.13400675,1 8,1 Z M8,2.5 C4.96243388,2.5 2.5,4.96243388 2.5,8 C2.5,11.0375661 4.96243388,13.5 8,13.5 C11.0375661,13.5 13.5,11.0375661 13.5,8 C13.5,4.96243388 11.0375661,2.5 8,2.5 Z M7.99471877,10 C8.27120955,10 8.51429442,10.091696 8.71072321,10.2770899 C8.89904022,10.4673664 9,10.7121912 9,10.9946638 C9,11.2842714 8.89377736,11.5404736 8.69555712,11.7274042 C8.50238212,11.909577 8.26906414,12 7.99471877,12 C7.72535715,12 7.49111777,11.9027356 7.29388043,11.7167319 C7.09737247,11.531416 7,11.2871481 7,10.9946638 C7,10.7021796 7.09737247,10.4579117 7.29388043,10.2725958 C7.48705543,10.090423 7.72037341,10 7.99471877,10 Z M8.08936732,4 C8.65563704,4 9.11525695,4.16626903 9.46185079,4.50643139 C9.81993961,4.84809268 10,5.31931556 10,5.90644933 C10,6.37733912 9.88788413,6.77833315 9.66084132,7.10737874 L9.57992098,7.1977072 L9.45174534,7.33026658 L8.94743022,7.82269861 C8.82177016,7.93688464 8.72658666,8.06809181 8.65950133,8.21439523 C8.60593765,8.3312099 8.57330427,8.45063836 8.56033531,8.58075833 L8.55387428,8.71474132 L8.55387428,9 L7.3405098,9 L7.3405098,8.71474132 C7.3405098,8.34062222 7.39764004,8.02674416 7.51823898,7.77328565 C7.6226734,7.53676937 7.89322918,7.20584785 8.33586062,6.76435176 L8.48978577,6.61306886 L8.58513862,6.49182816 C8.70940639,6.32621088 8.77038692,6.15073831 8.77038692,5.96846208 C8.77038692,5.72372837 8.70631483,5.53251619 8.58667436,5.39472609 C8.46289482,5.25975343 8.27961421,5.19064493 8.03249721,5.19064493 C7.71266861,5.19064493 7.50569957,5.28814077 7.3786635,5.49204849 C7.28331845,5.6327096 7.22644895,5.83353612 7.21014093,6.09595448 L7.20524017,6.26080794 L7.06570529,6.42204111 L6.13953488,6.42204111 L6,6.26080794 C6,5.55590317 6.18869429,5.00083639 6.57304512,4.60079405 C6.95054597,4.19872955 7.45607039,4 8.08936732,4 Z" id="形状结合" fill="#666666" fill-rule="nonzero"></path>
    </g>
</svg>