<svg width="20" height="20" viewBox="0 0 20 20" fill="none" xmlns="http://www.w3.org/2000/svg">
<g clip-path="url(#clip0_3_1748)">
<path fill-rule="evenodd" clip-rule="evenodd" d="M18.65 11.25C18.725 10.85 18.75 10.425 18.75 10C18.75 5.1625 14.8375 1.25 10 1.25C5.1625 1.25 1.25 5.1625 1.25 10C1.25 10.425 1.275 10.85 1.35 11.25H3.875C3.86875 11.2 3.8625 11.1532 3.85626 11.1063L3.85625 11.1063C3.85 11.0594 3.84375 11.0125 3.8375 10.9625L3.825 10.875L3.8125 10.7875C3.775 10.5875 3.75 10.325 3.75 10C3.75 6.55 6.55 3.75 10 3.75C13.45 3.75 16.25 6.55 16.25 10C16.25 10.325 16.225 10.5875 16.1875 10.7875L16.175 10.875L16.1625 10.9625C16.1563 11.0124 16.15 11.0592 16.1438 11.1059L16.1438 11.1063L16.1437 11.1066C16.1375 11.1534 16.1312 11.2001 16.125 11.25H18.65ZM11.25 10C11.25 10.6904 10.6904 11.25 10 11.25C9.30964 11.25 8.75 10.6904 8.75 10C8.75 9.30964 9.30964 8.75 10 8.75C10.6904 8.75 11.25 9.30964 11.25 10ZM3.75 18.75H1.25V16.25V15V12.5H3.75H16.25H18.75V15V16.25V18.75H16.25H3.75ZM3.75 16.25V15H16.25V16.25H3.75ZM12.5 10H15C15 7.2375 12.7625 5 10 5V7.5C11.375 7.5 12.5 8.625 12.5 10Z" fill="#0052D9"/>
</g>
<defs>
<clipPath id="clip0_3_1748">
<rect width="20" height="20" fill="white"/>
</clipPath>
</defs>
</svg>
