<?xml version="1.0" encoding="UTF-8"?>
<svg width="16px" height="16px" viewBox="0 0 16 16" version="1.1" xmlns="http://www.w3.org/2000/svg" xmlns:xlink="http://www.w3.org/1999/xlink">
    <!-- Generator: Sketch 64 (93537) - https://sketch.com -->
    <title>icon/16/搜索</title>
    <desc>Created with Sketch.</desc>
    <g id="icon/16/搜索" stroke="none" stroke-width="1" fill="none" fill-rule="evenodd">
        <path d="M1.90380592,1.90380592 C4.44221382,-0.634601974 8.55778618,-0.634601974 11.0961941,1.90380592 C13.4448806,4.25249249 13.6204221,7.9513983 11.6228186,10.5019164 L12.1561471,11.03609 L12.863961,10.3284271 L15.6923882,13.1568542 L13.5710678,15.2781746 L10.7426407,12.4497475 L11.4490404,11.7431968 L10.9455803,11.2397368 L10.9284421,11.2581435 C8.3795936,13.6334023 4.38703104,13.5794192 1.90380592,11.0961941 C-0.634601974,8.55778618 -0.634601974,4.44221382 1.90380592,1.90380592 Z M3.31801948,3.31801948 C1.56066017,5.0753788 1.56066017,7.9246212 3.31801948,9.68198052 C5.0753788,11.4393398 7.9246212,11.4393398 9.68198052,9.68198052 C11.4393398,7.9246212 11.4393398,5.0753788 9.68198052,3.31801948 C7.9246212,1.56066017 5.0753788,1.56066017 3.31801948,3.31801948 Z" id="形状" fill="#979797" fill-rule="nonzero"/>
    </g>
</svg>