<?xml version="1.0" encoding="UTF-8"?>
<svg width="78px" height="18px" viewBox="0 0 78 18" version="1.1" xmlns="http://www.w3.org/2000/svg" xmlns:xlink="http://www.w3.org/1999/xlink">
    <title>Group 57</title>
    <g id="pc" stroke="none" stroke-width="1" fill="none" fill-rule="evenodd">
        <g id="导航" transform="translate(-20.000000, -22.000000)" fill="#FFFFFF" fill-rule="nonzero">
            <g id="导航logo12" transform="translate(20.000000, 22.000000)">
                <g id="XMLID_25_" transform="translate(29.592488, 1.100000)">
                    <path d="M30.8788968,0.6 L21.8088578,0.6 L21.8088578,1.9 L24.5604427,1.9 L24.5604427,6.7 L21.2993051,6.7 L21.2993051,8 L24.5604427,8 L24.5604427,15.9 L26.089101,15.9 L26.089101,8 L29.5540597,8 L29.5540597,15.6 L32.3056445,15.6 L32.3056445,14.3 L31.0827179,14.3 L31.0827179,0.6 L30.8788968,0.6 Z M25.9871904,6.5 L25.9871904,1.9 L29.5540597,1.9 L29.5540597,6.7 L26.089101,6.7 L26.089101,6.5 L25.9871904,6.5 Z" id="XMLID_38_"></path>
                    <polygon id="XMLID_14_" points="5.60508028 12.2 12.8407294 12.2 12.8407294 13.5 5.60508028 13.5"></polygon>
                    <path d="M0.611463304,9.8 C0.611463304,12.1 0.509552753,14 0,15.5 C0,15.6 0,15.6 0.101910551,15.6 C0.101910551,15.6 1.22292661,15.6 1.42674771,15.6 C1.93630046,13.4 1.93630046,11.6 1.93630046,10.3 L3.77069037,10.3 L3.77069037,14.3 L2.54776377,14.3 C2.44585321,14.3 2.44585321,14.3 2.44585321,14.4 L2.85349542,15.6 L5.19743808,15.6 L5.19743808,0.6 L0.713373854,0.6 L0.611463304,9.8 L0.611463304,9.8 Z M2.03821101,9.2 L2.03821101,6.2 L3.87260092,6.2 L3.87260092,9.4 L2.03821101,9.4 L2.03821101,9.2 Z M3.87260092,1.9 L3.87260092,5 L2.03821101,5 L2.03821101,1.9 L3.87260092,1.9 Z" id="XMLID_33_"></path>
                    <path d="M13.3502821,5.9 L15.0827615,5.9 L15.0827615,4.7 L9.88532341,4.7 C9.98723396,4.3 10.0891445,3.8 10.3948762,3.5 L14.8789404,3.5 L14.8789404,2.3 L13.6560138,2.3 C13.7579243,1.6 14.1655665,0.7 14.1655665,0.7 C14.1655665,0.6 14.1655665,0.6 14.063656,0.6 L12.9426399,0.6 L12.4330872,2.3 L10.8025184,2.3 C10.9044289,1.6 11.0063395,0.8 11.2101606,0.1 C11.2101606,0 11.2101606,0 11.10825,0 C11.0063395,0 10.1910551,0 9.88532341,0 C9.78341286,0.9 9.68150231,1.7 9.37577066,2.4 L8.4585757,2.4 L7.94902295,0.7 L6.82800689,0.7 C6.72609634,0.7 6.72609634,0.7 6.72609634,0.8 C6.72609634,0.9 6.92991744,1.7 7.23564909,2.4 L6.01272249,2.4 L6.01272249,3.6 L8.8662179,3.6 C8.76430735,4 8.6623968,4.5 8.35666515,4.8 L5.60508028,4.8 L5.60508028,6 L7.74520185,6 C6.82800689,7.2 6.01272249,7.7 5.60508028,8 C5.60508028,8.1 5.60508028,9.3 5.60508028,9.3 C5.60508028,9.4 5.70699083,9.4 5.80890138,9.3 C6.21654359,9.2 6.72609634,8.8 7.03182799,8.4 L12.025445,8.4 L12.025445,10.2 L8.15284405,10.2 L8.2547546,9.1 C8.2547546,9 8.2547546,9 8.15284405,9 C8.0509335,9 6.92991744,9 6.92991744,9 L6.82800689,11.2 C6.82800689,11.3 6.82800689,11.3 6.92991744,11.3 C7.03182799,11.3 13.6560138,11.3 13.6560138,11.3 L13.6560138,14.5 L10.7006078,14.5 C10.5986973,14.5 10.5986973,14.5 10.5986973,14.6 L11.0063395,15.8 L15.2865826,15.8 L15.2865826,10.2 L13.6560138,10.2 L13.6560138,7.8 C14.2674771,8.3 14.8789404,8.8 15.4904037,9 C15.5923142,9.1 15.6942248,9.1 15.6942248,9 C15.6942248,9 15.6942248,7.8 15.6942248,7.7 C15.0827615,7.5 14.1655665,7 13.3502821,5.9 Z M11.7197133,5.9 C11.9235344,6.4 12.3311766,6.9 12.7388188,7.2 L8.35666515,7.2 C8.76430735,6.8 8.96812845,6.3 9.37577066,5.9 L11.7197133,5.9 L11.7197133,5.9 Z" id="XMLID_30_"></path>
                    <path d="M22.6241422,11.3 C22.6241422,11.3 21.4012156,12.2 20.178289,13.1 L20.178289,4.7 L16.9171514,4.7 L16.9171514,6.2 L18.7515413,6.2 L18.7515413,14.3 C18.2419886,14.7 17.8343464,14.8 17.8343464,14.8 L18.7515413,15.9 L22.7260528,13 L22.6241422,11.3 C22.9298739,11.3 22.8279633,11.2 22.6241422,11.3 Z" id="XMLID_8_"></path>
                    <path d="M18.9553624,3.4 L20.3821101,3.4 C20.5859312,3.4 20.5859312,3.3 20.5859312,3.3 L18.5477202,0.2 L17.019062,0.2 L16.9171514,0.3 C17.019062,0.4 18.9553624,3.4 18.9553624,3.4 Z" id="XMLID_7_"></path>
                    <rect id="XMLID_6_" x="35.2610505" y="0.9" width="11.4139817" height="1.5"></rect>
                    <path d="M39.4393831,7.8 L48.4075115,7.8 L48.4075115,6.3 L33.6304817,6.3 L33.6304817,7.8 L37.7069037,7.8 C36.7897088,10 34.8534083,15.4 34.7514978,15.5 C34.7514978,15.6 34.7514978,15.6 34.8534083,15.6 L47.5922271,15.6 C47.6941377,15.6 47.6941377,15.5 47.6941377,15.5 L45.8597478,10.6 L44.3310895,10.6 C44.229179,10.6 44.229179,10.7 44.229179,10.7 C44.229179,10.8 45.5540161,14.2 45.5540161,14.2 L37.197351,14.2 L39.4393831,7.8 Z" id="XMLID_5_"></path>
                </g>
                <g id="XMLID_19_">
                    <path d="M21.9491972,14.7 C21.541555,15.1 20.7262706,15.7 19.2995229,15.7 C18.6880595,15.7 17.9746857,15.7 17.668954,15.7 C17.2613118,15.7 14.2039953,15.7 10.5352155,15.7 C13.1848898,13.2 15.4269219,11.1 15.630743,10.9 C15.8345641,10.7 16.3441169,10.2 16.8536696,9.8 C17.8727751,8.9 18.6880595,8.8 19.4014334,8.8 C20.4205389,8.8 21.2358233,9.2 21.9491972,9.8 C23.3759449,11.1 23.3759449,13.4 21.9491972,14.7 L21.9491972,14.7 Z M23.6816765,8.2 C22.662571,7.1 21.1339128,6.4 19.503344,6.4 C18.0765962,6.4 16.8536696,6.9 15.7326536,7.7 C15.3250114,8.1 14.7135481,8.5 14.2039953,9.1 C13.7963531,9.5 5.03204577,17.9 5.03204577,17.9 C5.54159852,18 6.15306182,18 6.66261458,18 C7.17216733,18 17.3632224,18 17.7708646,18 C18.586149,18 19.1976123,18 19.8090756,17.9 C21.1339128,17.8 22.4587499,17.3 23.579766,16.3 C25.9237086,14.1 25.9237086,10.4 23.6816765,8.2 Z" id="XMLID_22_"></path>
                    <path d="M9.41419944,7.6 C8.29318339,6.8 7.17216733,6.4 5.84733017,6.4 C4.21676136,6.4 2.6881031,7.1 1.6689976,8.2 C-0.573034516,10.5 -0.573034516,14.1 1.77090815,16.4 C2.79001365,17.3 3.80911916,17.8 5.03204577,17.9 L7.37598843,15.7 C6.96834623,15.7 6.45879348,15.7 6.05115127,15.7 C4.72631412,15.6 3.91102971,15.2 3.40147696,14.7 C1.97472925,13.3 1.97472925,11.1 3.29956641,9.7 C4.01294026,9 4.82822467,8.7 5.84733017,8.7 C6.45879348,8.7 7.37598843,8.8 8.29318339,9.7 C8.70082559,10.1 9.82184165,10.9 10.2294838,11.3 L10.3313944,11.3 L11.8600527,9.8 L11.8600527,9.7 C11.1466788,9 10.0256627,8.1 9.41419944,7.6" id="XMLID_2_"></path>
                    <path d="M20.1148073,5.1 C18.9937912,2.1 16.0383852,0 12.6753371,0 C8.70082559,0 5.54159852,2.9 4.93013522,6.5 C5.23586687,6.5 5.54159852,6.4 5.94924072,6.4 C6.35688293,6.4 6.86643568,6.5 7.27407788,6.5 L7.27407788,6.5 C7.78363063,4 10.0256627,2.2 12.6753371,2.2 C14.9173692,2.2 16.8536696,3.5 17.7708646,5.4 C17.7708646,5.4 17.8727751,5.5 17.8727751,5.4 C18.586149,5.3 19.4014334,5.1 20.1148073,5.1 C20.1148073,5.2 20.1148073,5.2 20.1148073,5.1" id="XMLID_1_"></path>
                </g>
            </g>
        </g>
    </g>
</svg>