<?xml version="1.0" encoding="utf-8"?>
<!-- Generator: Adobe Illustrator 19.0.0, SVG Export Plug-In . SVG Version: 6.00 Build 0)  -->
<svg version="1.1" id="图层_1" xmlns="http://www.w3.org/2000/svg" xmlns:xlink="http://www.w3.org/1999/xlink" x="0px" y="0px"
	 viewBox="0 0 92 25" style="enable-background:new 0 0 92 25;" xml:space="preserve">
<style type="text/css">
	.st0{fill:#FFFFFF;}
	.st1{fill:#00A3FF;}
	.st2{fill:#00C8DC;}
	.st3{fill:#006EFF;}
</style>
<g id="XMLID_25_">
	<path id="XMLID_38_" class="st0" d="M72.8,4.6h-10V6h3v5.3h-3.5v1.5h3.5v8.9h1.6v-8.9h3.8v8.7h3V20h-1.4V4.6z M67.4,11.3V6h3.8v5.3
		H67.4z"/>
	<rect id="XMLID_14_" x="45" y="17.6" class="st0" width="7.9" height="1.5"/>
	<path id="XMLID_33_" class="st0" d="M39.6,14.9c0,2.6-0.2,4.6-0.7,6.4c0,0.2,0,0.2,0.1,0.2c0,0,1.2,0,1.5,0
		c0.5-2.4,0.5-4.5,0.6-5.9h2v4.5h-1.4c-0.1,0-0.1,0-0.1,0.1l0.4,1.3h2.6V4.6h-4.9V14.9z M41.1,14.3v-3.5h2v3.5H41.1z M43.1,6.1v3.4
		h-2V6.1H43.1z"/>
	<path id="XMLID_30_" class="st0" d="M53.5,10.5h1.9V9.2h-5.7c0.2-0.4,0.3-0.9,0.5-1.4h4.9V6.5h-1.4c0.2-0.8,0.5-1.8,0.5-1.8
		c0-0.1,0-0.1-0.1-0.1h-1.2l-0.6,1.9h-1.7C50.7,5.8,50.8,4.9,51,4c0-0.1,0-0.1-0.1-0.1c-0.1,0-1,0-1.4,0c-0.1,1-0.3,1.9-0.5,2.7
		h-0.9l-0.6-1.9h-1.2c-0.1,0-0.1,0-0.1,0.1c0,0.1,0.3,1,0.5,1.8h-1.4v1.3h3.2c-0.1,0.4-0.3,0.9-0.5,1.4H45v1.3h2.3
		c-0.9,1.3-1.9,1.9-2.3,2.2c0,0.2,0,1.5,0,1.5c0,0.1,0.1,0.2,0.3,0c0.4-0.2,0.9-0.5,1.4-0.9H52l0,2h-4.3l0.1-1.2
		c0-0.1,0-0.1-0.1-0.1c-0.1,0-1.4,0-1.4,0l-0.1,2.5c0,0.1,0,0.1,0.1,0.1c0.1,0,7.4,0,7.4,0v3.5h-3.3c-0.1,0-0.1,0-0.1,0.1l0.4,1.3
		h4.6v-6.3h-1.8l0.1-2.5c0.7,0.6,1.4,1.1,2,1.4c0.2,0.1,0.3,0.1,0.3,0c0,0,0-1.3,0-1.5C55.4,12.4,54.4,11.8,53.5,10.5z M51.7,10.5
		c0.3,0.6,0.7,1.1,1.1,1.5h-4.8c0.4-0.4,0.7-0.9,1.1-1.5H51.7z"/>
	<path id="XMLID_8_" class="st0" d="M63.8,16.6c0,0-1.4,1-2.7,2V9.2h-3.7v1.6h2.1v9c-0.5,0.4-0.9,0.6-0.9,0.6l0.9,1.2l4.4-3.3
		c0,0,0-1.6,0-1.6C64,16.6,63.9,16.5,63.8,16.6z"/>
	<path id="XMLID_7_" class="st0" d="M59.7,7.7c0,0,1.7,0,1.7,0c0.1,0,0.1-0.1,0.1-0.1c0,0-2.2-3.4-2.2-3.4s-1.7,0-1.7,0
		s-0.1,0.1-0.1,0.1C57.6,4.4,59.7,7.7,59.7,7.7z"/>
	<rect id="XMLID_6_" x="77.6" y="5" class="st0" width="12.6" height="1.6"/>
	<path id="XMLID_5_" class="st0" d="M82.2,12.6H92V11H75.8v1.6h4.5c-0.9,2.4-3.2,8.5-3.3,8.6c0,0.1,0,0.1,0.1,0.1c0,0,13.9,0,13.9,0
		c0.1,0,0.1-0.1,0.1-0.1c0,0-2.1-5.5-2.1-5.5s-1.7,0-1.7,0c-0.1,0-0.1,0.1-0.1,0.1c0,0.1,1.5,3.9,1.5,3.9h-9.2L82.2,12.6z"/>
</g>
<g id="XMLID_19_">
	<path id="XMLID_22_" class="st1" d="M29.5,20.6c-0.6,0.6-1.7,1.3-3.5,1.3c-0.8,0-1.8,0-2.2,0c-0.5,0-4.7,0-9.5,0
		c3.5-3.4,6.5-6.3,6.8-6.6c0.3-0.3,1-1,1.6-1.5c1.3-1.2,2.5-1.4,3.4-1.4c1.3,0,2.5,0.6,3.4,1.4C31.4,15.7,31.4,18.7,29.5,20.6
		 M31.8,11.6c-1.4-1.5-3.4-2.4-5.6-2.4c-1.9,0-3.5,0.7-5,1.8c-0.6,0.5-1.3,1.1-2.1,1.9C18.6,13.4,6.8,24.9,6.8,24.9
		C7.4,25,8.2,25,9,25c0.7,0,14.4,0,14.9,0c1.1,0,1.9,0,2.7-0.1c1.8-0.1,3.6-0.8,5-2.2C34.8,19.7,34.8,14.7,31.8,11.6z"/>
	<path id="XMLID_2_" class="st2" d="M12.6,10.9c-1.4-1-3-1.6-4.7-1.6c-2.2,0-4.2,0.9-5.6,2.4c-3,3.1-3,8.1,0.1,11.2
		c1.3,1.2,2.8,1.9,4.4,2.1l3.1-3c-0.5,0-1.2,0-1.8,0c-1.8-0.1-2.9-0.7-3.5-1.3c-1.9-1.9-1.9-4.9-0.1-6.8c0.9-0.9,2.1-1.4,3.4-1.4
		c0.8,0,2,0.2,3.3,1.3c0.6,0.5,2,1.7,2.6,2.2c0,0,0.1,0,0.1,0l2.1-2.1c0,0,0-0.1,0-0.1C14.9,12.8,13.5,11.5,12.6,10.9"/>
	<path id="XMLID_1_" class="st3" d="M27,7.5c-1.5-4.1-5.4-7-10-7c-5.3,0-9.6,3.9-10.4,8.9C7,9.3,7.4,9.2,7.9,9.2
		c0.6,0,1.2,0.1,1.8,0.2c0,0,0,0,0,0C10.4,6,13.4,3.5,17,3.5c3,0,5.6,1.8,6.8,4.4c0,0,0.1,0.1,0.1,0c0.9-0.2,2-0.4,3-0.3
		C27,7.6,27,7.5,27,7.5"/>
</g>
</svg>
