<svg width="20" height="20" viewBox="0 0 20 20" fill="none" xmlns="http://www.w3.org/2000/svg">
<path d="M6.25 7.5C6.25 5.42893 7.92893 3.75 10 3.75C12.0711 3.75 13.75 5.42893 13.75 7.5V15C13.75 15.6904 13.1904 16.25 12.5 16.25V18.75C14.5711 18.75 16.25 17.0711 16.25 15V7.5C16.25 4.04822 13.4518 1.25 10 1.25C6.54822 1.25 3.75 4.04822 3.75 7.5H6.25Z" fill="#0052D9"/>
<path d="M3.75 7.5H6.25V15H3.75C1.67893 15 0 13.3211 0 11.25C0 9.17893 1.67893 7.5 3.75 7.5ZM2.5 11.25C2.5 11.9404 3.05964 12.5 3.75 12.5V10C3.05964 10 2.5 10.5596 2.5 11.25Z" fill="#0052D9"/>
<path d="M16.25 15H13.75V7.5H16.25C18.3211 7.5 20 9.17893 20 11.25C20 13.3211 18.3211 15 16.25 15ZM17.5 11.25C17.5 10.5596 16.9404 10 16.25 10V12.5C16.9404 12.5 17.5 11.9404 17.5 11.25Z" fill="#0052D9"/>
<path d="M12.5 15H8.75V18.75H12.5V15Z" fill="#0052D9"/>
</svg>
