<svg width="16" height="16" viewBox="0 0 16 16" fill="none" xmlns="http://www.w3.org/2000/svg">
<path fill-rule="evenodd" clip-rule="evenodd" d="M8.00624 2.22532L7.59335 1.50308C6.76856 0.0603558 4.90836 -0.425588 3.46916 0.405334C2.29154 1.08523 1.73361 2.45306 2.03433 3.71757H0V9.71757H1V15.7176H15V9.71757H16V3.71757H13.9782C14.2789 2.45306 13.7209 1.08523 12.5433 0.405334C11.1041 -0.425588 9.24392 0.0603558 8.41914 1.50308L8.00624 2.22532ZM6.54742 3.7033L5.85705 2.4957C5.59189 2.03188 4.96602 1.85052 4.46916 2.13738C3.98086 2.4193 3.82036 3.03733 4.07427 3.49758L4.18775 3.7033H6.54742ZM14 5.71757H2V7.71757H14V5.71757ZM7 9.71757H3V13.7176H7V9.71757ZM9 13.7176V9.71757H13V13.7176H9ZM10.1554 2.4957L9.46506 3.7033H11.8247L11.9382 3.49758C12.1921 3.03733 12.0316 2.4193 11.5433 2.13738C11.0465 1.85052 10.4206 2.03188 10.1554 2.4957Z" fill="#FF7800"/>
</svg>
