<?xml version="1.0" encoding="utf-8"?>
<!-- Generator: Adobe Illustrator 19.0.0, SVG Export Plug-In . SVG Version: 6.00 Build 0)  -->
<svg version="1.1" id="图层_1" xmlns="http://www.w3.org/2000/svg" xmlns:xlink="http://www.w3.org/1999/xlink" x="0px" y="0px"
	 width="32px" height="32px" viewBox="-289 381 32 32" enable-background="new -289 381 32 32" xml:space="preserve">
<g id="XMLID_2_">
	<g id="XMLID_42_">
		<path id="XMLID_43_" fill="#FFFFFF" d="M-285.5,390h25c0.8,0,1.5-0.7,1.5-1.5s-0.7-1.5-1.5-1.5h-25c-0.8,0-1.5,0.7-1.5,1.5
			S-286.3,390-285.5,390z M-260.5,396h-25c-0.8,0-1.5,0.7-1.5,1.5s0.7,1.5,1.5,1.5h25c0.8,0,1.5-0.7,1.5-1.5S-259.7,396-260.5,396z
			 M-260.5,405h-25c-0.8,0-1.5,0.7-1.5,1.5s0.7,1.5,1.5,1.5h25c0.8,0,1.5-0.7,1.5-1.5S-259.7,405-260.5,405z"/>
	</g>
</g>
</svg>
