<?xml version="1.0" encoding="UTF-8"?>
<svg width="18px" height="19px" viewBox="0 0 18 19" version="1.1" xmlns="http://www.w3.org/2000/svg" xmlns:xlink="http://www.w3.org/1999/xlink">
    <title>03</title>
    <g id="pc" stroke="none" stroke-width="1" fill="none" fill-rule="evenodd">
        <g id="导航-产品推荐" transform="translate(-546.000000, -385.000000)" fill="#0053D9" fill-rule="nonzero">
            <path d="M550.464,403.144 C550.944,403.144 551.404,403.06 551.844,402.892 C552.284,402.724 552.672,402.48 553.008,402.16 C553.344,401.84 553.612,401.456 553.812,401.008 C554.012,400.56 554.112,400.048 554.112,399.472 L554.112,399.472 L554.112,389.44 C554.112,388.864 554.012,388.352 553.812,387.904 C553.612,387.456 553.344,387.072 553.008,386.752 C552.672,386.432 552.284,386.188 551.844,386.02 C551.404,385.852 550.944,385.768 550.464,385.768 C549.984,385.768 549.524,385.852 549.084,386.02 C548.644,386.188 548.256,386.432 547.92,386.752 C547.584,387.072 547.316,387.456 547.116,387.904 C546.916,388.352 546.816,388.864 546.816,389.44 L546.816,389.44 L546.816,399.472 C546.816,400.048 546.916,400.56 547.116,401.008 C547.316,401.456 547.584,401.84 547.92,402.16 C548.256,402.48 548.644,402.724 549.084,402.892 C549.524,403.06 549.984,403.144 550.464,403.144 Z M550.464,400.696 C550.112,400.696 549.824,400.58 549.6,400.348 C549.376,400.116 549.264,399.824 549.264,399.472 L549.264,399.472 L549.264,389.44 C549.264,389.088 549.376,388.796 549.6,388.564 C549.824,388.332 550.112,388.216 550.464,388.216 C550.816,388.216 551.104,388.332 551.328,388.564 C551.552,388.796 551.664,389.088 551.664,389.44 L551.664,389.44 L551.664,399.472 C551.664,399.824 551.552,400.116 551.328,400.348 C551.104,400.58 550.816,400.696 550.464,400.696 Z M559.368,403.144 C560.136,403.144 560.756,402.996 561.228,402.7 C561.7,402.404 562.088,402.032 562.392,401.584 C562.52,401.392 562.624,401.208 562.704,401.032 C562.784,400.856 562.848,400.64 562.896,400.384 C562.944,400.144 562.98,399.84 563.004,399.472 C563.028,399.104 563.04,398.64 563.04,398.08 C563.04,397.472 563.032,396.972 563.016,396.58 C563,396.188 562.944,395.848 562.848,395.56 C562.752,395.288 562.604,395.048 562.404,394.84 C562.204,394.632 561.912,394.408 561.528,394.168 C561.88,393.96 562.156,393.768 562.356,393.592 C562.556,393.416 562.712,393.2 562.824,392.944 C562.92,392.704 562.98,392.4 563.004,392.032 C563.028,391.664 563.04,391.184 563.04,390.592 C563.04,389.552 562.968,388.768 562.824,388.24 C562.744,387.968 562.644,387.736 562.524,387.544 C562.404,387.352 562.264,387.16 562.104,386.968 C561.88,386.696 561.548,386.428 561.108,386.164 C560.668,385.9 560.112,385.768 559.44,385.768 C558.928,385.768 558.448,385.864 558,386.056 C557.552,386.248 557.16,386.504 556.824,386.824 C556.488,387.144 556.224,387.528 556.032,387.976 C555.84,388.424 555.744,388.896 555.744,389.392 L555.744,389.392 L555.744,390.808 L558.192,390.808 L558.192,389.416 C558.192,389.16 558.284,388.896 558.468,388.624 C558.652,388.352 558.96,388.216 559.392,388.216 C559.76,388.216 560.052,388.328 560.268,388.552 C560.484,388.776 560.592,389.064 560.592,389.416 L560.592,389.416 L560.592,391.624 C560.592,392.264 560.452,392.672 560.172,392.848 C559.892,393.024 559.384,393.112 558.648,393.112 L558.648,393.112 L558.648,395.272 C559.048,395.272 559.372,395.288 559.62,395.32 C559.868,395.352 560.064,395.432 560.208,395.56 C560.464,395.768 560.592,396.208 560.592,396.88 L560.592,396.88 L560.592,399.328 C560.592,399.744 560.484,400.076 560.268,400.324 C560.052,400.572 559.76,400.696 559.392,400.696 C559.024,400.696 558.732,400.572 558.516,400.324 C558.3,400.076 558.192,399.76 558.192,399.376 L558.192,399.376 L558.192,398.104 L555.744,398.104 L555.744,399.496 C555.744,400.168 555.86,400.736 556.092,401.2 C556.324,401.664 556.616,402.04 556.968,402.328 C557.32,402.616 557.712,402.824 558.144,402.952 C558.576,403.08 558.984,403.144 559.368,403.144 Z" id="03"></path>
        </g>
    </g>
</svg>