<?xml version="1.0" encoding="UTF-8"?>
<svg width="18px" height="19px" viewBox="0 0 18 19" version="1.1" xmlns="http://www.w3.org/2000/svg" xmlns:xlink="http://www.w3.org/1999/xlink">
    <title>02</title>
    <g id="pc" stroke="none" stroke-width="1" fill="none" fill-rule="evenodd">
        <g id="导航-产品推荐" transform="translate(-546.000000, -309.000000)" fill="#0053D9" fill-rule="nonzero">
            <path d="M550.464,327.144 C550.944,327.144 551.404,327.06 551.844,326.892 C552.284,326.724 552.672,326.48 553.008,326.16 C553.344,325.84 553.612,325.456 553.812,325.008 C554.012,324.56 554.112,324.048 554.112,323.472 L554.112,323.472 L554.112,313.44 C554.112,312.864 554.012,312.352 553.812,311.904 C553.612,311.456 553.344,311.072 553.008,310.752 C552.672,310.432 552.284,310.188 551.844,310.02 C551.404,309.852 550.944,309.768 550.464,309.768 C549.984,309.768 549.524,309.852 549.084,310.02 C548.644,310.188 548.256,310.432 547.92,310.752 C547.584,311.072 547.316,311.456 547.116,311.904 C546.916,312.352 546.816,312.864 546.816,313.44 L546.816,313.44 L546.816,323.472 C546.816,324.048 546.916,324.56 547.116,325.008 C547.316,325.456 547.584,325.84 547.92,326.16 C548.256,326.48 548.644,326.724 549.084,326.892 C549.524,327.06 549.984,327.144 550.464,327.144 Z M550.464,324.696 C550.112,324.696 549.824,324.58 549.6,324.348 C549.376,324.116 549.264,323.824 549.264,323.472 L549.264,323.472 L549.264,313.44 C549.264,313.088 549.376,312.796 549.6,312.564 C549.824,312.332 550.112,312.216 550.464,312.216 C550.816,312.216 551.104,312.332 551.328,312.564 C551.552,312.796 551.664,313.088 551.664,313.44 L551.664,313.44 L551.664,323.472 C551.664,323.824 551.552,324.116 551.328,324.348 C551.104,324.58 550.816,324.696 550.464,324.696 Z M563.04,327 L563.04,324.552 L558.624,324.552 L562.224,317.616 C562.416,317.248 562.568,316.936 562.68,316.68 C562.792,316.424 562.872,316.168 562.92,315.912 C562.968,315.656 563,315.388 563.016,315.108 C563.032,314.828 563.04,314.48 563.04,314.064 C563.04,313.488 562.972,312.944 562.836,312.432 C562.7,311.92 562.488,311.464 562.2,311.064 C561.896,310.664 561.516,310.348 561.06,310.116 C560.604,309.884 560.056,309.768 559.416,309.768 C558.904,309.768 558.424,309.868 557.976,310.068 C557.528,310.268 557.144,310.536 556.824,310.872 C556.488,311.208 556.224,311.6 556.032,312.048 C555.84,312.496 555.744,312.976 555.744,313.488 L555.744,313.488 L555.744,314.832 L558.192,314.832 L558.192,313.44 C558.192,313.04 558.3,312.736 558.516,312.528 C558.732,312.32 559.024,312.216 559.392,312.216 C559.696,312.216 559.928,312.276 560.088,312.396 C560.248,312.516 560.368,312.664 560.448,312.84 C560.528,313.016 560.572,313.22 560.58,313.452 C560.588,313.684 560.592,313.904 560.592,314.112 C560.592,314.576 560.576,314.964 560.544,315.276 C560.512,315.588 560.384,315.952 560.16,316.368 L560.16,316.368 L555.744,324.696 L555.744,327 L563.04,327 Z" id="02"></path>
        </g>
    </g>
</svg>