<?xml version="1.0" encoding="UTF-8"?>
<svg width="16px" height="19px" viewBox="0 0 16 19" version="1.1" xmlns="http://www.w3.org/2000/svg" xmlns:xlink="http://www.w3.org/1999/xlink">
    <title>01</title>
    <g id="pc" stroke="none" stroke-width="1" fill="none" fill-rule="evenodd">
        <g id="导航-产品推荐" transform="translate(-546.000000, -233.000000)" fill="#0053D9" fill-rule="nonzero">
            <path d="M550.464,251.144 C550.944,251.144 551.404,251.06 551.844,250.892 C552.284,250.724 552.672,250.48 553.008,250.16 C553.344,249.84 553.612,249.456 553.812,249.008 C554.012,248.56 554.112,248.048 554.112,247.472 L554.112,247.472 L554.112,237.44 C554.112,236.864 554.012,236.352 553.812,235.904 C553.612,235.456 553.344,235.072 553.008,234.752 C552.672,234.432 552.284,234.188 551.844,234.02 C551.404,233.852 550.944,233.768 550.464,233.768 C549.984,233.768 549.524,233.852 549.084,234.02 C548.644,234.188 548.256,234.432 547.92,234.752 C547.584,235.072 547.316,235.456 547.116,235.904 C546.916,236.352 546.816,236.864 546.816,237.44 L546.816,237.44 L546.816,247.472 C546.816,248.048 546.916,248.56 547.116,249.008 C547.316,249.456 547.584,249.84 547.92,250.16 C548.256,250.48 548.644,250.724 549.084,250.892 C549.524,251.06 549.984,251.144 550.464,251.144 Z M550.464,248.696 C550.112,248.696 549.824,248.58 549.6,248.348 C549.376,248.116 549.264,247.824 549.264,247.472 L549.264,247.472 L549.264,237.44 C549.264,237.088 549.376,236.796 549.6,236.564 C549.824,236.332 550.112,236.216 550.464,236.216 C550.816,236.216 551.104,236.332 551.328,236.564 C551.552,236.796 551.664,237.088 551.664,237.44 L551.664,237.44 L551.664,247.472 C551.664,247.824 551.552,248.116 551.328,248.348 C551.104,248.58 550.816,248.696 550.464,248.696 Z M561.096,251 L561.096,233.912 L558.648,233.912 L556.2,235.712 L556.2,238.304 L558.648,236.504 L558.648,251 L561.096,251 Z" id="01"></path>
        </g>
    </g>
</svg>