<svg width="20" height="20" viewBox="0 0 20 20" fill="none" xmlns="http://www.w3.org/2000/svg">
<path d="M3.75 18.75H1.25C1.25 15.2988 4.04875 12.5 7.5 12.5V15C5.4325 15 3.75 16.6825 3.75 18.75ZM12.5 15H7.5V12.5H12.5V15ZM5 6.25C5 3.48875 7.23875 1.25 10 1.25C12.7613 1.25 15 3.48875 15 6.25C15 9.01125 12.7613 11.25 10 11.25C7.23875 11.25 5 9.01125 5 6.25ZM10 8.75C11.3813 8.75 12.5 7.63125 12.5 6.25C12.5 4.86875 11.3813 3.75 10 3.75C8.61875 3.75 7.5 4.86875 7.5 6.25C7.5 7.63125 8.61875 8.75 10 8.75Z" fill="#0052D9"/>
<path d="M13.75 12.5H18.75V18.75L16.1863 16.25L13.75 18.75V12.5Z" fill="#0052D9"/>
</svg>
