<?xml version="1.0" encoding="UTF-8"?>
<svg width="16px" height="16px" viewBox="0 0 16 16" version="1.1" xmlns="http://www.w3.org/2000/svg" xmlns:xlink="http://www.w3.org/1999/xlink">
    <!-- Generator: Sketch 61.2 (89653) - https://sketch.com -->
    <title>编组备份 3</title>
    <desc>Created with Sketch.</desc>
    <g id="页面-1" stroke="none" stroke-width="1" fill="none" fill-rule="evenodd">
        <g id="04反馈页（博客）" transform="translate(-442.000000, -488.000000)" fill="#C7000B" fill-rule="nonzero">
            <g id="编组" transform="translate(360.000000, 418.000000)">
                <g id="编组-4备份-3" transform="translate(32.000000, 68.000000)">
                    <g id="编组备份-3" transform="translate(48.000000, 0.000000)">
                        <path d="M9.9793428,2 C10.1788264,2 10.3783099,2.1 10.4780517,2.2 L10.4780517,2.3 L12.672371,6.9 L17.4599767,7.6 C17.6594602,7.6 17.8589438,7.8 17.9586856,8 C18.0584274,8.2 17.9586856,8.4 17.8589438,8.5 L17.759202,8.6 L14.2682396,12.2 L15.0661738,17.2 C15.0661738,17.3 15.0661738,17.3 15.0661738,17.4 C15.0661738,17.7 14.8666903,17.9 14.5674649,18 L14.4677231,18 C14.3679813,18 14.3679813,18 14.2682396,18 L14.1684978,18 L9.9793428,15.5 L5.69044604,17.9 C5.49096247,18 5.2914789,18 5.09199533,17.9 C4.89251176,17.8 4.89251176,17.6 4.89251176,17.4 L4.89251176,17.3 L5.69044604,12.2 L2.19948357,8.6 C2,8.5 2,8.2 2,8 C2.09974178,7.8 2.19948357,7.7 2.39896714,7.6 L2.49870892,7.6 L7.2863146,6.9 L9.48063387,2.3 C9.58037566,2.1 9.77985923,2 9.9793428,2 Z" id="路径-path备份-4"></path>
                    </g>
                </g>
            </g>
        </g>
    </g>
</svg>