<?xml version="1.0" encoding="UTF-8"?>
<svg width="20px" height="20px" viewBox="0 0 20 20" version="1.1" xmlns="http://www.w3.org/2000/svg" xmlns:xlink="http://www.w3.org/1999/xlink">
    <title>Public Icon / 16 / dropdown-M / active</title>
    <g id="页面-1" stroke="none" stroke-width="1" fill="none" fill-rule="evenodd">
        <g id="1.1最新活动-normal" transform="translate(-365.000000, -136.000000)" fill="#000000">
            <g id="编组" transform="translate(365.000000, 136.000000)">
                <g id="Public-Icon-/-16-/-dropdown-M-/-active" transform="translate(10.000000, 10.000000) rotate(-270.000000) translate(-10.000000, -10.000000) ">
                    <path d="M17.2308634,5.8687823 C17.598201,5.52443376 18.1708662,5.54769623 18.509947,5.92074048 C18.8182023,6.25987162 18.8272944,6.77133129 18.5504138,7.12023537 L18.4587837,7.21969505 L11.4325736,13.8061853 C10.6711126,14.519992 9.52167404,14.5619806 8.71456863,13.9321512 L8.56742638,13.8061853 L1.54121634,7.21969505 C1.1738788,6.8753465 1.15097219,6.29378474 1.490053,5.92074048 C1.79830828,5.58160934 2.29960854,5.53155406 2.66419261,5.78396999 L2.76913659,5.8687823 L9.79534663,12.4552726 C9.89166238,12.5455606 10.0314295,12.5606086 10.1422291,12.5004166 L10.2046534,12.4552726 L17.2308634,5.8687823 Z" id="Path-12-Copy" transform="translate(10.000000, 10.000000) scale(1, -1) translate(-10.000000, -10.000000) "></path>
                </g>
            </g>
        </g>
    </g>
</svg>