<svg width="16" height="16" viewBox="0 0 16 16" fill="none" xmlns="http://www.w3.org/2000/svg">
<g clip-path="url(#clip0_0_37)">
<path d="M12.0962 2.90381C14.394 5.20158 14.6118 8.79167 12.7497 11.3345L15.6317 14.2175L14.2175 15.6317L11.3345 12.7497C8.79167 14.6118 5.20158 14.394 2.90381 12.0962C0.365398 9.55779 0.365398 5.44221 2.90381 2.90381C5.44221 0.365398 9.55779 0.365398 12.0962 2.90381ZM4.31802 4.31802C2.56066 6.07538 2.56066 8.92462 4.31802 10.682C6.07538 12.4393 8.92462 12.4393 10.682 10.682C12.4393 8.92462 12.4393 6.07538 10.682 4.31802C8.92462 2.56066 6.07538 2.56066 4.31802 4.31802Z" fill="#0053d9"/>
</g>
<defs>
<clipPath id="clip0_0_37">
<rect width="16" height="16" fill="white"/>
</clipPath>
</defs>
</svg>
