<?xml version="1.0" encoding="UTF-8"?>
<svg width="74px" height="66px" viewBox="0 0 74 66" version="1.1" xmlns="http://www.w3.org/2000/svg" xmlns:xlink="http://www.w3.org/1999/xlink">
    <!-- Generator: Sketch 64 (93537) - https://sketch.com -->
    <title>label/新用户</title>
    <desc>Created with Sketch.</desc>
    <defs>
        <path d="M21.0109994,24.4410039 L21.0109994,23.3850039 L18.7909994,23.3850039 C18.6469994,22.9890039 18.4909994,22.6290039 18.3469994,22.3050039 L17.1709994,22.4970039 C17.3509994,22.7730039 17.5189994,23.0730039 17.6629994,23.3850039 L15.5269994,23.3850039 L15.5269994,24.4410039 L21.0109994,24.4410039 Z M25.2349994,33.5250039 L25.2349994,27.2370039 L26.3869994,27.2370039 L26.3869994,26.1450039 L22.6789994,26.1450039 L22.6789994,24.2010039 C23.9269994,24.1170039 25.0669994,23.9010039 26.0989994,23.5410039 L25.5469994,22.5330039 C24.3709994,22.9890039 23.0509994,23.2410039 21.5749994,23.2650039 L21.5749994,28.4490039 C21.5269994,30.2370039 21.1549994,31.6290039 20.4709994,32.6370039 L21.2749994,33.5010039 C22.1509994,32.2410039 22.6189994,30.5610039 22.6789994,28.4490039 L22.6789994,27.2370039 L24.1189994,27.2370039 L24.1189994,33.5250039 L25.2349994,33.5250039 Z M17.6749994,33.5610039 C18.4669994,33.5610039 18.8629994,33.2010039 18.8629994,32.4810039 L18.8629994,29.2650039 L20.8789994,29.2650039 L20.8789994,28.2330039 L18.8629994,28.2330039 L18.8629994,27.1530039 L21.0829994,27.1530039 L21.0829994,26.1090039 L19.8589994,26.1090039 C20.0389994,25.7490039 20.2069994,25.3530039 20.3509994,24.9090039 L19.3309994,24.5490039 C19.1869994,25.0890039 19.0189994,25.6050039 18.8269994,26.1090039 L17.6869994,26.1090039 C17.5189994,25.5090039 17.3269994,24.9930039 17.1349994,24.5610039 L16.1389994,24.9330039 C16.3429994,25.2930039 16.5229994,25.6890039 16.6789994,26.1090039 L15.4069994,26.1090039 L15.4069994,27.1530039 L17.7349994,27.1530039 L17.7349994,28.2330039 L15.5989994,28.2330039 L15.5989994,29.2650039 L17.7349994,29.2650039 L17.7349994,32.2170039 C17.7349994,32.4570039 17.5909994,32.5770039 17.3029994,32.5770039 C17.1469994,32.5770039 16.9789994,32.5530039 16.7989994,32.5050039 L17.0509994,33.5610039 L17.6749994,33.5610039 Z M19.8589994,32.1570039 L20.8189994,31.7970039 C20.6389994,31.1730039 20.3869994,30.4770039 20.0749994,29.7090039 L19.1389994,29.9610039 C19.4269994,30.6810039 19.6669994,31.4130039 19.8589994,32.1570039 Z M16.1389994,33.1770039 C16.6669994,32.2770039 17.0629994,31.2210039 17.3509994,30.0090039 L16.3189994,29.7930039 C16.1029994,30.7770039 15.7309994,31.7130039 15.2029994,32.5770039 L16.1389994,33.1770039 Z M28.1509994,33.4290039 C28.8949994,32.4450039 29.3389994,31.1970039 29.4829994,29.6850039 L32.3029994,29.6850039 L32.3029994,33.1050039 L33.4549994,33.1050039 L33.4549994,29.6850039 L36.4309994,29.6850039 L36.4309994,31.4730039 C36.4309994,31.9410039 36.2269994,32.1810039 35.8429994,32.1810039 C35.4349994,32.1810039 35.0029994,32.1570039 34.5349994,32.1210039 L34.8349994,33.2370039 L36.2149994,33.2370039 C37.1269994,33.2370039 37.5949994,32.7810039 37.5949994,31.8810039 L37.5949994,22.8450039 L28.3909994,22.8450039 L28.3909994,28.7250039 C28.3669994,30.3090039 27.9949994,31.6170039 27.2749994,32.6490039 L28.1509994,33.4290039 Z M36.4309994,25.7490039 L33.4549994,25.7490039 L33.4549994,23.9490039 L36.4309994,23.9490039 L36.4309994,25.7490039 Z M32.3029994,25.7490039 L29.5429994,25.7490039 L29.5429994,23.9490039 L32.3029994,23.9490039 L32.3029994,25.7490039 Z M32.3029994,28.6290039 L29.5429994,28.6290039 L29.5429994,26.7930039 L32.3029994,26.7930039 L32.3029994,28.6290039 Z M36.4309994,28.6290039 L33.4549994,28.6290039 L33.4549994,26.7930039 L36.4309994,26.7930039 L36.4309994,28.6290039 Z M40.0189994,33.5730039 C41.0629994,32.0370039 41.6149994,30.2010039 41.6869994,28.0890039 L49.3909994,28.0890039 L49.3909994,23.8170039 L45.5869994,23.8170039 C45.3949994,23.2770039 45.2029994,22.7850039 44.9989994,22.3410039 L43.7749994,22.5330039 C44.0149994,22.9290039 44.2309994,23.3610039 44.4229994,23.8170039 L40.5709994,23.8170039 L40.5709994,27.7410039 C40.5589994,29.8050039 40.0909994,31.4970039 39.1789994,32.8050039 L40.0189994,33.5730039 Z M48.2389994,26.9730039 L41.6989994,26.9730039 L41.6989994,24.9330039 L48.2389994,24.9330039 L48.2389994,26.9730039 Z M59.5429994,33.6090039 L60.1669994,32.6250039 C59.5669994,32.3610039 58.9429994,32.1090039 58.2949994,31.8690039 C59.4469994,31.0410039 60.2989994,30.2250039 60.8509994,29.4090039 L60.8509994,28.4250039 L55.2949994,28.4250039 C55.4389994,28.0050039 55.5709994,27.5610039 55.7149994,27.0810039 L62.2549994,27.0810039 L62.2549994,25.9890039 L56.0149994,25.9890039 C56.1109994,25.6050039 56.2069994,25.1970039 56.3029994,24.7770039 L61.5469994,24.7770039 L61.5469994,23.7090039 L56.5309994,23.7090039 C56.6029994,23.3010039 56.6869994,22.8690039 56.7709994,22.4250039 L55.5949994,22.3290039 L55.3189994,23.7090039 L55.3189994,23.7090039 L52.2229994,23.7090039 L52.2229994,24.7770039 L55.0789994,24.7770039 L54.7789994,25.9890039 L54.7789994,25.9890039 L51.4069994,25.9890039 L51.4069994,27.0810039 L54.4669994,27.0810039 C54.2149994,27.9090039 53.9509994,28.7010039 53.6629994,29.4690039 L59.4709994,29.4690039 C58.8829994,30.1410039 58.0789994,30.7890039 57.0589994,31.4370039 C56.2909994,31.1730039 55.4869994,30.9450039 54.6469994,30.7290039 L54.0469994,31.6170039 C55.9189994,32.0970039 57.7549994,32.7690039 59.5429994,33.6090039 Z M74.0749994,24.4050039 L74.0749994,23.3370039 L69.3349994,23.3370039 C69.1789994,23.0010039 69.0229994,22.6890039 68.8549994,22.4130039 L67.5349994,22.6170039 C67.7149994,22.8330039 67.8829994,23.0730039 68.0389994,23.3370039 L63.5869994,23.3370039 L63.5869994,24.4050039 L74.0749994,24.4050039 Z M72.5509994,27.5370039 L72.5509994,24.9330039 L65.1229994,24.9330039 L65.1229994,27.5370039 L72.5509994,27.5370039 Z M71.4469994,26.5650039 L66.2269994,26.5650039 L66.2269994,25.8930039 L71.4469994,25.8930039 L71.4469994,26.5650039 Z M68.3869994,33.5130039 C69.1909994,33.5130039 69.5989994,33.0930039 69.5989994,32.2650039 L69.5989994,31.3770039 L74.3389994,31.3770039 L74.3389994,30.3450039 L69.5989994,30.3450039 L69.5989994,30.2850039 C70.8949994,29.7810039 72.0469994,29.3130039 73.0309994,28.8810039 L73.0309994,28.0770039 L64.4869994,28.0770039 L64.4869994,29.0850039 L70.7509994,29.0850039 L68.4829994,29.9970039 L68.4829994,30.3450039 L63.3229994,30.3450039 L63.3229994,31.3770039 L68.4829994,31.3770039 L68.4829994,31.9410039 C68.4829994,32.3490039 68.2909994,32.5650039 67.9309994,32.5650039 C67.5589994,32.5650039 67.0549994,32.5290039 66.4189994,32.4810039 L66.7189994,33.5130039 L68.3869994,33.5130039 Z" id="path-1"></path>
    </defs>
    <g id="label/新用户" stroke="none" stroke-width="1" fill="none" fill-rule="evenodd">
        <polygon id="Path-4" fill="#FF6000" points="1.4281909e-12 2.84217094e-14 74 66 74 41 29 2.84217094e-14"></polygon>
        <polygon id="矩形" fill="#F53F00" points="0 0 4.49221802 4 0 4"></polygon>
        <polygon id="矩形" fill="#F53F00" points="70 62.3978271 74 66 70 66"></polygon>
        <g id="新用户专享" fill-rule="nonzero" transform="translate(44.770999, 27.957004) rotate(42.000000) translate(-44.770999, -27.957004) " fill="#FFFFFF">
            <use xlink:href="#path-1"></use>
            <use xlink:href="#path-1"></use>
        </g>
    </g>
</svg>