<?xml version="1.0" encoding="UTF-8"?>
<svg width="74px" height="66px" viewBox="0 0 74 66" version="1.1" xmlns="http://www.w3.org/2000/svg" xmlns:xlink="http://www.w3.org/1999/xlink">
    <title>label/企业用户</title>
    <g id="label/企业用户" stroke="none" stroke-width="1" fill="none" fill-rule="evenodd">
        <polygon id="Path-4" fill="#00A4FF" points="1.4281909e-12 2.84217094e-14 74 66 74 41 29 2.84217094e-14"></polygon>
        <polygon id="矩形" fill="#006EFF" points="0 0 4.49221802 4 0 4"></polygon>
        <polygon id="矩形" fill="#006EFF" points="70 62.3978271 74 66 70 66"></polygon>
        <path d="M15.948,26.164 C18.036,25.048 19.728,23.728 21,22.192 C22.38,23.824 24.048,25.144 26.004,26.152 L26.628,25.048 C24.66,24.112 22.932,22.816 21.42,21.172 L20.58,21.172 C19.188,22.732 17.436,24.028 15.336,25.06 L15.948,26.164 Z M25.956,31.804 L25.956,30.7 L21.912,30.7 L21.912,28.06 L25.092,28.06 L25.092,26.968 L21.912,26.968 L21.912,24.4 L20.772,24.4 L20.772,30.7 L18.756,30.7 L18.756,26.128 L17.628,26.128 L17.628,30.7 L15.9,30.7 L15.9,31.804 L25.956,31.804 Z M38.352,31.804 L38.352,30.688 L34.848,30.688 L34.848,21.256 L33.708,21.256 L33.708,30.688 L32.268,30.688 L32.268,21.256 L31.128,21.256 L31.128,30.688 L27.648,30.688 L27.648,31.804 L38.352,31.804 Z M29.448,29.236 L30.492,28.972 C30.012,26.908 29.472,25.072 28.86,23.464 L27.888,23.776 C28.512,25.528 29.04,27.352 29.448,29.236 Z M36.336,29.188 C37.056,27.64 37.644,25.84 38.1,23.776 L37.092,23.488 C36.588,25.648 35.988,27.436 35.316,28.828 L36.336,29.188 Z M45.18,23.164 L45.18,22.108 L42.96,22.108 C42.816,21.712 42.66,21.352 42.516,21.028 L41.34,21.22 C41.52,21.496 41.688,21.796 41.832,22.108 L39.696,22.108 L39.696,23.164 L45.18,23.164 Z M49.404,32.248 L49.404,25.96 L50.556,25.96 L50.556,24.868 L46.848,24.868 L46.848,22.924 C48.096,22.84 49.236,22.624 50.268,22.264 L49.716,21.256 C48.54,21.712 47.22,21.964 45.744,21.988 L45.744,27.172 C45.696,28.96 45.324,30.352 44.64,31.36 L45.444,32.224 C46.32,30.964 46.788,29.284 46.848,27.172 L46.848,25.96 L48.288,25.96 L48.288,32.248 L49.404,32.248 Z M41.844,32.284 C42.636,32.284 43.032,31.924 43.032,31.204 L43.032,27.988 L45.048,27.988 L45.048,26.956 L43.032,26.956 L43.032,25.876 L45.252,25.876 L45.252,24.832 L44.028,24.832 C44.208,24.472 44.376,24.076 44.52,23.632 L43.5,23.272 C43.356,23.812 43.188,24.328 42.996,24.832 L41.856,24.832 C41.688,24.232 41.496,23.716 41.304,23.284 L40.308,23.656 C40.512,24.016 40.692,24.412 40.848,24.832 L39.576,24.832 L39.576,25.876 L41.904,25.876 L41.904,26.956 L39.768,26.956 L39.768,27.988 L41.904,27.988 L41.904,30.94 C41.904,31.18 41.76,31.3 41.472,31.3 C41.316,31.3 41.148,31.276 40.968,31.228 L41.22,32.284 L41.844,32.284 Z M44.028,30.88 L44.988,30.52 C44.808,29.896 44.556,29.2 44.244,28.432 L43.308,28.684 C43.596,29.404 43.836,30.136 44.028,30.88 Z M40.308,31.9 C40.836,31 41.232,29.944 41.52,28.732 L40.488,28.516 C40.272,29.5 39.9,30.436 39.372,31.3 L40.308,31.9 Z M52.32,32.152 C53.064,31.168 53.508,29.92 53.652,28.408 L56.472,28.408 L56.472,31.828 L57.624,31.828 L57.624,28.408 L60.6,28.408 L60.6,30.196 C60.6,30.664 60.396,30.904 60.012,30.904 C59.604,30.904 59.172,30.88 58.704,30.844 L59.004,31.96 L60.384,31.96 C61.296,31.96 61.764,31.504 61.764,30.604 L61.764,21.568 L52.56,21.568 L52.56,27.448 C52.536,29.032 52.164,30.34 51.444,31.372 L52.32,32.152 Z M60.6,24.472 L57.624,24.472 L57.624,22.672 L60.6,22.672 L60.6,24.472 Z M56.472,24.472 L53.712,24.472 L53.712,22.672 L56.472,22.672 L56.472,24.472 Z M56.472,27.352 L53.712,27.352 L53.712,25.516 L56.472,25.516 L56.472,27.352 Z M60.6,27.352 L57.624,27.352 L57.624,25.516 L60.6,25.516 L60.6,27.352 Z M64.188,32.296 C65.232,30.76 65.784,28.924 65.856,26.812 L73.56,26.812 L73.56,22.54 L69.756,22.54 C69.564,22 69.372,21.508 69.168,21.064 L67.944,21.256 C68.184,21.652 68.4,22.084 68.592,22.54 L64.74,22.54 L64.74,26.464 C64.728,28.528 64.26,30.22 63.348,31.528 L64.188,32.296 Z M72.408,25.696 L65.868,25.696 L65.868,23.656 L72.408,23.656 L72.408,25.696 Z" id="企业新用户" fill="#FFFFFF" fill-rule="nonzero" transform="translate(44.448000, 26.662000) rotate(43.000000) translate(-44.448000, -26.662000) "></path>
    </g>
</svg>