<?xml version="1.0" encoding="UTF-8"?>
<svg width="74px" height="66px" viewBox="0 0 74 66" version="1.1" xmlns="http://www.w3.org/2000/svg" xmlns:xlink="http://www.w3.org/1999/xlink">
    <title>mdpi/产品首单特惠-pc端</title>
    <g id="组件库" stroke="none" stroke-width="1" fill="none" fill-rule="evenodd">
        <g id="label/产品首单特惠">
            <polygon id="Path-4" fill="#F64041" points="1.4281909e-12 2.84217094e-14 74 66 74 41 29 2.84217094e-14"></polygon>
            <polygon id="矩形" fill="#CA3233" points="0 0 4.49221802 4 0 4"></polygon>
            <polygon id="矩形" fill="#CA3233" points="70 62.3978271 74 66 70 66"></polygon>
            <path d="M10.1629694,33.5890025 C10.9789694,32.4490025 11.3989694,30.9370025 11.4469694,29.0650025 L11.4469694,27.4450025 L19.9669694,27.4450025 L19.9669694,26.3410025 L17.1949694,26.3410025 C17.4109694,25.8370025 17.5789694,25.3090025 17.6989694,24.7690025 L19.7149694,24.7690025 L19.7149694,23.6890025 L15.5509694,23.6890025 C15.3829694,23.2090025 15.2269694,22.7770025 15.0589694,22.3930025 L13.8589694,22.5850025 C14.0509694,22.9210025 14.2309694,23.2930025 14.3869694,23.6890025 L10.1629694,23.6890025 L10.1629694,24.7690025 L12.2989694,24.7690025 L12.7189694,26.3410025 L10.2949694,26.3410025 L10.2949694,29.0650025 C10.2709694,30.6610025 9.93496945,31.9090025 9.28696945,32.8210025 L10.1629694,33.5890025 Z M16.1029694,26.3410025 L13.8469694,26.3410025 L13.4149694,24.7690025 L16.6069694,24.7690025 C16.4869694,25.3090025 16.3189694,25.8370025 16.1029694,26.3410025 Z M30.3109694,27.1330025 L30.3109694,22.9450025 L23.4949694,22.9450025 L23.4949694,27.1330025 L30.3109694,27.1330025 Z M29.1709694,26.0530025 L24.6349694,26.0530025 L24.6349694,24.0250025 L29.1709694,24.0250025 L29.1709694,26.0530025 Z M23.0029694,33.4330025 L23.0029694,32.8570025 L25.2229694,32.8570025 L25.2229694,33.4330025 L26.3269694,33.4330025 L26.3269694,28.0330025 L21.8869694,28.0330025 L21.8869694,33.4330025 L23.0029694,33.4330025 Z M28.4629694,33.4330025 L28.4629694,32.8570025 L30.7789694,32.8570025 L30.7789694,33.4330025 L31.9189694,33.4330025 L31.9189694,28.0330025 L27.3469694,28.0330025 L27.3469694,33.4330025 L28.4629694,33.4330025 Z M25.2229694,31.7890025 L23.0029694,31.7890025 L23.0029694,29.1130025 L25.2229694,29.1130025 L25.2229694,31.7890025 Z M30.7789694,31.7890025 L28.4629694,31.7890025 L28.4629694,29.1130025 L30.7789694,29.1130025 L30.7789694,31.7890025 Z M35.9389694,33.6250025 L35.9389694,33.1930025 L41.8669694,33.1930025 L41.8669694,33.6250025 L42.9949694,33.6250025 L42.9949694,26.1010025 L39.2389694,26.1010025 C39.3109694,25.7890025 39.3829694,25.4650025 39.4429694,25.1290025 L44.2549694,25.1290025 L44.2549694,24.0250025 L41.3629694,24.0250025 C41.5549694,23.6650025 41.7349694,23.2690025 41.9029694,22.8370025 L40.7749694,22.4410025 C40.5829694,22.9930025 40.3549694,23.5210025 40.1029694,24.0250025 L37.6429694,24.0250025 C37.4389694,23.4250025 37.2229694,22.8970025 36.9829694,22.4650025 L35.8669694,22.8850025 C36.0829694,23.2450025 36.2749694,23.6170025 36.4429694,24.0250025 L33.5509694,24.0250025 L33.5509694,25.1290025 L38.2309694,25.1290025 C38.1829694,25.4650025 38.1349694,25.7890025 38.0629694,26.1010025 L34.8109694,26.1010025 L34.8109694,33.6250025 L35.9389694,33.6250025 Z M41.8669694,28.1410025 L35.9389694,28.1410025 L35.9389694,27.1330025 L41.8669694,27.1330025 L41.8669694,28.1410025 Z M41.8669694,30.1330025 L35.9389694,30.1330025 L35.9389694,29.1250025 L41.8669694,29.1250025 L41.8669694,30.1330025 Z M41.8669694,32.1610025 L35.9389694,32.1610025 L35.9389694,31.1290025 L41.8669694,31.1290025 L41.8669694,32.1610025 Z M51.4669694,33.6610025 L51.4669694,31.5130025 L56.2669694,31.5130025 L56.2669694,30.4330025 L51.4669694,30.4330025 L51.4669694,29.4850025 L55.1749694,29.4850025 L55.1749694,24.3370025 L52.9909694,24.3370025 C53.3269694,23.8810025 53.6269694,23.3770025 53.8909694,22.8250025 L52.7869694,22.4290025 C52.5109694,23.1010025 52.1869694,23.7370025 51.8029694,24.3370025 L49.3789694,24.3370025 L50.0989694,23.9770025 C49.7389694,23.4250025 49.3549694,22.9330025 48.9469694,22.4890025 L47.9989694,22.9450025 C48.3709694,23.3530025 48.7189694,23.8210025 49.0549694,24.3370025 L46.6309694,24.3370025 L46.6309694,29.4850025 L50.3389694,29.4850025 L50.3389694,30.4330025 L45.5389694,30.4330025 L45.5389694,31.5130025 L50.3389694,31.5130025 L50.3389694,33.6610025 L51.4669694,33.6610025 Z M50.3389694,26.4130025 L47.7349694,26.4130025 L47.7349694,25.3330025 L50.3389694,25.3330025 L50.3389694,26.4130025 Z M54.0709694,26.4130025 L51.4669694,26.4130025 L51.4669694,25.3330025 L54.0709694,25.3330025 L54.0709694,26.4130025 Z M54.0709694,28.4770025 L51.4669694,28.4770025 L51.4669694,27.3730025 L54.0709694,27.3730025 L54.0709694,28.4770025 Z M50.3389694,28.4770025 L47.7349694,28.4770025 L47.7349694,27.3730025 L50.3389694,27.3730025 L50.3389694,28.4770025 Z M68.3869694,26.9890025 L68.3869694,25.9090025 L65.7469694,25.9090025 L65.7469694,24.7690025 L67.8589694,24.7690025 L67.8589694,23.7250025 L65.7469694,23.7250025 L65.7469694,22.5250025 L64.5949694,22.5250025 L64.5949694,23.7250025 L62.6029694,23.7250025 L62.6029694,24.7690025 L64.5949694,24.7690025 L64.5949694,25.9090025 L61.9429694,25.9090025 L61.9429694,26.9890025 L68.3869694,26.9890025 Z M60.6829694,33.6130025 L60.6829694,29.6770025 C61.0189694,29.5570025 61.3549694,29.4130025 61.6909694,29.2690025 L61.6909694,28.1890025 C61.3669694,28.3330025 61.0309694,28.4650025 60.6829694,28.6090025 L60.6829694,26.0530025 L61.6429694,26.0530025 L61.6429694,24.9490025 L60.6829694,24.9490025 L60.6829694,22.5490025 L59.5909694,22.5490025 L59.5909694,24.9490025 L58.8709694,24.9490025 C58.9189694,24.4930025 58.9429694,24.0370025 58.9669694,23.5690025 L57.9349694,23.4970025 C57.8869694,24.8890025 57.6829694,26.2090025 57.3229694,27.4570025 L58.3189694,27.7450025 C58.4749694,27.1930025 58.6069694,26.6290025 58.7149694,26.0530025 L59.5909694,26.0530025 L59.5909694,29.0050025 C58.8589694,29.2210025 58.1149694,29.4010025 57.3709694,29.5450025 L57.6469694,30.6490025 C58.3069694,30.4810025 58.9549694,30.2890025 59.5909694,30.0730025 L59.5909694,33.6130025 L60.6829694,33.6130025 Z M65.9149694,33.5290025 C66.6349694,33.5290025 67.0069694,33.1330025 67.0069694,32.3410025 L67.0069694,29.2210025 L68.2789694,29.2210025 L68.2789694,28.1410025 L67.0069694,28.1410025 L67.0069694,27.4570025 L65.9029694,27.4570025 L65.9029694,28.1410025 L62.2069694,28.1410025 L62.2069694,29.2210025 L65.9029694,29.2210025 L65.9029694,32.0530025 C65.9029694,32.3650025 65.7709694,32.5330025 65.5189694,32.5330025 C65.0869694,32.5330025 64.6309694,32.4970025 64.1509694,32.4490025 L64.3909694,33.5290025 L65.9149694,33.5290025 Z M63.7309694,32.0050025 L64.6309694,31.3690025 C64.2949694,30.8650025 63.8269694,30.2650025 63.2269694,29.5810025 L62.3389694,30.1450025 C62.9149694,30.8170025 63.3829694,31.4410025 63.7309694,32.0050025 Z M79.4509694,30.3130025 L80.2909694,29.7370025 C79.9309694,29.3290025 79.4389694,28.8490025 78.8149694,28.3210025 L79.2349694,28.3210025 L79.2349694,24.7330025 L75.4669694,24.7330025 L75.4669694,24.2050025 L80.2549694,24.2050025 L80.2549694,23.2450025 L75.4669694,23.2450025 L75.4669694,22.5130025 L74.3389694,22.5130025 L74.3389694,23.2450025 L69.5509694,23.2450025 L69.5509694,24.2050025 L74.3389694,24.2050025 L74.3389694,24.7330025 L70.5709694,24.7330025 L70.5709694,28.3210025 L74.3389694,28.3210025 L74.3389694,28.8970025 C72.9709694,28.9210025 71.4589694,28.9330025 69.8029694,28.9570025 L69.9469694,29.9530025 C74.0029694,29.8450025 76.9669694,29.7250025 78.8269694,29.5930025 C79.0549694,29.8330025 79.2589694,30.0730025 79.4509694,30.3130025 Z M74.3389694,26.1610025 L71.6509694,26.1610025 L71.6509694,25.5730025 L74.3389694,25.5730025 L74.3389694,26.1610025 Z M78.1549694,26.1610025 L75.4669694,26.1610025 L75.4669694,25.5730025 L78.1549694,25.5730025 L78.1549694,26.1610025 Z M78.1549694,27.4810025 L75.4669694,27.4810025 L75.4669694,26.8930025 L78.1549694,26.8930025 L78.1549694,27.4810025 Z M74.3389694,27.4810025 L71.6509694,27.4810025 L71.6509694,26.8930025 L74.3389694,26.8930025 L74.3389694,27.4810025 Z M75.4669694,28.8730025 L75.4669694,28.3210025 L77.9149694,28.3210025 L77.6749694,28.4770025 L78.0109694,28.7890025 C77.2549694,28.8130025 76.4029694,28.8490025 75.4669694,28.8730025 Z M75.5509694,31.9690025 L76.4029694,31.3810025 C76.0789694,30.9730025 75.6229694,30.5050025 75.0349694,29.9650025 L74.1829694,30.4930025 C74.7589694,31.0330025 75.2149694,31.5250025 75.5509694,31.9690025 Z M79.5349694,32.9650025 L80.4349694,32.3650025 C80.0149694,31.6930025 79.4149694,30.9130025 78.6349694,30.0370025 L77.7709694,30.5770025 C78.5149694,31.4530025 79.1029694,32.2450025 79.5349694,32.9650025 Z M76.6189694,33.4210025 C77.0509694,33.4210025 77.3629694,33.3370025 77.5669694,33.1690025 C77.7829694,32.9890025 77.9389694,32.4490025 78.0229694,31.5370025 L76.9909694,31.2010025 C76.9549694,31.7650025 76.8829694,32.1010025 76.7869694,32.2210025 C76.7149694,32.3170025 76.5829694,32.3770025 76.4149694,32.3770025 L73.7629694,32.3770025 C73.4749694,32.3770025 73.3429694,32.2570025 73.3429694,32.0290025 L73.3429694,30.2650025 L72.2389694,30.2650025 L72.2389694,32.2690025 C72.2389694,33.0370025 72.6349694,33.4210025 73.4269694,33.4210025 L76.6189694,33.4210025 Z M70.3789694,33.1930025 C70.8949694,32.4370025 71.2909694,31.5490025 71.5789694,30.5170025 L70.5589694,30.3130025 C70.3309694,31.1290025 69.9589694,31.8850025 69.4429694,32.5930025 L70.3789694,33.1930025 Z" id="产品首单特惠" fill="#FFFFFF" fill-rule="nonzero" transform="translate(44.860969, 28.027002) rotate(42.000000) translate(-44.860969, -28.027002) "></path>
        </g>
    </g>
</svg>