<?xml version="1.0" encoding="UTF-8"?>
<svg width="74px" height="66px" viewBox="0 0 74 66" version="1.1" xmlns="http://www.w3.org/2000/svg" xmlns:xlink="http://www.w3.org/1999/xlink">
    <!-- Generator: Sketch 64 (93537) - https://sketch.com -->
    <title>label/企业用户</title>
    <desc>Created with Sketch.</desc>
    <g id="label/企业用户" stroke="none" stroke-width="1" fill="none" fill-rule="evenodd">
        <polygon id="Path-4" fill="#00A4FF" points="1.4281909e-12 2.84217094e-14 74 66 74 41 29 2.84217094e-14"></polygon>
        <polygon id="矩形" fill="#006EFF" points="0 0 4.49221802 4 0 4"></polygon>
        <polygon id="矩形" fill="#006EFF" points="70 62.3978271 74 66 70 66"></polygon>
        <path d="M11.0099703,27.0066793 C13.0979703,25.8906793 14.7899703,24.5706793 16.0619703,23.0346793 C17.4419703,24.6666793 19.1099703,25.9866793 21.0659703,26.9946793 L21.6899703,25.8906793 C19.7219703,24.9546793 17.9939703,23.6586793 16.4819703,22.0146793 L15.6419703,22.0146793 C14.2499703,23.5746793 12.4979703,24.8706793 10.3979703,25.9026793 L11.0099703,27.0066793 Z M21.0179703,32.6466793 L21.0179703,31.5426793 L16.9739703,31.5426793 L16.9739703,28.9026793 L20.1539703,28.9026793 L20.1539703,27.8106793 L16.9739703,27.8106793 L16.9739703,25.2426793 L15.8339703,25.2426793 L15.8339703,31.5426793 L13.8179703,31.5426793 L13.8179703,26.9706793 L12.6899703,26.9706793 L12.6899703,31.5426793 L10.9619703,31.5426793 L10.9619703,32.6466793 L21.0179703,32.6466793 Z M32.9139703,32.6466793 L32.9139703,31.5306793 L29.4099703,31.5306793 L29.4099703,22.0986793 L28.2699703,22.0986793 L28.2699703,31.5306793 L26.8299703,31.5306793 L26.8299703,22.0986793 L25.6899703,22.0986793 L25.6899703,31.5306793 L22.2099703,31.5306793 L22.2099703,32.6466793 L32.9139703,32.6466793 Z M24.0099703,30.0786793 L25.0539703,29.8146793 C24.5739703,27.7506793 24.0339703,25.9146793 23.4219703,24.3066793 L22.4499703,24.6186793 C23.0739703,26.3706793 23.6019703,28.1946793 24.0099703,30.0786793 Z M30.8979703,30.0306793 C31.6179703,28.4826793 32.2059703,26.6826793 32.6619703,24.6186793 L31.6539703,24.3306793 C31.1499703,26.4906793 30.5499703,28.2786793 29.8779703,29.6706793 L30.8979703,30.0306793 Z M34.3819703,32.9946793 C35.1259703,32.0106793 35.5699703,30.7626793 35.7139703,29.2506793 L38.5339703,29.2506793 L38.5339703,32.6706793 L39.6859703,32.6706793 L39.6859703,29.2506793 L42.6619703,29.2506793 L42.6619703,31.0386793 C42.6619703,31.5066793 42.4579703,31.7466793 42.0739703,31.7466793 C41.6659703,31.7466793 41.2339703,31.7226793 40.7659703,31.6866793 L41.0659703,32.8026793 L42.4459703,32.8026793 C43.3579703,32.8026793 43.8259703,32.3466793 43.8259703,31.4466793 L43.8259703,22.4106793 L34.6219703,22.4106793 L34.6219703,28.2906793 C34.5979703,29.8746793 34.2259703,31.1826793 33.5059703,32.2146793 L34.3819703,32.9946793 Z M42.6619703,25.3146793 L39.6859703,25.3146793 L39.6859703,23.5146793 L42.6619703,23.5146793 L42.6619703,25.3146793 Z M38.5339703,25.3146793 L35.7739703,25.3146793 L35.7739703,23.5146793 L38.5339703,23.5146793 L38.5339703,25.3146793 Z M38.5339703,28.1946793 L35.7739703,28.1946793 L35.7739703,26.3586793 L38.5339703,26.3586793 L38.5339703,28.1946793 Z M42.6619703,28.1946793 L39.6859703,28.1946793 L39.6859703,26.3586793 L42.6619703,26.3586793 L42.6619703,28.1946793 Z M45.7499703,33.1386793 C46.7939703,31.6026793 47.3459703,29.7666793 47.4179703,27.6546793 L55.1219703,27.6546793 L55.1219703,23.3826793 L51.3179703,23.3826793 C51.1259703,22.8426793 50.9339703,22.3506793 50.7299703,21.9066793 L49.5059703,22.0986793 C49.7459703,22.4946793 49.9619703,22.9266793 50.1539703,23.3826793 L46.3019703,23.3826793 L46.3019703,27.3066793 C46.2899703,29.3706793 45.8219703,31.0626793 44.9099703,32.3706793 L45.7499703,33.1386793 Z M53.9699703,26.5386793 L47.4299703,26.5386793 L47.4299703,24.4986793 L53.9699703,24.4986793 L53.9699703,26.5386793 Z M64.7739703,33.1746793 L65.3979703,32.1906793 C64.7979703,31.9266793 64.1739703,31.6746793 63.5259703,31.4346793 C64.6779703,30.6066793 65.5299703,29.7906793 66.0819703,28.9746793 L66.0819703,27.9906793 L60.5259703,27.9906793 C60.6699703,27.5706793 60.8019703,27.1266793 60.9459703,26.6466793 L67.4859703,26.6466793 L67.4859703,25.5546793 L61.2459703,25.5546793 C61.3419703,25.1706793 61.4379703,24.7626793 61.5339703,24.3426793 L66.7779703,24.3426793 L66.7779703,23.2746793 L61.7619703,23.2746793 C61.8339703,22.8666793 61.9179703,22.4346793 62.0019703,21.9906793 L60.8259703,21.8946793 L60.5499703,23.2746793 L60.5499703,23.2746793 L57.4539703,23.2746793 L57.4539703,24.3426793 L60.3099703,24.3426793 L60.0099703,25.5546793 L60.0099703,25.5546793 L56.6379703,25.5546793 L56.6379703,26.6466793 L59.6979703,26.6466793 C59.4459703,27.4746793 59.1819703,28.2666793 58.8939703,29.0346793 L64.7019703,29.0346793 C64.1139703,29.7066793 63.3099703,30.3546793 62.2899703,31.0026793 C61.5219703,30.7386793 60.7179703,30.5106793 59.8779703,30.2946793 L59.2779703,31.1826793 C61.1499703,31.6626793 62.9859703,32.3346793 64.7739703,33.1746793 Z M78.8059703,23.9706793 L78.8059703,22.9026793 L74.0659703,22.9026793 C73.9099703,22.5666793 73.7539703,22.2546793 73.5859703,21.9786793 L72.2659703,22.1826793 C72.4459703,22.3986793 72.6139703,22.6386793 72.7699703,22.9026793 L68.3179703,22.9026793 L68.3179703,23.9706793 L78.8059703,23.9706793 Z M77.2819703,27.1026793 L77.2819703,24.4986793 L69.8539703,24.4986793 L69.8539703,27.1026793 L77.2819703,27.1026793 Z M76.1779703,26.1306793 L70.9579703,26.1306793 L70.9579703,25.4586793 L76.1779703,25.4586793 L76.1779703,26.1306793 Z M73.1179703,33.0786793 C73.9219703,33.0786793 74.3299703,32.6586793 74.3299703,31.8306793 L74.3299703,30.9426793 L79.0699703,30.9426793 L79.0699703,29.9106793 L74.3299703,29.9106793 L74.3299703,29.8506793 C75.6259703,29.3466793 76.7779703,28.8786793 77.7619703,28.4466793 L77.7619703,27.6426793 L69.2179703,27.6426793 L69.2179703,28.6506793 L75.4819703,28.6506793 L73.2139703,29.5626793 L73.2139703,29.9106793 L68.0539703,29.9106793 L68.0539703,30.9426793 L73.2139703,30.9426793 L73.2139703,31.5066793 C73.2139703,31.9146793 73.0219703,32.1306793 72.6619703,32.1306793 C72.2899703,32.1306793 71.7859703,32.0946793 71.1499703,32.0466793 L71.4499703,33.0786793 L73.1179703,33.0786793 Z" id="企业用户专享" fill="#FFFFFF" fill-rule="nonzero" transform="translate(44.733970, 27.534679) rotate(43.000000) translate(-44.733970, -27.534679) "></path>
    </g>
</svg>