<?xml version="1.0" encoding="UTF-8"?>
<svg width="48px" height="48px" viewBox="0 0 48 48" version="1.1" xmlns="http://www.w3.org/2000/svg" xmlns:xlink="http://www.w3.org/1999/xlink">
    <title>side_nav_trigger_mobile</title>
    <g id="国网" stroke="none" stroke-width="1" fill="none" fill-rule="evenodd">
        <g id="国网-换色素材-2" transform="translate(-131.000000, -532.000000)">
            <g id="side_nav_trigger_mobile" transform="translate(131.000000, 532.000000)">
                <g id="椭圆形" fill="#FFFFFF" fill-opacity="0.90272618" stroke="#E8EBF2">
                    <circle id="Oval" cx="24" cy="24" r="23.5"></circle>
                </g>
                <path d="M34,29 L34,31 L19,31 L19,29 L34,29 Z M17,29 L17,31 L15,31 L15,29 L17,29 Z M34,23 L34,25 L19,25 L19,23 L34,23 Z M17,23 L17,25 L15,25 L15,23 L17,23 Z M34,17 L34,19 L19,19 L19,17 L34,17 Z M17,17 L17,19 L15,19 L15,17 L17,17 Z" id="形状结合" fill="#00A4FF" fill-rule="nonzero"></path>
            </g>
        </g>
    </g>
</svg>