<?xml version="1.0" encoding="UTF-8"?>
<svg width="20px" height="21px" viewBox="0 0 20 21" version="1.1" xmlns="http://www.w3.org/2000/svg" xmlns:xlink="http://www.w3.org/1999/xlink">
    <title>btn_floating/1备份 4</title>
    <g id="页面-1" stroke="none" stroke-width="1" fill="none" fill-rule="evenodd">
        <g id="I007_悬浮菜单（新版）-进阶" transform="translate(-61.000000, -6346.000000)" fill="#191919">
            <g id="btn_floating/1备份-4" transform="translate(61.000000, 6346.203171)">
                <path d="M10,0 C15.4844154,0 20,4.46307782 20,10 C20,15.5369222 15.4844154,20 10,20 C4.51558462,20 0,15.5369222 0,10 C0,4.46307782 4.51558462,0 10,0 Z M10,1.30434783 C5.28371408,1.30434783 1.30434783,5.13633014 1.30434783,10 C1.30434783,14.8636699 5.28371408,18.6956522 10,18.6956522 C14.7162859,18.6956522 18.6956522,14.8636699 18.6956522,10 C18.6956522,5.13633014 14.7162859,1.30434783 10,1.30434783 Z" id="形状" fill-rule="nonzero"></path>
                <path d="M6.46278556,8.55932203 C7.12312602,8.55932203 7.65843773,8.02401032 7.65843773,7.36366986 C7.65843773,6.7033294 7.12312602,6.16801769 6.46278556,6.16801769 C5.80244509,6.16801769 5.26713338,6.7033294 5.26713338,7.36366986 C5.26713338,8.02401032 5.80244509,8.55932203 6.46278556,8.55932203 Z" id="椭圆形"></path>
                <path d="M13.6680177,8.55932203 C14.3283581,8.55932203 14.8636699,8.02401032 14.8636699,7.36366986 C14.8636699,6.7033294 14.3283581,6.16801769 13.6680177,6.16801769 C13.0076772,6.16801769 12.4723655,6.7033294 12.4723655,7.36366986 C12.4723655,8.02401032 13.0076772,8.55932203 13.6680177,8.55932203 Z" id="椭圆形备份"></path>
                <path d="M6.46278556,8.55932203 C7.12312602,8.55932203 7.65843773,8.02401032 7.65843773,7.36366986 C7.65843773,6.7033294 7.12312602,6.16801769 6.46278556,6.16801769 C5.80244509,6.16801769 5.26713338,6.7033294 5.26713338,7.36366986 C5.26713338,8.02401032 5.80244509,8.55932203 6.46278556,8.55932203 Z" id="椭圆形"></path>
                <path d="M13.6680177,8.55932203 C14.3283581,8.55932203 14.8636699,8.02401032 14.8636699,7.36366986 C14.8636699,6.7033294 14.3283581,6.16801769 13.6680177,6.16801769 C13.0076772,6.16801769 12.4723655,6.7033294 12.4723655,7.36366986 C12.4723655,8.02401032 13.0076772,8.55932203 13.6680177,8.55932203 Z" id="椭圆形备份"></path>
                <path d="M14.5067764,12.2446357 C14.7078411,11.9457934 15.1130958,11.8665291 15.4119381,12.0675938 C15.7107804,12.2686586 15.7900448,12.6739133 15.58898,12.9727556 C14.3282132,14.8466318 12.525684,15.8007812 10.24961,15.8007812 C7.97353588,15.8007812 6.17100674,14.8466318 4.91023989,12.9727556 C4.70917514,12.6739133 4.7884395,12.2686586 5.08728179,12.0675938 C5.38612408,11.8665291 5.7913788,11.9457934 5.99244354,12.2446357 C7.01018818,13.7573084 8.40650454,14.4964334 10.24961,14.4964334 C12.0927154,14.4964334 13.4890317,13.7573084 14.5067764,12.2446357 Z" id="路径" fill-rule="nonzero"></path>
            </g>
        </g>
    </g>
</svg>