<svg width="24" height="24" viewBox="0 0 24 24" fill="none" xmlns="http://www.w3.org/2000/svg">
<path fill-rule="evenodd" clip-rule="evenodd" d="M5 8C5 4.13401 8.13401 1 12 1C15.866 1 19 4.13401 19 8H20C21.6569 8 23 9.34315 23 11V14C23 15.6569 21.6569 17 20 17H19V18C19 20.7614 16.7614 23 14 23H10V19H14V21C15.6569 21 17 19.6569 17 18V8C17 5.23858 14.7614 3 12 3C9.23858 3 7 5.23858 7 8V17H4C2.34315 17 1 15.6569 1 14V11C1 9.34315 2.34315 8 4 8L5 8ZM19 15V10H20C20.5523 10 21 10.4477 21 11V14C21 14.5523 20.5523 15 20 15H19ZM5 10V15H4C3.44772 15 3 14.5523 3 14V11C3 10.4477 3.44772 10 4 10H5Z" fill="white"/>
</svg>
