<svg xmlns="http://www.w3.org/2000/svg" width="16px" height="16px" viewBox="0 0 16 16" class="design-iconfont">
  <g fill="#0052D9" fill-rule="evenodd">
    <path d="M10,0 L10,14 L4.02099609,11 L0,11 L0,3 L3.85644531,3 L10,0 Z M8,10.759 L8,3.202 L4.31867857,5 L2,5 L2,9 L4.49461419,9 L8,10.759 Z" fill-rule="nonzero" transform="translate(0 1)"/>
    <path d="M13.1464466,9.23223305 L15.267767,11.3535534 L13.8535534,12.767767 L11.732233,10.6464466 L13.1464466,9.23223305 Z M16,6 L16,8 L13,8 L13,6 L16,6 Z M13.8535534,1.23223305 L15.267767,2.64644661 L13.1464466,4.76776695 L11.732233,3.35355339 L13.8535534,1.23223305 Z" transform="translate(0 1)"/>
  </g>
</svg>
