<?xml version="1.0" encoding="UTF-8"?><svg width="78" height="52" viewBox="0 0 78 52" xmlns="http://www.w3.org/2000/svg" xmlns:xlink="http://www.w3.org/1999/xlink"><svg width="26" height="26" viewBox="-1 -1 26 26" id="chrome"><title>谷歌</title><g fill-rule="nonzero" fill="none"><path d="M.005 12C.007 18.611 5.37 23.97 11.982 23.968c6.613-.002 11.972-5.365 11.97-11.978C23.949 5.381 18.59.022 11.979.021 5.366.022.005 5.382.005 11.996V12z" fill="#FFF"/><path d="M6.044 10.453L2.617 4.521C6.73-.653 14.257-1.513 19.431 2.599a11.966 11.966 0 0 1 2.85 3.27h-9.767a6.181 6.181 0 0 0-6.47 4.584z" fill="#DD4E41"/><path d="M16.262 7.605h6.876c.545 1.391.821 2.874.814 4.369.004 6.564-5.28 11.906-11.842 11.974l4.905-8.482a6.114 6.114 0 0 0-.75-7.861h-.003z" fill="#FFCD41"/><path d="M7.63 12a4.349 4.349 0 1 1 4.353 4.344h-.005A4.351 4.351 0 0 1 7.63 12z" fill="#4C8BF5"/><path d="M13.627 17.908L10.2 23.863A12 12 0 0 1 0 12.018a11.815 11.815 0 0 1 1.55-5.87l4.884 8.44a6.164 6.164 0 0 0 5.544 3.532 7.11 7.11 0 0 0 1.65-.213z" fill="#1DA362"/></g></svg><svg width="26" height="26" viewBox="-1 -1 26 26" id="close" x="26"><title>Group 3 Copy</title><g fill="none" fill-rule="evenodd"><circle stroke="#FFF" fill-opacity=".2" fill="#000" cx="12" cy="12" r="11.5"/><path d="M4 4h16v16H4z"/><path d="M8.948 8.163L12 11.214l3.052-3.051a.555.555 0 1 1 .785.785L12.786 12l3.051 3.052a.556.556 0 0 1-.785.785L12 12.786l-3.052 3.051a.555.555 0 1 1-.785-.785L11.214 12 8.163 8.948a.556.556 0 0 1 .785-.785z" fill="#FFF" fill-rule="nonzero"/></g></svg><svg width="26" height="26" viewBox="-1 -1 26 26" id="ie" y="26"><title>下载</title><defs><linearGradient x1="0%" y1="50%" y2="50%" id="aca"><stop stop-color="#0C59A4" offset="0%"/><stop stop-color="#114A8B" offset="100%"/></linearGradient><radialGradient cx="55.234%" cy="50.866%" fx="55.234%" fy="50.866%" r="61.978%" gradientTransform="matrix(.86299 0 0 1 .076 0)" id="acb"><stop stop-opacity="0" offset="71.659%"/><stop stop-opacity=".53" offset="94.59%"/><stop offset="100%"/></radialGradient><linearGradient x1="76.69%" y1="24.818%" x2="33.272%" y2="83.176%" id="acc"><stop stop-color="#1B9DE2" offset="0%"/><stop stop-color="#1595DF" offset="16.164%"/><stop stop-color="#0680D7" offset="66.749%"/><stop stop-color="#0078D4" offset="100%"/></linearGradient><radialGradient cx="42.319%" cy="72.424%" fx="42.319%" fy="72.424%" r="85.009%" gradientTransform="scale(1 .8104) rotate(-81.464 .522 .809)" id="acd"><stop stop-opacity="0" offset="76.293%"/><stop stop-opacity=".5" offset="94.59%"/><stop offset="100%"/></radialGradient><radialGradient cx="9.855%" cy="27.453%" fx="9.855%" fy="27.453%" r="118.734%" gradientTransform="scale(-.666 -1) rotate(-87.871 -.31 .128)" id="ace"><stop stop-color="#35C1F1" offset="0%"/><stop stop-color="#34C1ED" offset="11.079%"/><stop stop-color="#2FC2DF" offset="23.164%"/><stop stop-color="#2BC3D2" offset="31.446%"/><stop stop-color="#36C752" offset="67.338%"/></radialGradient><radialGradient cx="94.715%" cy="45.501%" fx="94.715%" fy="45.501%" r="57.092%" gradientTransform="matrix(.1872 .95968 -.63915 .2811 1.06 -.582)" id="acf"><stop stop-color="#66EB6E" offset="0%"/><stop stop-color="#66EB6E" stop-opacity="0" offset="100%"/></radialGradient></defs><g fill-rule="nonzero" fill="none"><path d="M21.661 17.862a8.76 8.76 0 0 1-.987.442 9.564 9.564 0 0 1-3.366.606c-4.436 0-8.301-3.051-8.301-6.967 0-1.101.637-2.056 1.54-2.559-4.012.169-5.044 4.35-5.044 6.8 0 6.926 6.384 7.628 7.76 7.628.74 0 1.86-.215 2.533-.427l.123-.041a12.032 12.032 0 0 0 6.243-4.952c.207-.329-.157-.71-.501-.53z" fill="url(#aca)"/><path d="M21.661 17.862a8.76 8.76 0 0 1-.987.442 9.564 9.564 0 0 1-3.366.606c-4.436 0-8.301-3.051-8.301-6.967 0-1.101.637-2.056 1.54-2.559-4.012.169-5.044 4.35-5.044 6.8 0 6.926 6.384 7.628 7.76 7.628.74 0 1.86-.215 2.533-.427l.123-.041a12.032 12.032 0 0 0 6.243-4.952c.207-.329-.157-.71-.501-.53z" fill="url(#acb)" opacity=".35"/><path d="M9.91 22.632A7.418 7.418 0 0 1 7.78 20.63a7.636 7.636 0 0 1-1.419-4.445c0-2.45 1.141-4.62 2.9-5.994.399-.312.91-.627 1.287-.806.292-.138.793-.388 1.457-.378a3.034 3.034 0 0 1 2.408 1.215c.364.49.589 1.094.596 1.75 0-.02 2.294-7.463-7.504-7.463C3.389 4.508 0 8.414 0 11.84c0 2.174.504 3.909 1.136 5.253a12.03 12.03 0 0 0 7.204 6.335 11.995 11.995 0 0 0 7.456-.043 7.102 7.102 0 0 1-2.13.327 7.1 7.1 0 0 1-3.756-1.08z" fill="url(#acc)"/><path d="M9.91 22.632A7.418 7.418 0 0 1 7.78 20.63a7.636 7.636 0 0 1-1.419-4.445c0-2.45 1.141-4.62 2.9-5.994.399-.312.91-.627 1.287-.806.292-.138.793-.388 1.457-.378a3.034 3.034 0 0 1 2.408 1.215c.364.49.589 1.094.596 1.75 0-.02 2.294-7.463-7.504-7.463C3.389 4.508 0 8.414 0 11.84c0 2.174.504 3.909 1.136 5.253a12.03 12.03 0 0 0 7.204 6.335 11.995 11.995 0 0 0 7.456-.043 7.102 7.102 0 0 1-2.13.327 7.1 7.1 0 0 1-3.756-1.08z" fill="url(#acd)" opacity=".41"/><path d="M14.28 13.955c-.076.099-.31.235-.31.531 0 .245.16.48.442.678 1.349.94 3.89.814 3.897.814a5.582 5.582 0 0 0 2.838-.786c.384-.225.74-.492 1.061-.797A5.794 5.794 0 0 0 24 10.235c.024-2.102-.746-3.499-1.062-4.117C20.95 2.235 16.66 0 11.997 0 5.426 0 .09 5.282.002 11.831.045 8.405 3.45 5.64 7.497 5.64c.329 0 2.2.032 3.938.944 1.532.804 2.335 1.775 2.893 2.739.579 1 .682 2.263.682 2.767s-.254 1.25-.73 1.866z" fill="url(#ace)"/><path d="M14.28 13.955c-.076.099-.31.235-.31.531 0 .245.16.48.442.678 1.349.94 3.89.814 3.897.814a5.582 5.582 0 0 0 2.838-.786c.384-.225.74-.492 1.061-.797A5.794 5.794 0 0 0 24 10.235c.024-2.102-.746-3.499-1.062-4.117C20.95 2.235 16.66 0 11.997 0 5.426 0 .09 5.282.002 11.831.045 8.405 3.45 5.64 7.497 5.64c.329 0 2.2.032 3.938.944 1.532.804 2.335 1.775 2.893 2.739.579 1 .682 2.263.682 2.767s-.254 1.25-.73 1.866z" fill="url(#acf)"/></g></svg><svg width="26" height="26" viewBox="-1 -1 26 26" id="qq" x="26" y="26"><title>QQ浏览器</title><g fill-rule="nonzero" fill="none"><path d="M8.841.212a11.12 11.12 0 0 1 4.136-.035 11.03 11.03 0 0 1 7.145 4.675c1.191 1.77 1.86 3.89 1.877 6.024.03 1.913-.462 3.83-1.395 5.498a2.866 2.866 0 0 0-1.126-.293 3.793 3.793 0 0 0-.935-2.192 3.76 3.76 0 0 0-2.005-1.18c.16-.596.257-1.213.23-1.832a5.615 5.615 0 0 0-.344-1.786 5.691 5.691 0 0 0-1.828-2.543 5.763 5.763 0 0 0-5.889-.759 5.75 5.75 0 0 0-3.257 6.696c.26 1.04.82 2.003 1.599 2.74a5.7 5.7 0 0 0 1.663 1.109 3.31 3.31 0 0 0 .86 5.346c.336.169.703.266 1.074.32-.37.007-.74-.04-1.108-.083a11.022 11.022 0 0 1-7.686-4.794A11.059 11.059 0 0 1 .04 11.95a11.104 11.104 0 0 1 .168-3.083 11.034 11.034 0 0 1 2.336-4.9 10.973 10.973 0 0 1 3.578-2.825c.862-.427 1.776-.74 2.72-.93z" fill="#138BFC"/><path d="M14.717 14.42a3.923 3.923 0 0 1 2.878-.487 3.927 3.927 0 0 1 3.07 3.52 3.09 3.09 0 0 1 2.603 1.729 3.098 3.098 0 0 1-1.47 4.172c-.366.18-.77.26-1.174.298-2.701-.005-5.402-.001-8.103-.002-.36-.003-.722.023-1.08-.02a3.643 3.643 0 0 1-1.122-.333 3.456 3.456 0 0 1-.898-5.58 3.462 3.462 0 0 1 3.513-.798 3.912 3.912 0 0 1 1.783-2.5z" stroke="#FFF" fill="#E5E5E5"/></g></svg><svg width="26" height="26" viewBox="-1 -1 26 26" id="warn" x="52"><title>注意</title><g fill="#00A4FF" fill-rule="evenodd"><path d="M12.337 3.698a1 1 0 0 0-1.73 0L1.613 19.187a1 1 0 0 0 .864 1.502h17.992a1 1 0 0 0 .865-1.502L12.337 3.698zm1.73-1.004l8.996 15.488a3 3 0 0 1-2.595 4.507H2.476a3 3 0 0 1-2.594-4.507L8.878 2.694a3 3 0 0 1 5.189 0z" fill-rule="nonzero"/><path d="M11 8h2v7h-2zM11 16h2v2h-2z"/></g></svg></svg>