<?xml version="1.0" encoding="UTF-8"?>
<svg width="10px" height="10px" viewBox="0 0 10 10" version="1.1" xmlns="http://www.w3.org/2000/svg" xmlns:xlink="http://www.w3.org/1999/xlink">
    <title>voucher_circle_下</title>
    <g id="voucher_circle_下" stroke="none" stroke-width="1" fill="none" fill-rule="evenodd">
        <path d="M9.5,-6.04849504e-13 C9.5,5.42923991 5.54873618,8.85177352 -5.15143483e-13,9 L-5.15143483e-13,10 L10,10 L10,-6.04849504e-13 L9.5,-6.04849504e-13 Z" id="路径" fill="#FFFFFF" fill-rule="nonzero" transform="translate(5.000000, 5.000000) rotate(-90.000000) translate(-5.000000, -5.000000) "></path>
        <path d="M10,-4.11226608e-13 C10,5.42923991 5.67332921,9.84793172 0.279904844,9.9961582 L1.1812773e-13,10 L1.1812773e-13,8 C4.33491426,8 7.86454287,4.55216223 7.99619318,0.24917933 L8,-4.11226608e-13 L10,-4.11226608e-13 Z" id="路径" fill="#FFFFFF" fill-rule="nonzero" transform="translate(5.000000, 5.000000) rotate(-90.000000) translate(-5.000000, -5.000000) "></path>
    </g>
</svg>